SplineFontDB: 3.0
FontName: EBGaramondItalic
FullName: EB Garamond Italic
FamilyName: EB Garamond
Weight: Regular
Copyright: Created by Georg Duffner with FontForge 2.0 (http://fontforge.sf.net)
UComments: "2010-5-17: Created." 
Version: 000.001
ItalicAngle: -17
UnderlinePosition: -100
UnderlineWidth: 50
Ascent: 710
Descent: 290
LayerCount: 2
Layer: 0 0 "Back"  1
Layer: 1 0 "Zeichenebene"  0
NeedsXUIDChange: 1
XUID: [1021 114 2024522534 13590131]
FSType: 0
OS2Version: 0
OS2_WeightWidthSlopeOnly: 0
OS2_UseTypoMetrics: 1
CreationTime: 1274079135
ModificationTime: 1305538913
PfmFamily: 17
TTFWeight: 400
TTFWidth: 5
LineGap: 0
VLineGap: 0
Panose: 2 0 5 2 0 0 0 0 0 0
OS2TypoAscent: 850
OS2TypoAOffset: 0
OS2TypoDescent: -290
OS2TypoDOffset: 0
OS2TypoLinegap: 0
OS2WinAscent: 850
OS2WinAOffset: 0
OS2WinDescent: 290
OS2WinDOffset: 0
HheadAscent: 850
HheadAOffset: 0
HheadDescent: -290
HheadDOffset: 0
OS2FamilyClass: 258
OS2Vendor: 'PfEd'
Lookup: 260 0 0 "mark"  {"mark subtable"  } ['mark' ('latn' <'dflt' 'DEU ' 'TRK ' 'AZE ' 'CRT ' 'CAT ' 'LAT ' > 'grek' <'dflt' > 'cyrl' <'dflt' 'SRB ' 'BGR ' > 'DFLT' <'dflt' > ) ]
Lookup: 262 0 0 "mkmk"  {"mkmk subtable"  } ['mkmk' ('latn' <'dflt' 'DEU ' 'TRK ' 'AZE ' 'CRT ' 'CAT ' 'LAT ' > 'grek' <'dflt' > 'cyrl' <'dflt' 'SRB ' 'BGR ' > 'DFLT' <'dflt' > ) ]
Lookup: 258 0 0 "kern"  {"kern subtable"  } ['kern' ('latn' <'dflt' 'DEU ' 'TRK ' 'AZE ' 'CRT ' 'CAT ' 'LAT ' > 'grek' <'dflt' > 'cyrl' <'dflt' 'SRB ' 'BGR ' > 'DFLT' <'dflt' > ) ]
MarkAttachClasses: 1
DEI: 91125
KernClass2: 12 18 "kern subtable" 
 1 A
 9 A.sc a.sc
 1 L
 1 O
 1 T
 5 V W Y
 19 V.sc W.sc v.sc w.sc
 5 h m n
 7 uni0413
 7 uni0422
 5 v w y
 1 A
 9 A.sc a.sc
 9 O Ohorn Q
 5 V W Y
 19 V.sc W.sc v.sc w.sc
 67 a ae aogonek c ccedilla d e eogonek eth g o oe oogonek q s scedilla
 28 dotlessi m n p r u uogonek z
 1 t
 79 uni0430 uni0435 uni0437 uni043E uni0441 uni044D uni044F uni0454 uni0455 uni04E9

StartChar: a
Encoding: 65 97 0
Width: 467
Flags: W
HStem: -14 60<52.7764 116.559> 353 53<277.907 346.773> 406 20G<398 411.5>
VStem: 0 79<6.7959 105.066> 254.933 179.067<30.3041 90> 376 61<395.861 424.281>
LayerCount: 2
Fore
SplineSet
308 353 m 0xd0
 244 353 79 202 79 77 c 0
 79 50 91 46 110 46 c 0
 181 46 348 286 348 326 c 4
 348 336 333 353 308 353 c 0xd0
286 -14 m 0
 267.169728006 -14 254.932869835 8.71064761262 254.932869835 30.3040667017 c 0
 254.932869835 65.6388530908 277.299987793 122 292 153 c 0
 300.675703925 171.295686962 291 171 285 164 c 0
 201 51 111.300003052 -14 43 -14 c 0
 26 -14 0 4 0 21 c 0
 0 129.55859375 134.299804688 285 240.299804688 362 c 0
 268.506835938 382.490234375 317 406 331 406 c 0xd8
 341 406 353 401 360 388 c 0
 364 380 374 382 376 388 c 0
 382 410 393 426 403 426 c 0
 420 426 437 416 437 406 c 0xb4
 437 401 434 392 430 381 c 2
 333 97 l 2
 324 71 337 54 354 54 c 0
 364 54 398 74 410 88 c 0
 413 92 434 111 434 90 c 0xb8
 434 87 427 74 424 70 c 0
 403 38 343 -14 286 -14 c 0
EndSplineSet
Validated: 33
EndChar

StartChar: t
Encoding: 84 116 1
Width: 286
Flags: HW
HStem: -14 73<37.3456 134.5> 360 38<58.8539 124.133 209.865 301.495>
VStem: 20 301
LayerCount: 2
Fore
SplineSet
200 68 m 0
 152 23 81 -14 53 -14 c 0
 32 -14 20 -5 20 23 c 4
 20 35 22 42 34 79 c 2
 124 346 l 2
 127 355 120 358 114 358 c 2
 74 360 l 2
 57 361 56 369 56 374 c 0
 56 377 72 398 90 398 c 0
 100 398 104 398 126 398 c 0
 140 398 143 401 150 416 c 2
 170 457 l 2
 181 479 215 502 224 502 c 0
 240 502 234 475 232 470 c 2
 210 411 l 2
 207 402 212 400 223 400 c 0
 250 400 280 395 298 392 c 0
 319 388 321 384 321 377 c 0
 321 374 317 366 302 365 c 0
 292 364 232 362 216 362 c 0
 204 362 188 357 185 348 c 2
 103 99 l 2
 97 80 102 59 121 59 c 0
 148 59 167 76 189 93 c 0
 205 105 217 106 217 98 c 0
 217 89 212 79 200 68 c 0
EndSplineSet
Validated: 33
EndChar

StartChar: l
Encoding: 76 108 2
Width: 250
Flags: W
HStem: -14 55<44 124.786>
VStem: 10 81.8301<6.29792 105.281>
LayerCount: 2
Fore
SplineSet
199.400390625 98.900390625 m 0
 206.916015625 106.416015625 214 120 219 120 c 0
 224 120 224 115 224 107 c 0
 224 47 95.2919921875 -14 60 -14 c 0
 28 -14 10 2 10 21 c 0
 10 38 14 52 21 76 c 2
 166 559 l 2
 171.771484375 577.963867188 180.26171875 607.124023438 180.26171875 624.061523438 c 0
 180.26171875 646.440429688 130 647.985351562 130 660 c 4
 130 665 132 669 136 671 c 4
 166 686 240 707 256 707 c 0
 262 707 273 707 273 697 c 0
 273 686 272 683 269 674 c 2
 97 86 l 2
 93.6044921875 74.5400390625 91.830078125 64.7021484375 91.830078125 57.1728515625 c 0
 91.830078125 46.962890625 95.0927734375 41 102 41 c 0
 134 41 189.399414062 88.8994140625 199.400390625 98.900390625 c 0
EndSplineSet
Validated: 1
EndChar

StartChar: o
Encoding: 79 111 3
Width: 392
Flags: W
HStem: -14 30<102.149 168.341> 384 30<218.659 284.851>
VStem: 25 64<30.5807 197.295> 298 64<202.705 369.419>
LayerCount: 2
Fore
SplineSet
298 304 m 4
 298 354 289 384 255 384 c 4
 175 384 89 189 89 96 c 0
 89 46 98 16 132 16 c 0
 212 16 298 211 298 304 c 4
362 296 m 4
 362 176 270 -14 120 -14 c 0
 80 -14 25 28 25 104 c 0
 25 224 117 414 267 414 c 4
 307 414 362 372 362 296 c 4
EndSplineSet
Validated: 1
EndChar

StartChar: h
Encoding: 72 104 4
Width: 513
Flags: HW
HStem: -14 41<219.684 306.768> 379 42<346.751 441.5>
VStem: 412 66<220.903 378.727>
LayerCount: 2
Fore
SplineSet
196 23 m 16
 196 36 211 52 223 52 c 0
 247 52 257 27 279 27 c 0
 347 27 412 255 412 332 c 0
 412 356 402 379 389 379 c 0
 367 379 333 368 257 292 c 0
 222 258 139 151 99 78 c 0
 64 14 48 -18 32 -18 c 0
 22 -18 15 4 15 16 c 0
 15 22 17 36 28 75 c 2
 169 558 l 2
 176 581 187 619 182 632 c 0
 178 644 129 650 129 659 c 4
 129 664 131 668 135 670 c 4
 165 685 237 707 253 707 c 0
 259 707 270 707 270 697 c 0
 270 686 268 683 266 674 c 2
 134 212 l 2
 131 202 138 202 143 208 c 0
 270 368 357 421 422 421 c 0
 461 421 478 394 478 333 c 0
 478 213 376 -14 239 -14 c 0
 216 -14 196 0.8759765625 196 23 c 16
EndSplineSet
Validated: 33
EndChar

StartChar: n
Encoding: 78 110 6
Width: 488
Flags: HW
HStem: -14 64<268.82 350.58> 372 42<311.936 371.22>
LayerCount: 2
Fore
SplineSet
256 36 m 6
 361 309 l 2
 383 367 365 371 349 372 c 0
 327 373 290 351 246 297 c 0
 215 259 143 151 103 78 c 0
 68 14 53 -17 37 -17 c 0
 27 -17 20 5 20 17 c 0
 20 23 28 46 42 84 c 2
 129 312 l 2
 140 341 144 356 131 356 c 0
 111 356 91 352 59 310 c 0
 54 304 46 304 44 314 c 0
 43 326 52 353 61 364 c 0
 83 392 109 413 154 414 c 0
 181 414 208 402 192 360 c 2
 138 212 l 2
 134 202 143 201 147 208 c 0
 228 348 313 414 378 414 c 0
 417 414 449 379 411 282 c 2
 336 86 l 6
 325 60 329 50 341 50 c 4
 373 50 437 108 447 118 c 4
 448 119 449 119 450 119 c 4
 454 119 458 115 458 110 c 4
 458 105 456 99 454 96 c 4
 402 33 345 -14 282 -14 c 4
 262 -14 247 12 256 36 c 6
EndSplineSet
Validated: 33
EndChar

StartChar: m
Encoding: 77 109 7
Width: 735
Flags: W
HStem: -14 64<540.251 597.58> 372 42<311.936 371.22 558.936 618.22>
LayerCount: 2
Fore
SplineSet
361 309 m 2
 383 367 365 371 349 372 c 0
 327 373 290 351 246 297 c 0
 215 259 143 151 103 78 c 0
 68 14 53 -17 37 -17 c 0
 27 -17 20 5 20 17 c 4
 20 23 28 46 42 84 c 2
 129 312 l 2
 140 341 144 356 131 356 c 0
 111 356 91 352 59 310 c 0
 54 304 46 304 44 314 c 0
 43 326 52 353 61 364 c 0
 83 392 109 413 154 414 c 0
 181 414 208 402 192 360 c 2
 138 212 l 2
 134 202 143 201 147 208 c 0
 228 348 313 414 378 414 c 0
 417 414 447 380 411 282 c 2
 385 212 l 2
 381 202 390 201 394 208 c 0
 475 348 560 414 625 414 c 0
 664 414 696 379 658 282 c 2
 583 86 l 2
 572 60 576 50 588 50 c 0
 620 50 684 108 694 118 c 0
 695 119 696 119 697 119 c 0
 701 119 705 115 705 110 c 0
 705 105 703 99 701 96 c 0
 649 33 592 -14 529 -14 c 0
 509 -14 494 12 503 36 c 2
 608 309 l 2
 630 367 612 371 596 372 c 0
 574 373 537 351 493 297 c 0
 462 259 390 151 350 78 c 0
 315 14 287 -17 271 -17 c 0
 261 -17 254 5 254 17 c 0
 254 23 262 46 276 84 c 2
 361 309 l 2
EndSplineSet
Validated: 33
EndChar

StartChar: p
Encoding: 80 112 8
Width: 454
Flags: HW
HStem: -286 29<-97.9731 -31.2755> -272 26<56.6826 116.699> -14 34<155.112 227.837> 381 33<236.412 328.435>
VStem: 357 73<186.917 357.044>
LayerCount: 2
Fore
SplineSet
-80 -286 m 0xb8
 -87 -287 -100 -285 -100 -277 c 0
 -100 -267 -82 -259 -70 -257 c 0xb8
 -42 -253 -26 -246 -18 -220 c 2
 136 294 l 2
 153 352 146 350 136 347 c 0
 108 338 75 322 47 307 c 0
 42 304 32 304 30 311 c 0
 28 318 40 329 45 332 c 0
 63 344 100 366 150 385 c 0
 159 389 165 391 168 401 c 0
 195 487 210 512 240 512 c 0
 253 512 251 502 248 490 c 2
 231 421 l 2
 229 411 228 402 234 402 c 0
 239 402 273 414 320 414 c 0
 375 414 430 368 430 282 c 4
 430 138 271 -14 173 -14 c 0
 148 -14 137 2 132 2 c 0
 122 2 116 -15 113 -24 c 2
 55 -208 l 2
 50 -223 49 -242 87 -246 c 0
 100 -247 117 -251 117 -261 c 0
 117 -269 103 -272 88 -272 c 0x78
 22 -272 -52 -281 -80 -286 c 0xb8
357 282 m 0
 357 330 335 381 293 381 c 0
 270 381 250 375 238 369 c 0
 229 365 221 351 219 341 c 2
 158 117 l 2
 148 80 147 71 147 57 c 0
 147 37 169 20 192 20 c 4
 231 20 357 137 357 282 c 0
EndSplineSet
Validated: 33
EndChar

StartChar: b
Encoding: 66 98 9
Width: 461
Flags: HW
HStem: -8 40<114.889 203.056> 371 42<313.662 393>
VStem: 41 64<40.2656 158.126> 371 66<241.541 369.624>
LayerCount: 2
Fore
SplineSet
177 559 m 2
 184 582 195 620 190 633 c 0
 186 645 134 651 134 660 c 4
 134 665 136 669 140 671 c 4
 170 686 251 707 267 707 c 0
 273 707 283 707 283 697 c 0
 283 686 283 683 280 674 c 2
 280 674 199 410 149 250 c 0
 143 231 152.317210328 237.738099502 163 251 c 0
 235.899993896 341.5 316 413 375 413 c 0
 411 413 437 378 437 321 c 0
 437 208 284 -8 120 -8 c 0
 73 -8 41 26 41 74 c 0
 41 132 51.8215882933 160.595631972 73 228 c 2
 177 559 l 2
342 371 m 0
 315 371 234.899993896 305.5 176 234 c 0
 135.963484493 185.398791928 105 121 105 91 c 0
 105 49 124 32 158 32 c 0
 186.665684489 32 241.34375 76.7900390625 283.70703125 132.5 c 0
 334.448242188 199.2265625 371 280.750543246 371 308 c 0
 371 333 369 371 342 371 c 0
EndSplineSet
Validated: 33
EndChar

StartChar: q
Encoding: 81 113 10
Width: 484
Flags: HW
HStem: -286 29<101.027 166.221> -272 26<269.637 323.699> -14 36<54.5 150.461> 383 37<282.312 354.911> 408 20G<455 462.5>
VStem: 10 70<22.7031 139.96> 361 108<309 409.5>
LayerCount: 2
Fore
SplineSet
405 372 m 0xb6
 413 372 415.04296875 374.732421875 420 385 c 2
 433 407 l 2
 441.710793651 421.741343102 450 428 460 428 c 0
 465 428 469 412 469 407 c 0
 469 401 467.671875 404.111328125 463 390 c 2
 268 -199 l 2
 262.961914062 -213.989257812 256 -242 294 -246 c 0
 307 -247 324 -251 324 -261 c 0
 324 -269 310 -272 295 -272 c 0x6e
 229 -272 147 -281 119 -286 c 0
 112 -287 99 -285 99 -277 c 0
 99 -267 117 -259 129 -257 c 0
 157 -253 182.024414062 -236.01171875 192 -211 c 2
 319 126 l 2
 333.40625 164.228515625 307 140 303 136 c 0
 235 48 159 -14 70 -14 c 0
 39 -14 10 12 10 47 c 0
 10 130.709018953 76.6967949318 246.475053365 156.565429688 331.099609375 c 0
 208.699996948 386.338623047 278.22 420 327 420 c 0
 385 420 391 372 405 372 c 0xb6
80 61 m 0
 80 34 86 22 105 22 c 4
 158 22 252 107 304 175 c 0
 340 222 361 281 361 337 c 0
 361 363 350 383 324 383 c 0x36
 262 383 79 176 80 61 c 0
EndSplineSet
Validated: 33
EndChar

StartChar: d
Encoding: 68 100 11
Width: 513
Flags: W
HStem: -14 32<61.22 142.669> 389 31<280.074 348.024> 685 20G<529 537.5>
VStem: 10 70<18.6526 140.602> 303 197<36 110>
LayerCount: 2
Fore
SplineSet
372 107 m 2
 364 80 370 50 382 50 c 0
 414 50 478 108 488 118 c 0
 489 119 490 119 491 119 c 0
 495 119 500 115 500 110 c 0
 500 105 497 99 495 96 c 0
 443 33 392 -14 329 -14 c 0
 309 -14 303 14 303 36 c 0
 303 77 309.071166992 108.099998474 317 136 c 0
 320.116826827 146.96749965 315 151 311 146 c 0
 243 58 159 -14 70 -14 c 0
 39 -14 10 12 10 47 c 0
 10 130.709018953 73.013671875 250.109375 156.565429688 331.099609375 c 0
 210.75390625 383.627929688 278.216799639 420 327 420 c 0
 340 420 360.251953125 409.42578125 368.071289062 394.099609375 c 0
 374.142578125 382.200195312 379 384 382 392 c 2
 453 611 l 2
 471 667 408 661 408 675 c 4
 408 690 427 691 442 693 c 4
 460 696 524 705 534 705 c 0
 541 705 540 688 537 677 c 2
 372 107 l 2
80 61 m 0
 80 34 86 18 105 18 c 0
 158 18 252 107 304 175 c 0
 340 222 361 281 361 337 c 0
 361 363 343 389 317 389 c 0
 255 389 79 176 80 61 c 0
EndSplineSet
Validated: 33
EndChar

StartChar: r
Encoding: 82 114 12
Width: 378
Flags: W
HStem: -17 21G<37 50> 364 50<300.323 360.9>
VStem: 341 62<298.434 363.985>
LayerCount: 2
Fore
SplineSet
254 298 m 0
 224 259 148 151 108 78 c 0
 73 14 58 -17 42 -17 c 0
 32 -17 25 5 25 17 c 4
 25 23 33 46 47 84 c 2
 134 312 l 2
 145 341 149 356 136 356 c 0
 116 356 96 352 64 310 c 0
 59 304 51 304 49 314 c 0
 48 326 57 353 66 364 c 0
 88 392 114 413 159 414 c 0
 186 414 213 402 197 360 c 2
 143 212 l 2
 139 202 148 201 152 208 c 0
 249 355 315 419 353 419 c 0
 383 419 403 393 403 366 c 0
 403 339 389 288 361 288 c 0
 346 288 342 305 341 323 c 0
 340 343 336 364 322 364 c 0
 309 364 287 341 254 298 c 0
EndSplineSet
Validated: 33
EndChar

StartChar: e
Encoding: 69 101 13
Width: 365
Flags: W
HStem: -15 50<108.328 193.99> 226 30<149.572 244.215> 385 29<245.079 307.267>
VStem: 25 72<45.032 186.535> 312 61<305.803 383.896>
LayerCount: 2
Fore
SplineSet
282 385 m 0
 236 385 149 292 149 262 c 0
 149 256 170 256 181 256 c 0
 250 256 312 307 312 353 c 0
 312 371 302 385 282 385 c 0
110 -15 m 0
 71 -15 25 22 25 98 c 0
 25 218 179 414 297 414 c 0
 351 414 373 392 373 351 c 0
 373 302 277 226 152 226 c 0
 134 226 132 226 127 217 c 0
 111 188 97 154 97 112 c 0
 97 62 113 35 147 35 c 0
 195 35 235 72 255 98 c 0
 261 105.875 267.421875 108.96875 272.630859375 108.96875 c 0
 278.835579785 108.96875 283.319383043 104.579164223 283.319383043 98.6520041339 c 0
 283.319383043 96.2858858123 282.604843694 93.6747394899 281 91 c 4
 241 26 180 -15 110 -15 c 0
EndSplineSet
Validated: 1
EndChar

StartChar: c
Encoding: 67 99 14
Width: 310
Flags: W
HStem: -15 41<102.237 175.664> 380 34<195.162 289>
VStem: 20 72<34.0875 206.256>
AnchorPoint: "top_accent" 153 550 basechar 0
AnchorPoint: "below_accent" 137 -100 basechar 0
AnchorPoint: "cedilla" 176 8 basechar 0
LayerCount: 2
Fore
SplineSet
325 375 m 0
 325 362 309 333 295 333 c 0
 272 333 278.083267529 380 230 380 c 0
 165.889685124 380 92 208.038530128 92 98 c 8
 92 65.6865234375 100.686523438 26 133 26 c 20
 181 26 207.496444702 56.0999984741 235 89 c 0
 241.413794156 96.6722385605 247 98 252 98 c 0
 258 98 255.749901639 89.9947853014 256 84 c 0
 256.496459961 72.0999984741 196.496444702 -14.9000015259 100 -15 c 0
 61.000020941 -15.0404153584 19 8 20 84 c 0
 20 204 100 414 270 414 c 0
 308 414 325 385 325 375 c 0
EndSplineSet
Validated: 33
EndChar

StartChar: u
Encoding: 85 117 15
Width: 481
Flags: HW
HStem: -14 61<91.9752 93 280.759 343.925> 398 20G<194.5 219 425.5 439>
LayerCount: 2
Fore
SplineSet
245 36 m 0
 273 96 309 175 319 203 c 0
 325 219 314 219 307 211 c 0
 168 59 93 -14 37 -14 c 0
 10 -14 14.453125 29.8046875 25 55 c 26
 115 270 l 2
 124 292 143 339 133 339 c 0
 122 339 84 306 55 280 c 0
 52 277 42 279 42 283 c 4
 42 288 43 298 54 313 c 0
 104 380 180 418 209 418 c 0
 229 418 240 404 224 373 c 2
 103 104 l 2
 91 77 86 50 100 50 c 0
 114 50 140 72 202 136 c 0
 290 226 393 370 407 396 c 0
 416 413 419 414 432 414 c 0
 446 414 450 403 450 391 c 0
 450 385 447 373 437 350 c 2
 322 86 l 2
 311 60 313 47 325 47 c 0
 357 47 423 108 433 118 c 0
 434 119 435 119 436 119 c 0
 440 119 445 115 445 110 c 0
 445 105 442 99 440 96 c 0
 388 33 334 -14 271 -14 c 0
 251 -14 236 16 245 36 c 0
EndSplineSet
Validated: 33
EndChar

StartChar: s
Encoding: 83 115 17
Width: 294
Flags: HW
HStem: -14 48<22 130.035> 368 46<181.871 244.111>
VStem: 105 57<248.66 339.851> 161 64<65.1854 184.928>
LayerCount: 2
Fore
SplineSet
238 414 m 0xe0
 269 414 289 388 289 377 c 0
 289 365 273 335 261 335 c 0
 246 335 238 368 202 368 c 0
 180 368 162 348 162 319 c 0xe0
 162 302 179 254 195 227 c 0
 211 200 225 153 225 123 c 0
 225 44 119 -14 39 -14 c 0
 5 -14 -15 10 -15 30 c 0
 -15 45 3 76 13 76 c 0
 29 76 47 34 104 34 c 0
 138 34 160 62 161 94 c 0xd0
 162 132 151 164 137 190 c 0
 118 225 105 255 105 275 c 0
 105 355 201 414 238 414 c 0xe0
EndSplineSet
Validated: 33
EndChar

StartChar: f
Encoding: 70 102 18
Width: 260
Flags: W
HStem: -288 40<-112.864 -43.5056> 362 38<39.643 129.264 209.706 254.667> 665 41<330.175 423.479>
VStem: 438 54<600.853 650.586>
LayerCount: 2
Fore
SplineSet
-67 -248 m 0
 -24 -248 -5 -192 29 -58 c 2
 29 -58 126 324 129 339 c 0
 132 352 129 357 115 357 c 2
 49 356 l 2
 40 356 36 361 36 368 c 0
 36 379 45 393 55 394 c 2
 134 398 l 2
 141 398 143 401 145 411 c 0
 199 635 331 706 405 706 c 4
 448 706 492 696 492 651 c 4
 492 626 471 590 450 590 c 4
 439 590 438 604 438 618 c 4
 438 640 411 665 361 665 c 4
 308 664 271 605 251 557 c 4
 244 539 214 438 210 422 c 0
 209 419 209 416 209 414 c 0
 209 403 216 400 225 400 c 0
 259 400 293 402 327 403 c 0
 329 403 334 398 334 396 c 0
 334 387 315 365 308 365 c 2
 228 362 l 2
 188 361 191 351 187 336 c 2
 107 0 l 2
 56 -214 -43 -288 -99 -288 c 0
 -149 -288 -190 -277 -190 -238 c 0
 -190 -214 -171 -194 -151 -194 c 0
 -131 -194 -117 -248 -67 -248 c 0
EndSplineSet
Validated: 1
EndChar

StartChar: longs
Encoding: 318 383 19
Width: 260
Flags: HW
HStem: -288 48<-138.314 -61.198> 665 41<337.972 434.767>
VStem: 444 62<600.853 655.117>
AnchorPoint: "top_accent" 408 789 basechar 0
LayerCount: 2
Fore
SplineSet
257 532 m 24
 169.72702141 332.561749958 128 172 88 0 c 0
 38 -216 -67 -288 -120 -288 c 0
 -170 -288 -216 -266 -216 -244 c 0
 -216 -220 -194 -191 -180 -191 c 0
 -154 -191 -134 -240 -92 -240 c 0
 -57 -240 -28 -206 8 -58 c 0
 39 69 106 318 142 411 c 0
 223 621 330 706 403 706 c 0
 446 706 506 696 506 651 c 0
 506 626 485 590 464 590 c 0
 453 590 444 604 444 618 c 0
 444 640 429 665 379 665 c 0
 326 664 285.217773438 596.483398438 257 532 c 24
EndSplineSet
Validated: 1
EndChar

StartChar: germandbls
Encoding: 158 223 21
Width: 469
VWidth: 0
Flags: W
HStem: -288 47<-134.587 -49.4255> -14 48<239.789 314.717> 665 41<365.442 492.15>
VStem: 279 74<244.998 358.073> 348 69<73.7637 164.752> 514 65<555.897 644.309>
LayerCount: 2
Fore
SplineSet
383 443 m 0xf4
 415 472 514 535 514 591 c 0
 514 629 494 665 427 665 c 0
 301 665 232 519 191 406 c 0
 150 294 112 141 87 0 c 0
 66 -118 0 -288 -116 -288 c 0
 -166 -288 -207 -277 -207 -238 c 0
 -207 -214 -188 -194 -168 -194 c 0
 -148 -194 -134 -241 -84 -241 c 0
 -41 -241 -27 -206 -10 -124 c 0
 -2 -85 31 69 41 118 c 0
 103 405 236 706 457 706 c 0
 519 706 579 663 579 607 c 0
 579 541 463 476 439 456 c 2
 401 423 l 2
 377 402 353 378 353 317 c 0xf4
 353 300 372 249 383 227 c 0
 400 192 417 163 417 133 c 0
 417 83 374 49 352 32 c 0
 322 9 283 -13 240 -14 c 0
 213 -15 173 -13 173 25 c 0
 173 47 195 69 216 69 c 0
 229 69 234 64 245 49 c 0
 254 38 265 34 280 34 c 0
 314 34 348 64 348 96 c 0xec
 348 120 332 154 315 188 c 0
 300 218 279 266 279 292 c 0
 279 353 325 392 383 443 c 0xf4
EndSplineSet
Validated: 33
EndChar

StartChar: v
Encoding: 86 118 22
Width: 400
Flags: HW
HStem: -14 57<81.6912 197.555> 398 20G<175.5 200 347.5 368>
VStem: 343 47<219.955 382.481>
LayerCount: 2
Fore
SplineSet
122.099609375 133 m 2
 101.653848923 73.8086925581 117 43 147 43 c 0
 236 43 343 179 343 288 c 0
 343 310 330 328 306 353 c 0
 300 359 300 368 300 373 c 0
 300 381 334 418 361 418 c 0
 375 418 390 395 390 349 c 0
 390 261 363.700195312 172 286.700195312 81 c 0
 232.700195312 18 172 -14 118 -14 c 0
 47.2596321572 -14 41.4658203125 80.19140625 68.7001953125 151 c 10
 113 270 l 2
 121.49609375 292.823242188 134 334 121 334 c 0
 112 334 81 307 53 280 c 0
 50 277 40 279 40 283 c 0
 40 288 41 298 52 313 c 0
 102 380 161 418 190 418 c 0
 210 418 216.2578125 405.590820312 205 373 c 2
 122.099609375 133 l 2
EndSplineSet
Validated: 33
EndChar

StartChar: w
Encoding: 87 119 23
Width: 609
Flags: W
HStem: -14 55<115.387 169.417 314.436 409.476> 400 20G<175.5 200 556.5 577>
VStem: 540 59<233.927 383.402>
LayerCount: 2
Fore
SplineSet
339.099609375 143 m 0
 329 82 336 41 369 41 c 0
 443 41 540 179 540 288 c 0
 540 310 529 327 511 353 c 0
 506 360 506 369 508 374 c 0
 515 394 543 420 570 420 c 0
 584 420 599 395 599 349 c 0
 599 261 562 171 485 80 c 0
 431 17 394 -14 340 -14 c 0
 289 -14 268.100006104 54 283 120 c 0
 285.871609107 132.719884478 282 132 275 120 c 0
 227 44 156 -14 118 -14 c 0
 67 -14 25 40 65 141 c 10
 113 270 l 2
 122 293 134 334 121 334 c 0
 112 334 81 307 53 280 c 0
 50 277 40 279 40 283 c 0
 40 288 41 298 52 313 c 0
 102 380 161 418 190 418 c 0
 210 418 216 406 205 373 c 2
 118 120 l 2
 102 74 114 43 147 43 c 0
 195 43 290.368164062 182.168945312 296 202 c 0
 303.099609375 227 317.099609375 294 324.099609375 334 c 0
 325.478515625 341.879882812 333.53125 362.186523438 344.099609375 372 c 0
 358.099609375 385 374 397 401 397 c 0
 415 397 411.099609375 348 401.099609375 322 c 0
 382.885742188 274.645507812 371 239 360 214 c 0
 349.986723815 191.242554125 341.390650243 156.837514679 339.099609375 143 c 0
EndSplineSet
Validated: 33
EndChar

StartChar: y
Encoding: 89 121 24
Width: 395
Flags: W
HStem: -287 60<-89.8674 -9.21213> 355 59<78.9391 133.582> 403 20G<337.5 348>
VStem: 26 28<263.771 317.558> 167 56<87.9897 300.203> 324 56<261.366 415.265>
LayerCount: 2
Fore
SplineSet
110 355 m 0xdc
 90 355 61 314 54 290 c 0
 52 283 43 261 35 261 c 0
 30 261 26 274 26 289 c 0
 26 350 84 414 129 414 c 0xdc
 149 414 181 397 196 348 c 0
 214 290 229 212 223 79 c 0
 222 55 229 59 238 76 c 0
 282 160 324 271 324 401 c 0
 324 414 332 423 343 423 c 0xbc
 353 423 380 401 380 374 c 0
 380 250 280 53 132 -130 c 0
 62 -217 -15 -287 -70 -287 c 0
 -90 -287 -115 -273 -115 -245 c 0
 -115 -223 -90 -195 -73 -195 c 0
 -56 -195 -51 -227 -15 -227 c 0
 6 -227 45 -200 69 -166 c 0
 121 -93 167 12 167 116 c 0
 167 301 130 355 110 355 c 0xdc
EndSplineSet
Validated: 33
EndChar

StartChar: g
Encoding: 71 103 25
Width: 375
Flags: W
HStem: -290 30<33.6304 208.908> 77 27<121.279 168.884> 346 58<338.35 419.562> 381 33<197.562 256.817>
VStem: -110 64<-216.845 -145.087> 40 65<123.397 249.219> 50 59<-4.24349 50.2772> 243 73<-226.518 -147.494> 265 59<234.655 352.818>
LayerCount: 2
Fore
SplineSet
129 -86 m 0xc9
 116 -79 102 -82 89 -86 c 0
 9 -111 -46 -141 -46 -182 c 0
 -46 -226 47 -260 129 -260 c 0
 223 -260 244 -224 243 -188 c 0
 241 -144 166 -106 129 -86 c 0xc9
234 381 m 0xdc80
 218 381 195 366 180 347 c 0
 144 302 104 212 105 158 c 0
 106 110 124 104 134 104 c 0
 204 104 267 265 265 330 c 0
 264 350 257 381 234 381 c 0xdc80
84 -66 m 0
 89 -64 90 -56 86 -52 c 0
 62 -31 50 -12 50 14 c 0xeb
 50 39 64 44 91 65 c 0
 98 70 109 81 103 84 c 0
 86 94 40 134 40 180 c 0
 39 269 136 414 241 414 c 0
 269 414 287 405 293 399 c 0
 300 392 306 391 316 391 c 0xdd
 351 393 370 404 405 404 c 0
 413 404 421 400 421 392 c 0
 421 363 416 346 411 346 c 0
 382 346 366 353 337 353 c 0
 330 353 316 355 320 344 c 0
 324 332 325 318 324 300 c 0xe880
 322 247 275 140 208 99 c 0
 184 84 148 77 137 77 c 0
 129 77 124 67 119 61 c 0
 113 53 108 55 109 38 c 0
 110 10 133 -9 168 -33 c 0
 202 -56 248 -84 289 -114 c 0
 306 -126 316 -146 316 -166 c 0xeb
 316 -271 183 -290 78 -290 c 0
 -7 -290 -110 -249 -110 -180 c 0
 -110 -138 -2 -95 13 -90 c 0
 42 -81 59 -75 84 -66 c 0
EndSplineSet
Validated: 33
EndChar

StartChar: P
Encoding: 48 80 26
Width: 592
VWidth: 0
Flags: W
HStem: -5 29<28.8438 109.063 238.132 293.641> 254 26<326.021 406.879> 622 31<205.487 281.787> 630 22<392.65 474.83>
VStem: 564 83<394.468 555.574>
AnchorPoint: "top_accent" 286 700 basechar 0
AnchorPoint: "below_accent" 170 -100 basechar 0
LayerCount: 2
Fore
SplineSet
175 2 m 28xd8
 127 2 102 -5 52 -5 c 4
 36 -5 28 -2 28 6 c 4
 28 15 41 20 64 24 c 4
 113 33 141 51 156 100 c 6
 285 522 l 6
 308 596 295 616 229 622 c 4
 209 624 205 633 205 642 c 4
 205 650 219 653 235 653 c 4xe8
 245 653 314 652 324 652 c 4
 361 652 409 657 435 657 c 12
 542 657 647 595 647 484 c 12
 647 343 509 254 368 254 c 16
 355 254 326 256 326 267 c 0
 326 275 337 279 344 280 c 0
 473 294 564 357 564 471 c 12
 564 553 509 630 427 630 c 20
 392 630 388 618 379 588 c 6
 233 111 l 6
 218 63 225 33 269 24 c 4
 289 20 294 15 294 6 c 4
 294 -2 280 -5 264 -5 c 4
 214 -5 210 2 175 2 c 28xd8
EndSplineSet
Validated: 33
EndChar

StartChar: M
Encoding: 45 77 27
Width: 1004
VWidth: 0
Flags: HW
HStem: -15 21G<407.5 412> -3 29<-34.3379 52.9997 165.354 218.807 640.461 724.206 888.948 949.749> 622 36<292.134 361.328 1035.98 1139.79>
AnchorPoint: "top_accent" 449 700 basechar 0
AnchorPoint: "below_accent" 406 -100 basechar 0
LayerCount: 2
Fore
SplineSet
1020 583 m 2x60
 872 106 l 2
 859 65 880 33 924 26 c 0
 944 23 950 18 950 9 c 0
 950 3 936 -3 920 -3 c 0
 870 -3 834.768554688 8 780 8 c 24
 734.168945312 8 713 -3 663 -3 c 0x60
 647 -3 640 1 640 9 c 0
 640 17 653 25 675 28 c 0
 734 35 764 57 779 104 c 2
 908 471 l 2
 912 482 919.099609375 505.5 916.099609375 505.5 c 0
 914.099609375 505.5 886 479 878 469 c 2
 433 10 l 1
 421 -7 414 -15 410 -15 c 0xa0
 405 -15 403 -4 404 11 c 2
 444 486 l 2
 445.047971329 499.885620112 447.255859375 536.759765625 437.93359375 536.759765625 c 4
 431.770507812 536.759765625 421.082446278 519.086327446 404 490 c 2
 170 90 l 2
 156 66 150 33 194 26 c 0
 214 23 219 18 219 9 c 0
 219 1 206 -3 190 -3 c 0
 140 -3 118 0 72 0 c 8
 38.37890625 0 36 -6 -14 -6 c 0
 -30 -6 -38 -4 -38 4 c 0
 -38 13 -26 19 -3 23 c 0
 60 34 86 52 127 119 c 2
 381 532 l 2
 414 586 350 617 313 622 c 0
 308 623 291 635 291 644 c 0
 291 655 323 658 329 658 c 0
 363 658 503 653 527 653 c 0
 544 653 525 599 522 553 c 2
 499 172 l 2
 498 162 502 157 506 157 c 0
 509 157 524 163 531 170 c 2
 916 573 l 2
 956 615 971 650 985 650 c 0
 1057 650 1094 658 1122 658 c 0
 1128 658 1141 654 1141 645 c 0
 1141 634 1127 625 1106 623 c 0
 1048 617 1027 605 1020 583 c 2x60
EndSplineSet
Validated: 33
EndChar

StartChar: N
Encoding: 46 78 28
Width: 848
VWidth: 0
Flags: HW
HStem: -5 35<49.709 136.045 225.788 311.601> 620 38<179.181 281.623 726 732 894.214 989.99>
AnchorPoint: "top_accent" 390 700 basechar 0
AnchorPoint: "below_accent" 390 -100 basechar 0
LayerCount: 2
Fore
SplineSet
839 650 m 0
 884 650 910 653 967 653 c 0
 983 653 990 650 990 642 c 0
 990 633 976 624 953 622 c 0
 895 616 875 588 857 555 c 0
 845 533 730 167 713 112 c 0
 712 109 712 94 717 82 c 0
 728 57 755 16 755 6 c 0
 755 0 751 0 747 0 c 0
 726 0 679 0 674 0 c 0
 663 0 654.334960938 5.1953125 632 43 c 2
 388 456 l 2
 381.528320312 467.318359375 369 485 364 485 c 0
 357 485 346.708007812 463.102539062 344 455 c 2
 228 117 l 2
 201.619140625 40.1298828125 231.200012207 34.5 288 24 c 0
 308.056007381 20.2924626275 313 15 313 6 c 0
 313 -2 299 -5 283 -5 c 0
 233 -5 218.385742188 0 177 0 c 24
 136.393554688 0 123 -5 73 -5 c 0
 57 -5 49 -2 49 6 c 0
 49 15 51 25 74 30 c 0
 137 44 137 29 167 108 c 2
 316 500 l 2
 322.747070312 517.76171875 328.15625 549.120117188 322 557 c 2
 289 596 l 2
 280.603515625 605.922851562 238.873046875 615.426757812 200 620 c 0
 195 621 179 631 179 644 c 0
 179 657 197 658 204 658 c 0
 276 656 297 653 364 653 c 0
 375 653 375.756835938 644.864257812 381 636 c 2
 659 188 l 2
 662.802734375 181.87109375 672 169 679 169 c 0
 684 169 686 174 692 189 c 0
 707 233 798 513 808 564 c 0
 815 599 745 615 726 619 c 0
 706 623 701 630 701 639 c 0
 701 647 716 650 732 650 c 0
 765 650 829 650 839 650 c 0
EndSplineSet
Validated: 33
EndChar

StartChar: R
Encoding: 50 82 29
Width: 634
VWidth: 0
Flags: HW
HStem: -5 29<-14.1562 66.063 195.132 250.641 544.906 613.697> 290 28<275.605 331.518> 622 31<162.487 238.787> 630 27<347.001 435.795>
VStem: 518 83<416.764 559.795>
AnchorPoint: "top_accent" 283 700 basechar 0
AnchorPoint: "below_accent" 342 -100 basechar 0
LayerCount: 2
Fore
SplineSet
274 356 m 0xd8
 269 319 288 318 320 318 c 0
 376.399993896 318 518 364 518 478 c 8
 518 557 463 630 384 630 c 16
 349 630 344 618 336 588 c 2
 336 588 276 374 274 356 c 0xd8
190 111 m 2
 175 63 182 33 226 24 c 0
 246 20 251 15 251 6 c 0
 251 -2 237 -5 221 -5 c 0
 171 -5 166.817382812 2 132 2 c 24
 83.9521484375 2 59 -5 9 -5 c 0
 -7 -5 -15 -2 -15 6 c 4
 -15 15 -2 20 21 24 c 0
 70 33 98 51 113 100 c 2
 242 522 l 2
 265 596 252 616 186 622 c 0
 166 624 162 633 162 642 c 0
 162 650 176 653 192 653 c 0xe8
 202 653 271 652 281 652 c 0
 318 652 366 657 392 657 c 8
 496.334960938 657 602 603 601 490 c 0
 600 384 485 317 424 305 c 0
 409 302 417.207016533 293.226014179 434 271 c 0
 454.399993896 244 486.399993896 134 512.400390625 78 c 0
 529.171197007 41.8788143426 559 26 580 26 c 0
 597 26 614 21 614 12 c 0
 614 -3 589.400390625 -4 572.400390625 -4 c 0
 517.400390625 -4 470.956427724 0.243432823364 454 32 c 0
 423.026258691 90.0086627093 396 156 365 241 c 0
 351 279 306 290 270 290 c 0
 260 290 246 286 242 274 c 2
 190 111 l 2
EndSplineSet
Validated: 33
EndChar

StartChar: B
Encoding: 34 66 30
Width: 582
VWidth: 0
Flags: W
HStem: -5 29<10.7629 92.2415> -4 41<219.338 364.92> 343 28<308.738 402.132> 617 31<212.11 277.593> 619 40<367.328 494.081>
VStem: 464 87<120.331 287.407> 526 81<454.966 589.477>
AnchorPoint: "top_accent" 257 700 basechar 0
AnchorPoint: "below_accent" 272 -100 basechar 0
LayerCount: 2
Fore
SplineSet
340 371 m 0x2a
 428 371 526 441 526 516 c 0
 526 578 503 619 424 619 c 0
 384 619 368 611 359 581 c 0
 356 571 312 418 309 408 c 0
 299 374 325 371 340 371 c 0x2a
243 -4 m 0x6c
 226 -4 193 0 156 0 c 0
 108 0 88 -5 34 -5 c 0
 18 -5 10 -3 10 6 c 0
 10 16 23 20 46 24 c 0
 95 33 127 51 142 99 c 2
 279 549 l 2
 294 597 283 608 239 617 c 0
 219 621 212 624 212 634 c 0
 212 643 229 646 245 648 c 0xb4
 295 654 344 659 382 659 c 0
 540 660 606 617 607 508 c 0x2a
 607 421.32176791 514.455360277 381.951014106 446 369 c 0
 435 367 438 361 443 359 c 0
 468 350 551 318 551 193 c 0
 551 73 404 -4 243 -4 c 0x6c
342 343 m 0
 325 343 308 342 298 336 c 0
 288 330 283 319 278 307 c 0
 257 248 233 161 219 108 c 0
 214 90 212 68 219 56 c 0
 226 45 246 37 269 37 c 0x64
 365 37 464 90 464 198 c 0
 464 276 438 342 342 343 c 0
EndSplineSet
Validated: 33
EndChar

StartChar: A
Encoding: 33 65 31
Width: 804
VWidth: 0
Flags: HW
HStem: -5 36<17.8519 96.2793 218.672 264.899 429.027 519.541 647.502 701.899>
AnchorPoint: "top_accent" 743 690 basechar 0
AnchorPoint: "ogonek" 560 18 basechar 0
AnchorPoint: "below_accent" 322 -86 basechar 0
AnchorPoint: "cedilla" 138 8 basechar 0
LayerCount: 2
Fore
SplineSet
672 -5 m 0
 646 -5 586 1 544 1 c 0
 508 1 474 0 452 0 c 0
 436 0 426 3 428 11 c 0
 431 20 446.732748515 27.0875170049 465 31 c 0
 532.700012207 45.5 540.220001221 55.6600036621 559 112 c 2
 600 235 l 2
 603.60546875 245.81640625 591 253 572 253 c 2
 391 244 l 2
 386 244 367 238 356 226 c 2
 240 102 l 2
 194.790904698 53.6730360567 228 32 241 30 c 0
 262 27 268 19 265 10 c 0
 263 2 251 -1 235 -1 c 0
 218 -1 185 1 151 1 c 0
 110 1 69 -5 38 -5 c 0
 22 -5 13 0 15 8 c 0
 18 17 29 24 52 31 c 0
 87 41 136 65 180 108 c 2
 652 564 l 2
 681 592 698 622 706 622 c 0
 719 622 730 626 752 636 c 0
 769 644 796 676 801 676 c 0
 806 676 808.329101562 662.209960938 803 644 c 2
 648 128 l 2
 629.678848403 67.0082953287 643 35 678 28 c 0
 698 24 705 14 702 5 c 0
 700 -3 688 -5 672 -5 c 0
640 506 m 2
 442 310 l 2
 430 298 422 285 458 288 c 2
 592 296 l 2
 606 297 615 303 622 324 c 2
 680 494 l 2
 689 521 690 539 684 539 c 0
 679 539 665 531 640 506 c 2
EndSplineSet
Validated: 33
EndChar

StartChar: C
Encoding: 35 67 32
Width: 623
VWidth: 0
Flags: W
HStem: -14 37<300.022 434.038> 628 35<406.981 575.501>
VStem: 80 84<142.301 360.884> 606 33<467.178 536.318>
AnchorPoint: "top_accent" 381 700 basechar 0
AnchorPoint: "cedilla" 381 8 basechar 0
AnchorPoint: "below_accent" 359 -100 basechar 0
LayerCount: 2
Fore
SplineSet
368 -14 m 8
 218.23828125 -14 80 90.23828125 80 240 c 16
 80 494 276.923828125 663 513 663 c 16
 594 663 646 629 656 629 c 0
 668 629 684 645 699 645 c 0
 711 645 710 634 706 629 c 0
 684 599 648 532 639 487 c 0
 637 477 628 467 621 467 c 8
 609.293945312 467 604 481 606 493 c 0
 612 523 618 565 597 593 c 0
 580 616 542 628 503 628 c 0
 310 628 164 432 164 228 c 8
 164 110.15234375 278 23 386 23 c 0
 449 23 497 76 536 139 c 0
 542 149 548 157 553 157 c 0
 559 157 560 149 560 138 c 0
 560 115 507 -7 496 -9 c 0
 486 -11 476 11 456 11 c 0
 436 11 419 -14 368 -14 c 8
EndSplineSet
Validated: 33
EndChar

StartChar: I
Encoding: 41 73 33
Width: 398
VWidth: 0
Flags: HW
HStem: -5 29<39.6976 120.49 257.031 319.899> 622 31<243.101 303.933 422.79 504.442>
AnchorPoint: "top_accent" 181 700 basechar 0
AnchorPoint: "ogonek" 206 18 basechar 0
AnchorPoint: "below_accent" 181 -100 basechar 0
LayerCount: 2
Fore
SplineSet
308 550 m 2
 322 597 311 613 267 622 c 0
 247 626 240 633 243 642 c 0
 245 650 257 653 273 653 c 0
 323 653 338 650 381 650 c 28
 421 650 433 653 483 653 c 0
 499 653 509 650 507 642 c 0
 504 633 493 626 470 622 c 0
 421 613 396 597 382 550 c 2
 244 98 l 2
 230 51 251 33 295 24 c 0
 315 20 323 15 320 6 c 0
 318 -2 306 -5 290 -5 c 0
 240 -5 225 0 182 0 c 24
 136 0 112 -5 62 -5 c 0
 46 -5 36 -2 38 6 c 0
 41 15 51 20 74 24 c 0
 123 33 156 51 170 98 c 2
 308 550 l 2
EndSplineSet
Validated: 33
EndChar

StartChar: T
Encoding: 52 84 34
Width: 696
VWidth: 0
Flags: HW
HStem: -5 29<174.948 254.78 393.582 454.899> 604 38<271.526 441.47 521.425 731.102>
VStem: 737 30<523.445 592.212>
AnchorPoint: "top_accent" 321 700 basechar 0
AnchorPoint: "cedilla" 356 18 basechar 0
AnchorPoint: "below_accent" 334 -100 basechar 0
LayerCount: 2
Fore
SplineSet
380 102 m 2
 366.184570312 53.6455078125 386 33 430 24 c 0
 450 20 458 15 455 6 c 0
 453 -2 441 -5 425 -5 c 0
 375 -5 359.775390625 0 318 0 c 24
 270.76953125 0 247 -5 197 -5 c 0
 181 -5 171 -2 173 6 c 0
 176 15 187 20 210 24 c 0
 259 33 292.184570312 53.6455078125 306 102 c 2
 436 557 l 6
 442 575 446 597 432 600 c 4
 416 604 377 604 345 604 c 4
 333 604 318 604 301 604 c 4
 271 604 234 591 213 565 c 4
 204 554 177 527 163 527 c 4
 155 527 161 547 171 560 c 4
 199 598 216 629 234 671 c 4
 244 693 252 694 257 694 c 4
 262 694 269 673 271 662 c 4
 274 648 303 642 329 642 c 6
 704 642 l 6
 731 642 751 649 762 656 c 4
 785 670 806 692 820 692 c 4
 826 692 820 670 815 660 c 4
 793 619 773 579 767 552 c 4
 765 541 752 517 742 517 c 4
 733 517 734 532 737 558 c 4
 741 586 725 604 665 604 c 4
 617 604 555 602 538 600 c 4
 524 598 516 575 510 557 c 6
 380 102 l 2
EndSplineSet
Validated: 33
EndChar

StartChar: E
Encoding: 37 69 35
Width: 600
VWidth: 0
Flags: HW
HStem: -5 35<7.83594 107.75 228.884 496.639> 322 27<307.265 478.639> 388 20G<556.5 561.5> 618 32<216.666 284.459 387.133 609.242>
VStem: 492 28<252.103 308.246> 618 55<568.25 613.321>
AnchorPoint: "top_accent" 501 693 basechar 0
AnchorPoint: "ogonek" 511 18 basechar 0
AnchorPoint: "cedilla" 315 8 basechar 0
AnchorPoint: "below_accent" 273 -100 basechar 0
LayerCount: 2
Fore
SplineSet
247 653 m 0
 262 653 314 650 356 650 c 2
 611 650 l 2
 636 650 659.796875 654 665 654 c 0
 672 654 673 651 673 644 c 0
 673 632 654 593 646 540 c 0
 645.055664062 533.74609375 635 523 629 523 c 0
 622 523 618 539 618 546 c 0
 618 583 621 618 570 618 c 2
 416 618 l 2
 406 618 384 604 377 588 c 0
 373 579 323 423 308 374 c 0
 305 363 306 349 315 349 c 2
 460 352 l 2
 487.008789062 352.55859375 512.256835938 368.174804688 531 389 c 0
 540 399 554 408 559 408 c 0
 564 408 571 401 566 392 c 0
 540 342 533 320 520 269 c 0
 517 260 514 252 507 252 c 8
 496.291015625 252 492 268 492 275 c 0
 492 306 469 319 455 320 c 0
 432 322 348 322 330 322 c 0
 307 322 290 320 282 291 c 2
 231 113 l 2
 216 62 223 30 265 30 c 2
 430 30 l 2
 502.31640625 30 535.208007812 77.041015625 565 116 c 0
 571 124 573 126 581 126 c 0
 587 126 589 122 589 114 c 0
 589 96 565 39 547 11 c 0
 542 3 533 -5 524 -5 c 8
 379.680664062 -5 247 1 154 1 c 8
 105.194335938 1 79 -5 29 -5 c 0
 13 -5 5 -2.25 5 6 c 0
 5 15.490234375 18 20 41 24 c 0
 90 33 134 51 149 99 c 2
 286 549 l 1
 302 597 285 613 241 622 c 0
 221 626 213 633 216 642 c 0
 218 650 231 653 247 653 c 0
EndSplineSet
Validated: 33
EndChar

StartChar: L
Encoding: 44 76 36
Width: 683
VWidth: 0
Flags: HW
HStem: -5 35<11.8359 111.507 232.835 516.639> 622 31<231.101 295.382 407.633 503.535>
AnchorPoint: "cedilla" 319 8 basechar 0
AnchorPoint: "ogonek" 531 18 basechar 0
AnchorPoint: "top_accent" 186 700 basechar 0
AnchorPoint: "below_accent" 304 -100 basechar 0
LayerCount: 2
Fore
SplineSet
152 99 m 6
 293 560 l 2
 307.708984375 608.08984375 300 613 256 622 c 0
 236 626 228 633 231 642 c 0
 233 650 245 653 261 653 c 0
 311 653 324.422851562 650 365 650 c 24
 411.03515625 650 433 653 483 653 c 0
 499 653 508 650 506 642 c 0
 503 633 493 626 470 622 c 0
 421 613 381.629882812 606.111328125 370 567 c 2
 235 113 l 2
 219.848632812 62.044921875 227 30 269 30 c 2
 450 30 l 2
 522.31640625 30 555.208007812 77.041015625 585 116 c 0
 591 124 593 126 601 126 c 0
 607 126 609 122 609 114 c 0
 609 96 585 39 567 11 c 0
 562 3 553 -5 544 -5 c 8
 393.44140625 -5 251 1 158 1 c 8
 109.194335938 1 83 -5 33 -5 c 0
 17 -5 9 -2.25 9 6 c 0
 9 15.490234375 22 20 45 24 c 0
 94 33 137.684570312 52.0947265625 152 99 c 6
EndSplineSet
Validated: 33
EndChar

StartChar: V
Encoding: 54 86 37
Width: 693
VWidth: 0
Flags: HW
HStem: 620 31<112.241 163.793 306.442 396.014 534.101 585.327 731.616 807.868>
AnchorPoint: "top_accent" 323 700 basechar 0
AnchorPoint: "below_accent" 297 -100 basechar 0
LayerCount: 2
Fore
SplineSet
573 549 m 2
 619.291992188 595.754882812 571 619 558 621 c 0
 537 624 531 632 534 641 c 0
 536 649 548 652 564 652 c 0
 581 652 628 650 662 650 c 0
 703 650 759 656 790 656 c 0
 806 656 815 651 813 643 c 0
 810 634 799 627 776 620 c 0
 741 610 677 586 633 543 c 2
 161 87 l 2
 132 59 116.294921875 44.2685546875 110.274414062 39 c 0
 78.2744140625 11 22.8544921875 -25 12 -25 c 0
 7 -25 5 -11 10 7 c 2
 165 523 l 2
 183 584 170 616 135 623 c 0
 115 627 108 637 111 646 c 4
 113 654 125 656 141 656 c 0
 167 656 227 650 269 650 c 0
 305 650 353 651 375 651 c 0
 391 651 401 648 399 640 c 0
 396 631 380 624 362 620 c 0
 294 606 271.857421875 595.375 254 539 c 2
 133 157 l 2
 124.40625 129.868164062 123 112 129 112 c 0
 134 112 148.125 119.875976562 173 145 c 2
 573 549 l 2
EndSplineSet
Validated: 33
EndChar

StartChar: W
Encoding: 55 87 38
Width: 1037
VWidth: 0
Flags: HW
HStem: 621 35<111.101 164.619 304.526 398.288 495.101 552.913 693.387 777.206 902.101 954.168 1097.3 1178.44>
AnchorPoint: "top_accent" 481 700 basechar 0
AnchorPoint: "below_accent" 454 -100 basechar 0
LayerCount: 2
Fore
SplineSet
941 549 m 2
 987.291992188 595.754882812 939 619 926 621 c 0
 905 624 899 632 902 641 c 0
 904 649 916 652 932 652 c 0
 949 652 996 650 1030 650 c 0
 1071 650 1127 656 1158 656 c 0
 1174 656 1183 651 1181 643 c 0
 1178 634 1167 627 1144 620 c 0
 1109 610 1045 586 1001 543 c 2
 545 87 l 2
 516.495117188 58.4951171875 500.294921875 44.2685546875 494.274414062 39 c 0
 462.274414062 11 406.854492188 -25 396 -25 c 0
 391 -25 388.36328125 -10.814453125 394 7 c 2
 536.612304688 457.760742188 l 1
 161 87 l 2
 132.309570312 58.6806640625 116.294921875 44.2685546875 110.274414062 39 c 0
 78.2744140625 11 22.8544921875 -25 12 -25 c 0
 7 -25 5 -11 10 7 c 2
 165 523 l 2
 183 584 170 616 135 623 c 0
 115 627 108 637 111 646 c 0
 113 654 125 656 141 656 c 0
 167 656 227 650 269 650 c 0
 305 650 353 651 375 651 c 0
 391 651 401 648 399 640 c 0
 396 631 380 624 362 620 c 0
 294 606 271.857421875 595.375 254 539 c 2
 133 157 l 2
 124.40625 129.868164062 123 112 129 112 c 0
 134 112 148.274414062 119.73046875 173 145 c 2
 537 517 l 2
 560.469726562 539.975585938 564 566 564 574 c 0
 564 596.459960938 545.6640625 617.821289062 525 621 c 0
 509.250976562 623.25 490.48046875 632.440429688 495 646 c 0
 497 654 509 656 525 656 c 0
 548.576171875 656 600.108398438 651.06640625 640.826171875 650.146484375 c 1
 680.224609375 651.06640625 728.889648438 656 757 656 c 0
 769.82421875 656 779.921875 655.393554688 779.921875 647.393554688 c 0
 779.921875 628.393554688 751.635742188 621.240234375 735.5859375 617.798828125 c 0
 688.263671875 607.65234375 653.916992188 589.248046875 638 539 c 2
 517 157 l 2
 508.40625 129.868164062 507 112 513 112 c 0
 518 112 532.642578125 119.374023438 557 145 c 2
 941 549 l 2
EndSplineSet
Validated: 33
EndChar

StartChar: period
Encoding: 14 46 39
Width: 211
VWidth: 0
Flags: W
HStem: -14 110<88.2601 147.74>
VStem: 67 102<7.20262 74.7974>
LayerCount: 2
Fore
SplineSet
135 96 m 24
 163 96 178 71 169 41 c 24
 160 11 129 -14 101 -14 c 24
 73 -14 58 11 67 41 c 24
 76 71 107 96 135 96 c 24
EndSplineSet
Validated: 33
EndChar

StartChar: G
Encoding: 39 71 40
Width: 708
VWidth: 0
Flags: HW
HStem: -14 37<351.631 490.101> 256 34<477.065 556.755 652.807 716.41> 628 35<435.024 605.957>
VStem: 111 84<158.592 374.605> 637 33<467.174 536.318>
AnchorPoint: "below_accent" 382 -100 basechar 0
AnchorPoint: "top_accent" 400 700 basechar 0
LayerCount: 2
Fore
SplineSet
737 629 m 0
 715 599 679 532 670 487 c 0
 667.952504116 476.762520581 659 467 652 467 c 8
 640.293945312 467 634.604731097 481.241407202 637 493 c 0
 643.076338326 522.829297238 648.819335938 564.897460938 628.086914062 593 c 0
 611.287109375 615.771484375 573.325792311 628 534 628 c 8
 333.645507812 628 195 442.354492188 195 242 c 16
 195 125 324 23 431 23 c 0
 494 23 527.69140625 73.4169921875 534.796875 100.5 c 2
 563 208 l 6
 575.442382812 252.284179688 519 256 500 256 c 4
 486 256 477 265 477 274 c 4
 477 283 487 290 501 290 c 12
 547.03515625 290 572.96484375 287 619 287 c 24
 651.78125 287 670.21875 290 703 290 c 16
 708 290 717 285 717 276 c 0
 717 267 703.817693036 258.083778132 692 256 c 0
 662.376982789 250.776662816 647 240 635 213 c 0
 617 174 599 103 599 88 c 0
 599 76.431640625 614.533302017 63.8332550433 613 60 c 0
 611 55 604.282218256 45.5224828255 595 42 c 24
 527.307617188 16.3115234375 490.40234375 -14 418 -14 c 16
 242 -14 111 82 111 254 c 0
 111 494 298 663 544 663 c 0
 625 663 677 629 687 629 c 0
 699 629 715 644.547851562 730 644.547851562 c 0
 742 644.547851562 740.548181982 633.838429975 737 629 c 0
EndSplineSet
Validated: 33
EndChar

StartChar: F
Encoding: 38 70 41
Width: 683
VWidth: 0
Flags: HW
HStem: -5 29<21.7629 99.706 230.52 294.641> 322 27<299.265 470.603> 388 20G<548.5 553.5> 618 32<210.007 276.459 376.112 601.242>
VStem: 484 28<252.052 308.246> 610 55<565.252 613.321>
AnchorPoint: "top_accent" 279 700 basechar 0
LayerCount: 2
Fore
SplineSet
223 113 m 2
 203 44 226 33 270 24 c 0
 290 20 295 16 295 6 c 0
 295 -3 281 -5 265 -5 c 0
 215 -5 203 2 164 2 c 24
 118 2 95 -5 45 -5 c 0
 29 -5 21 -3 21 6 c 0
 21 16 34 20 57 24 c 0
 106 33 126 50 141 99 c 2
 278 549 l 1
 294 597 277 613 233 622 c 0
 213 626 208 632.51 208 642 c 0
 208 650.25 223 653 239 653 c 0
 254 653 306 650 348 650 c 2
 603 650 l 2
 628 650 652 654 657 654 c 0
 664 654 665 651 665 644 c 0
 665 629 648 598 638 540 c 0
 637 534 627 523 621 523 c 0
 614 523 610 539 610 546 c 0
 610 583 613 618 562 618 c 2
 408 618 l 2
 383 618 376 604 369 588 c 0
 365 579 315 423 300 374 c 0
 297 363 298 349 307 349 c 2
 452 352 l 2
 479 353 504 368 523 389 c 0
 532 399 546 408 551 408 c 0
 556 408 563 401 558 392 c 0
 532 342 525 320 512 269 c 0
 509 260 506 252 499 252 c 8
 488 252 484 268 484 275 c 0
 484 306 461 319 447 320 c 0
 424 322 340 322 322 322 c 0
 299 322 282 320 274 291 c 2
 223 113 l 2
EndSplineSet
Validated: 33
EndChar

StartChar: J
Encoding: 42 74 42
Width: 315
VWidth: 0
Flags: HW
HStem: -200 42<-55 52.4867> 622 31<229.102 290.535 400.47 476.535>
AnchorPoint: "top_accent" 173 700 basechar 0
LayerCount: 2
Fore
SplineSet
15 -158 m 0
 59 -158 95 -97 125 0 c 2
 293 551 l 1
 308 597 298 613 254 622 c 0
 234 626 226 633 229 642 c 0
 231 650 244 653 260 653 c 0
 310 653 324 650 367 650 c 24
 401 650 406 653 456 653 c 0
 472 653 481 650 479 642 c 0
 476 633 466 626 443 622 c 0
 394 613 383 597 368 551 c 1
 243 142 l 2
 179 -68 147 -94 109 -134 c 0
 72 -173 30 -200 -25 -200 c 0
 -85 -200 -114 -179 -108 -158 c 0
 -100 -131 -75 -103 -58 -103 c 0
 -34 -103 -26 -111 -20 -129 c 0
 -13 -152 -1 -158 15 -158 c 0
EndSplineSet
Validated: 33
EndChar

StartChar: D
Encoding: 36 68 43
Width: 773
VWidth: 0
Flags: HW
HStem: -7 35<195.833 448.135> -5 29<23.7629 114.218> 628 31<396.778 540.963> 628 23<189.161 240.816>
VStem: 702 84<278.706 497.793>
AnchorPoint: "top_accent" 342 700 basechar 0
AnchorPoint: "below_accent" 370 -100 basechar 0
AnchorPoint: "cedilla" 412 8 basechar 0
LayerCount: 2
Fore
SplineSet
338 -7 m 0xa8
 319 -7 224 0 151 0 c 0
 114 0 96 -5 47 -5 c 0
 31 -5 23 -2.25 23 6 c 0
 23 15.49 36 23 59 24 c 0
 122 26 134 51 150 99 c 2
 300 560 l 2
 315 608 257 613 213 622 c 0
 193 626 189 632.51 189 642 c 0
 189 650.25 203 653 219 653 c 0
 269 653 311 651 349 651 c 0
 351 651 353 651 356 651 c 0x58
 396 651 394 659 452 659 c 0
 631 659 786 578 786 406 c 0
 786 149 591 -7 338 -7 c 0xa8
702 395 m 4
 702 548 589 628 432 628 c 0
 417 628 392 627 374 567 c 2
 232 121 l 2
 205 36 244 28 346 28 c 8xa8
 545.40625 28 702 207 702 395 c 4
EndSplineSet
Validated: 33
EndChar

StartChar: Q
Encoding: 49 81 44
Width: 661
VWidth: 0
Flags: HW
HStem: -271 60<447.351 628.996> -152 41<-30.5443 67.5906> 630 32<402.983 517.638>
VStem: 65 90<125.06 323.138> 580 78<335.713 559.316>
AnchorPoint: "top_accent" 350 700 basechar 0
LayerCount: 2
Fore
SplineSet
467 630 m 0
 337 630 155 419 155 217 c 0
 155 110 199 28 290 28 c 0
 401 28 580 275 580 448 c 0
 580 528 556 630 467 630 c 0
255 -2 m 0
 167 8 65 100 65 214 c 0
 65 242 70 274 80 307 c 0
 141 505 274 662 475 662 c 0
 590 662 658 583 658 441 c 0
 658 278 536 119 413 32 c 0
 314 -38 268 -55 191 -81 c 0
 179.910175875 -84.7446159384 181 -92 198 -94 c 0
 302 -106 409 -211 574 -211 c 0
 631 -211 674 -195 703 -172 c 0
 711 -166 716 -163 725 -163 c 0
 731 -163 731 -176 728 -179 c 0
 662 -238 612 -271 522 -271 c 0
 350 -271 269 -135 106 -135 c 0
 56 -135 10 -152 0 -152 c 0
 -13 -152 -31 -150 -31 -135 c 0
 -31 -122 -14 -115 2 -111 c 0
 73 -91 154 -65 234 -26 c 0
 249.801658381 -18.8174280085 280.852606937 -4.93779624284 255 -2 c 0
EndSplineSet
Validated: 33
EndChar

StartChar: S
Encoding: 51 83 45
Width: 447
VWidth: 0
Flags: HW
HStem: -14 30<156.813 272.175> 0 21G<19 30> 459 21G<412 423> 625 34<237.623 348.535>
VStem: 13 71<23 157> 117 75<459.392 560.226> 339 82<80.196 184.155>
AnchorPoint: "top_accent" 161 700 basechar 0
AnchorPoint: "cedilla" 186 8 basechar 0
AnchorPoint: "below_accent" 146 -100 basechar 0
LayerCount: 2
Fore
SplineSet
214 16 m 16xbe
 276.67 16 339 67 339 120 c 0
 339 178 283 231 219 303 c 0
 165 364 117 421 117 479 c 0
 117 583.94 212.06 659 317 659 c 16
 360.07 659 401 629 423 628 c 0
 443 627 454 662 470 662 c 0
 480 662 482 651 482 646 c 0
 482 643 453 594 437 491 c 0
 434 471 425 459 421 459 c 0
 403 459 405 478 405 493 c 8
 405 559.268554688 361 625 298 625 c 8
 243.004882812 625 192 586.995117188 192 532 c 16
 192 452 280.87897261 373.896842605 311 338 c 0
 352.067700383 289.057420529 421 237.61 421 154 c 8
 421 43.86 304.138671875 -14 194 -14 c 16xbe
 148.6 -14 97 14 81 14 c 0
 59 14 37 0 23 0 c 0x7e
 15 0 13 9 13 23 c 0
 13 35 45 97 56 176 c 0
 58 190 62 196 72 196 c 0
 83 196 84 184 84 157 c 8
 84 82.2041015625 139.204101562 16 214 16 c 16xbe
EndSplineSet
Validated: 33
EndChar

StartChar: O
Encoding: 47 79 46
Width: 776
VWidth: 0
Flags: W
HStem: -14 35<284.941 435.229> 628 36<412.573 576.56>
VStem: 110 82<128.313 340.572> 663 82<325.968 533.786>
AnchorPoint: "top_accent" 342 700 basechar 0
AnchorPoint: "below_accent" 370 -100 basechar 0
AnchorPoint: "cedilla" 412 8 basechar 0
LayerCount: 2
Fore
SplineSet
500 628 m 0
 300 628 192 386 192 186 c 8
 192 95 266 21 357 21 c 16
 557 21 663 284 663 484 c 0
 663 568.82 584.82 628 500 628 c 0
505 664 m 16
 631.97 664 745 570.97 745 444 c 8
 745 208.13 585.87 -14 350 -14 c 8
 217.63 -14 110 93.63 110 226 c 16
 110 456.02 274.98 664 505 664 c 16
EndSplineSet
Validated: 1
EndChar

StartChar: H
Encoding: 40 72 47
Width: 780
VWidth: 0
Flags: HW
HStem: -5 29<44.6976 120.233 251.292 307.899 475.698 550.694 667.559 723.899> 302 48<311.912 654> 622 31<244.101 300.532 411.255 489.442 671.101 728.031 840.674 914.442>
AnchorPoint: "top_accent" 423 700 basechar 0
AnchorPoint: "below_accent" 423 -100 basechar 0
LayerCount: 2
Fore
SplineSet
671 100 m 2
 656 51 655 33 699 24 c 0
 719 20 727 15 724 6 c 0
 722 -2 710 -5 694 -5 c 0
 644 -5 637 0 599 0 c 24
 560 0 548 -5 498 -5 c 0
 482 -5 472 -2 474 6 c 0
 477 15 487 20 510 24 c 0
 552 32 583 54 596 97 c 2
 654 287 l 2
 656 294 660 302 654 302 c 2
 299 302 l 2
 295 302 293 299 291 291 c 2
 234 106 l 2
 221 64 243 32 283 24 c 0
 303 20 311 15 308 6 c 0
 306 -2 294 -5 278 -5 c 0
 228 -5 212 0 170 0 c 24
 130 0 116 -5 66 -5 c 0
 50 -5 41 -2 43 6 c 0
 46 15 56 20 79 24 c 0
 128 33 143 51 158 99 c 2
 296 551 l 2
 310 597 312 613 268 622 c 0
 248 626 241 633 244 642 c 0
 246 650 258 653 274 653 c 0
 324 653 332 650 369 650 c 24
 407 650 418 653 468 653 c 0
 484 653 494 650 492 642 c 0
 489 633 478 626 455 622 c 0
 406 613 382 590 370 551 c 2
 312 359 l 2
 310 351 316 350 322 350 c 2
 667 350 l 2
 672 350 674 353 677 362 c 2
 735 552 l 2
 746 588 739 613 695 622 c 0
 675 626 668 633 671 642 c 0
 673 650 685 653 701 653 c 0
 751 653 766 650 808 650 c 24
 841 650 843 653 893 653 c 0
 909 653 919 650 917 642 c 0
 914 633 903 626 880 622 c 0
 831 613 822 590 810 552 c 2
 671 100 l 2
EndSplineSet
Validated: 33
EndChar

StartChar: U
Encoding: 53 85 48
Width: 767
VWidth: 0
Flags: HW
HStem: -14 50<308.806 448.242> 620 33<218.101 262.726 372.526 432.535 673.102 711.984 800.167 869.521>
AnchorPoint: "top_accent" 383 700 basechar 0
AnchorPoint: "ogonek" 463 18 basechar 0
AnchorPoint: "below_accent" 380 -100 basechar 0
LayerCount: 2
Fore
SplineSet
767 547 m 0
 725 432 699 346 668 254 c 0
 616 99 483 -14 349 -14 c 16
 170 -14 135 128 194 322 c 2
 263 547 l 2
 278 595 261 614 242 620 c 0
 222 626 215 633 218 642 c 0
 220 650 232 653 248 653 c 0
 276 653 303 650 337 650 c 24
 366 650 392 652 412 652 c 0
 428 652 437 649 435 641 c 0
 432 632 422 628 399 621 c 0
 383 616 350 589 338 549 c 2
 260 294 l 10
 220 162 262 36 385 36 c 16
 503 36 594 144 642 300 c 0
 655 344 681 434 703 511 c 0
 718 562 722 612 698 620 c 0
 686 624 670 631 673 640 c 0
 675 648 688 651 704 651 c 0
 732 651 746 650 773 650 c 24
 803 650 828 653 849 653 c 0
 865 653 875 650 873 642 c 0
 870 633 859 627 836 622 c 0
 801 615 781 587 767 547 c 0
EndSplineSet
Validated: 33
EndChar

StartChar: Y
Encoding: 57 89 49
Width: 673
VWidth: 0
Flags: W
HStem: -5 29<145.698 221.653 367.55 425.899> 620 33<172.102 218.031 345.935 406.259 545.101 585.255 699.976 770.66>
AnchorPoint: "top_accent" 315 700 basechar 0
AnchorPoint: "below_accent" 302 -100 basechar 0
LayerCount: 2
Fore
SplineSet
279 108 m 2
 324 256 l 2
 332.198801545 282.964947302 331.399243656 302.195607207 323 330 c 2
 265 522 l 2
 258 546 225 610 196 620 c 0
 178 627 169 633 172 642 c 0
 174 650 187 653 203 653 c 0
 231 653 268.864256616 650.230249964 311 650 c 24
 340.259765625 649.83984375 366 652 386 652 c 0
 402 652 411 649 409 641 c 0
 406 632 395 628 372 621 c 0
 356 616 327.547851562 599.368164062 339 560 c 2
 391 395 l 2
 399.020507812 369.549804688 403 357 410 357 c 0
 417 357 428.939569707 370.09585266 452 395 c 0
 497.372406006 444 527.372436523 478 572 534 c 0
 599.172922047 568.097394437 593 612 569 620 c 0
 557 624 542 631 545 640 c 0
 547 648 559 651 575 651 c 0
 603 651 622.579101436 649.654307971 653 650 c 24
 691.235351562 650.434570312 730 653 751 653 c 4
 767 653 776 650 774 642 c 4
 771 633 761 627 738 622 c 4
 703 615 644.794402935 564.599450045 615.372070312 534 c 0
 565.372436523 482 486.614149466 391.725328948 449.372070312 352 c 0
 419.372406006 320 410 294 398 256 c 2
 353 108 l 2
 339 63 357 33 401 24 c 0
 421 20 429 15 426 6 c 0
 424 -2 412 -5 396 -5 c 0
 346 -5 330.165039062 0 288 0 c 24
 241.159179688 0 218 -5 168 -5 c 0
 152 -5 142 -2 144 6 c 0
 147 15 157 20 180 24 c 0
 229 33 264 60 279 108 c 2
EndSplineSet
Validated: 33
EndChar

StartChar: one
Encoding: 17 49 50
Width: 267
VWidth: 0
Flags: W
HStem: -3 25<14.9983 94.4539 194.745 262.889> 384 22<144.221 197.474 300.946 364.231>
LayerCount: 2
Fore
SplineSet
122 68 m 2
 203 333 l 2
 217 380 184 380 160 384 c 0
 157 384.333333333 143.77734375 392.888671875 143.77734375 396.1484375 c 0
 143.77734375 402.666992188 160.666666667 406 166 406 c 0
 222 406 222.100585938 403 258 403 c 24
 293.899414062 403 296 406 350 406 c 0
 353.758825556 406 364.298828125 398.665039062 364.298828125 395.509765625 c 0
 364.298828125 389.43359375 349.582885858 385.316577172 343 384 c 0
 315 378 286 380 271 333 c 0
 242 244 203 115 190 68 c 0
 179 29 203 28 242 22 c 0
 247.625 21.25 263.015625 14.546875 263.015625 10.2109375 c 4
 263.015625 2.984375 243.375 -3 234 -3 c 0
 181 -3 174.26953125 2 136 2 c 24
 95.3935546875 2 82 -3 32 -3 c 0
 27.6161755961 -3 14.4560546875 2.8115234375 14.4560546875 7.4609375 c 0
 14.4560546875 14.4765625 30.3764718602 21.3985294913 40 22 c 0
 66 24 109 27 122 68 c 2
EndSplineSet
Validated: 33
EndChar

StartChar: bracketleft
Encoding: 59 91 51
Width: 343
VWidth: 0
Flags: HW
HStem: -200 33<105.578 248.851> 673 29<357.435 516.67>
LayerCount: 2
Fore
SplineSet
299 640 m 24
 306 663 309 702 339 702 c 0
 343 702 348 702 352 702 c 10
 505 701 l 26
 513 701 522 695 517 686 c 25
 510 675 500 675 489 674 c 16
 471 672 457 672 444 672 c 0
 424 672 406 673 381 673 c 0
 367 673 355 659 350 644 c 8
 299 495 274 411 228 262 c 8
 183 114 154 30 112 -118 c 0
 99 -164 104 -167 124 -167 c 8
 166 -167 189 -168 231 -172 c 0
 242 -173 253 -178 249 -190 c 24
 246 -201 231 -203 221 -203 c 26
 70 -200 l 18
 47 -200 42 -195 51 -170 c 10
 272 542 l 26
 284 580 286 602 299 640 c 24
EndSplineSet
Validated: 33
EndChar

StartChar: bracketright
Encoding: 61 93 52
Width: 341
VWidth: 0
Flags: W
HStem: -200 33<-17.9529 146.076> 673 29<246.205 389.208>
LayerCount: 2
Fore
SplineSet
434 702 m 0
 464 702 444 664 437 640 c 24
 425 602 415 580 403 542 c 26
 189 -170 l 18
 181 -195 175 -200 152 -200 c 10
 -1 -203 l 26
 -11 -203 -25 -201 -22 -190 c 24
 -18 -178 -3 -173 8 -172 c 0
 52 -168 75 -167 117 -167 c 16
 137 -167 144 -164 159 -118 c 0
 207 30 231 114 276 262 c 16
 322 411 347 495 388 644 c 16
 392 659 388 673 374 673 c 0
 349 673 330 672 310 672 c 0
 297 672 283 672 267 674 c 8
 257 675 245 675 246 686 c 24
 246 695 259 701 267 701 c 26
 421 702 l 18
 425 702 430 702 434 702 c 0
EndSplineSet
Validated: 33
EndChar

StartChar: x
Encoding: 88 120 53
Width: 438
Flags: W
HStem: -14 60<-11.2538 59.1599 259 329.619> 345 69<95.9422 160.5> 356 58<338.514 383.347>
VStem: 358 26<88.4023 129.464>
LayerCount: 2
Fore
SplineSet
4 -14 m 0xb0
 -16 -14 -30 2 -30 28 c 0
 -30 51 -11 85 6 85 c 0
 15 85 17 79 22 65 c 0
 26 53 40 46 43 46 c 0
 50 46 61 48 71 60 c 2
 71 60 130 120 176 188 c 0
 178 190 177 193 176 198 c 2
 142 327 l 2
 138 342 130 345 122 345 c 0
 112 345 98 342 71 308 c 0
 68 304 57 293 48 293 c 0
 43 293 41 300 41 310 c 0
 41 343 97 414 149 414 c 0xd0
 172 414 184.075195312 393.01953125 189 374 c 2
 218 262 l 2
 221 252 227 255 234 264 c 2
 302 355 l 2
 323 383 356 414 392 414 c 0
 418 414 442 387 443 371 c 0
 444 359 428 316 402 316 c 0
 394 316 391 318 384 333 c 0
 377 351 371 356 362 356 c 0
 327 357 240 224 240 224 c 2
 232.540039062 215.916015625 234.25 206.362304688 239 189 c 2
 266 90 l 2
 275 55 292 49 299 49 c 0
 323 49 338.799804688 67 358 116 c 0
 361.755859375 125.5859375 369 130 374 130 c 0
 379 130 384 128 384 108 c 0
 384 58 332 -14 274 -14 c 0
 244 -14 224 13 213 53 c 0
 208 70 192 137 192 137 c 2
 188 153 184 153 176 143 c 0
 134 93 78 27 78 27 c 2
 50 -6 28 -14 4 -14 c 0xb0
EndSplineSet
Validated: 33
EndChar

StartChar: comma
Encoding: 12 44 54
Width: 210
VWidth: 0
Flags: HW
HStem: 29 88<75.3066 113.724>
LayerCount: 2
Fore
SplineSet
91 29 m 0
 65 32 53 49 60 71 c 0
 68 98 99 117 126 117 c 0
 171 117 190 76 173 20 c 0
 142 -81 38 -145 -10 -147 c 0
 -11 -147 -11 -147 -12 -147 c 0
 -32 -147 -29 -128 -9 -124 c 0
 34 -115 93 -85 114 -15 c 0
 119 1 111 27 91 29 c 0
EndSplineSet
Validated: 33
EndChar

StartChar: quotedblbase
Encoding: 1004 8222 55
Width: 389
VWidth: 0
Flags: W
HStem: 29 88<95.3066 133.724 261.09 299.724>
LayerCount: 2
Fore
SplineSet
277 29 m 0
 251 32 239 49 246 71 c 0
 254 98 284 117 311 117 c 0
 356 117 376 76 359 20 c 0
 328 -81 224 -145 176 -147 c 0
 175 -147 175 -147 174 -147 c 0
 153 -147 157 -128 177 -124 c 0
 220 -115 279 -85 300 -15 c 0
 305 1 297 27 277 29 c 0
111 29 m 0
 85 32 73 49 80 71 c 0
 88 98 119 117 146 117 c 0
 191 117 210 76 193 20 c 0
 162 -81 58 -145 10 -147 c 0
 9 -147 9 -147 8 -147 c 0
 -13 -147 -8 -128 12 -124 c 0
 55 -115 113 -85 134 -15 c 0
 139 1 131 27 111 29 c 0
EndSplineSet
Validated: 33
EndChar

StartChar: quotesinglbase
Encoding: 1001 8218 56
Width: 223
VWidth: 0
Flags: W
HStem: 29 88<95.3066 133.724>
LayerCount: 2
Fore
SplineSet
111 29 m 0
 85 32 73 49 80 71 c 0
 88 98 119 117 146 117 c 0
 191 117 210 76 193 20 c 0
 162 -81 58 -145 10 -147 c 0
 9 -147 9 -147 8 -147 c 0
 -13 -147 -8 -128 12 -124 c 0
 55 -115 113 -85 134 -15 c 0
 139 1 131 27 111 29 c 0
EndSplineSet
Validated: 33
EndChar

StartChar: quotedblleft
Encoding: 1002 8220 57
Width: 389
VWidth: 0
Flags: W
HStem: 426 88<255.276 293.91 421.276 459.693>
LayerCount: 2
Fore
SplineSet
278 514 m 0
 304 511 316 494 309 472 c 0
 301 445 271 426 244 426 c 0
 199 426 179 467 196 523 c 0
 227 624 331 688 379 690 c 0
 380 690 380 690 381 690 c 0
 402 690 398 671 378 667 c 0
 335 658 276 628 255 558 c 0
 250 542 258 516 278 514 c 0
444 514 m 0
 470 511 482 494 475 472 c 0
 467 445 436 426 409 426 c 0
 364 426 345 467 362 523 c 0
 393 624 497 688 545 690 c 0
 546 690 546 690 547 690 c 0
 568 690 564 671 544 667 c 0
 501 658 442 628 421 558 c 0
 416 542 424 516 444 514 c 0
EndSplineSet
Validated: 33
EndChar

StartChar: quotedblright
Encoding: 1003 8221 58
Width: 389
VWidth: 0
Flags: W
HStem: 426 21G<184 209 349 375> 602 88<271.122 308.724 436.09 474.724>
LayerCount: 2
Fore
SplineSet
452 602 m 0
 426 605 414 622 421 644 c 0
 429 671 459 690 486 690 c 0
 531 690 551 649 534 593 c 0
 503 492 399 428 351 426 c 0
 350 426 350 426 349 426 c 0
 328 426 332 445 352 449 c 0
 395 458 454 488 475 558 c 0
 480 574 472 600 452 602 c 0
286 602 m 0
 260 605 249 622 256 644 c 0
 264 671 294 690 321 690 c 0
 366 690 385 649 368 593 c 0
 337 492 233 428 185 426 c 0
 184 426 185 426 184 426 c 0
 163 426 167 445 187 449 c 0
 230 458 288 488 309 558 c 0
 314 574 306 600 286 602 c 0
EndSplineSet
Validated: 33
EndChar

StartChar: quoteleft
Encoding: 999 8216 59
Width: 221
Flags: W
HStem: 426 88<255.276 293.91>
LayerCount: 2
Fore
SplineSet
278 514 m 0
 304 511 316 494 309 472 c 0
 301 445 271 426 244 426 c 0
 199 426 179 467 196 523 c 0
 227 624 331 688 379 690 c 0
 380 690 380 690 381 690 c 0
 402 690 398 671 378 667 c 0
 335 658 276 628 255 558 c 0
 250 542 258 516 278 514 c 0
EndSplineSet
Validated: 33
EndChar

StartChar: quoteright
Encoding: 1000 8217 60
Width: 221
Flags: W
HStem: 426 21G<184 209> 602 88<271.122 308.724>
LayerCount: 2
Fore
SplineSet
286 602 m 0
 260 605 249 622 256 644 c 0
 264 671 294 690 321 690 c 0
 366 690 385 649 368 593 c 0
 337 492 233 428 185 426 c 0
 184 426 185 426 184 426 c 0
 163 426 167 445 187 449 c 0
 230 458 288 488 309 558 c 0
 314 574 306 600 286 602 c 0
EndSplineSet
Validated: 33
EndChar

StartChar: K
Encoding: 43 75 61
Width: 687
VWidth: 0
Flags: W
HStem: -5 29<31.6976 109.295 238.583 291.899 411.144 467.061 609.651 673.899> 622 31<224.102 285.933 396.085 470.442 574.102 609.015 721.464 819.841>
AnchorPoint: "top_accent" 343 700 basechar 0
AnchorPoint: "below_accent" 326 -100 basechar 0
LayerCount: 2
Fore
SplineSet
644 -5 m 4
 589 -5 561 0 510 0 c 4
 487 0 476 -1 434 -1 c 4
 418 -1 409 2 411 10 c 4
 414 19 422 23 441 27 c 4
 480 36 477 53 467 72 c 6
 314 306 l 26
 309.017578125 313.620117188 303 323 298 323 c 0
 293 323 290 309 288 302 c 0
 269 239 256 190 234 110 c 0
 223 67 223 33 267 24 c 0
 287 20 295 15 292 6 c 0
 290 -2 278 -5 262 -5 c 0
 212 -5 207.817382812 2 173 2 c 24
 126.509765625 2 104 -5 54 -5 c 0
 38 -5 28 -2 30 6 c 0
 33 15 43 20 66 24 c 0
 115 33 137 51 152 101 c 2
 290 551 l 2
 304 597 293 613 249 622 c 0
 229 626 221 633 224 642 c 0
 226 650 239 653 255 653 c 0
 305 653 317.822265625 651 358 651 c 24
 393.499023438 651 399 653 449 653 c 0
 465 653 475 650 473 642 c 0
 470 633 459 626 436 622 c 0
 387 613 376 590 364 551 c 2
 307 364 l 2
 305 359 301 345 306 345 c 0
 313 345 327 355 336 363 c 2
 585 567 l 2
 612 589 617 614 597 620 c 0
 577 626 571 631 574 640 c 0
 576 648 589 651 605 651 c 0
 638 651 646 651 655 651 c 0
 704 651 769 652 800 655 c 0
 802 655 805 655 807 655 c 0
 819 655 826 651 824 644 c 0
 821 635 810 628 787 624 c 0
 738 615 681 597 626 558 c 0
 540 497 478.815798707 447.82379213 390 371 c 24
 384.682617188 366.400390625 384.508789062 359.698242188 389 353 c 2
 562 95 l 6
 588.590820312 48.0009765625 600 36 649 24 c 4
 669 19 677 15 674 6 c 4
 672 -2 660 -5 644 -5 c 4
EndSplineSet
Validated: 33
EndChar

StartChar: k
Encoding: 75 107 62
Width: 429
Flags: W
HStem: -21 60<260.809 318.638> 178 25<122 164> 372 42<286.026 368.757>
VStem: 350 69<315.704 387.5>
LayerCount: 2
Fore
SplineSet
350 346 m 0
 350 368 331 372 311 372 c 0
 255 372 152 248.472011543 152 220 c 0
 152 212 156 203 164 203 c 0
 247 203 350 296 350 346 c 0
56 16 m 0
 48 -6 46 -15 30 -15 c 0
 20 -15 0 3 0 15 c 0
 0 21 2 35 13 74 c 2
 154 557 l 2
 161 580 172 618 167 631 c 0
 163 643 114 649 114 658 c 4
 114 663 116 667 120 669 c 4
 150 684 222 706 238 706 c 0
 244 706 254 706 254 696 c 0
 254 685 254 682 251 673 c 2
 130 266 l 2
 126 251 133.8849922 255.22971971 139 262 c 0
 211 357.299987793 301 414 349 414 c 0
 388 414 419 404 419 371 c 0
 419 296.298828125 284.299501314 207.060325948 216 188 c 0
 209 186 208 184 211 177 c 2
 257 68 l 2
 262.921875 53.966796875 275 39 290 39 c 0
 315 39 344 66 362 95 c 0
 369 107 373 110 378 110 c 0
 380.367543926 110 383 105 383 100 c 0
 383 35 299 -21 269 -21 c 0
 254 -21 225 -15 206 28 c 2
 168 134 l 2
 160 156 144 178 122 178 c 0
 113 178 99 150 95 136 c 0
 89 117 63 35 56 16 c 0
EndSplineSet
Validated: 33
EndChar

StartChar: X
Encoding: 56 88 63
Width: 746
VWidth: 0
Flags: W
HStem: -5 33<0.425468 77.0044 203.216 251.899 371.33 435.953 596.097 651.899> 622 33<214.101 264.362 429.706 490.723 608.101 645.292 768.781 840.481>
AnchorPoint: "top_accent" 343 700 basechar 0
AnchorPoint: "below_accent" 326 -100 basechar 0
LayerCount: 2
Fore
SplineSet
713 650 m 0
 749 650 796 656 821 656 c 0
 837 656 847 653 845 645 c 0
 842 636 831 631 808 625 c 0
 770 615 709 562 652 510 c 18
 503 374 l 2
 483 356 474 346 478 334 c 2
 554 111 l 10
 568 67 595 36 627 26 c 0
 647 20 655 15 652 6 c 0
 650 -2 638 -5 622 -5 c 0
 596 -5 535 1 491 1 c 0
 453 1 416 0 394 0 c 0
 378 0 369 3 371 11 c 0
 374 20 394 27 408 31 c 0
 436 39 477 66 462 111 c 2
 411 262 l 2
 406 276 401 276 392 267 c 2
 214 93 l 2
 185 64 196 39 228 30 c 0
 248 24 255 19 252 10 c 0
 250 2 238 -1 222 -1 c 0
 205 -1 173 1 140 1 c 0
 98 1 52 -5 21 -5 c 0
 5 -5 -5 -2 -3 6 c 0
 0 15 12 21 35 28 c 0
 70 38 142 72 197 124 c 18
 361 280 l 1
 380 300 393 315 390 325 c 2
 317 529 l 10
 300 576 267 612 238 622 c 0
 220 629 211 635 214 644 c 0
 216 652 228 655 244 655 c 0
 275 655 330 650 376 650 c 0
 413 650 451 652 468 652 c 0
 484 652 494 649 492 641 c 0
 489 632 478 627 455 621 c 0
 418 612 400 558 410 528 c 18
 455 400 l 2
 458 390 462 385 466 385 c 0
 470 385 474 389 482 397 c 2
 625 538 l 10
 652 564 656 612 632 620 c 0
 620 624 605 631 608 640 c 0
 610 648 622 651 638 651 c 0
 660 651 685 650 713 650 c 0
EndSplineSet
Validated: 33
EndChar

StartChar: Z
Encoding: 58 90 64
Width: 690
VWidth: 0
Flags: W
HStem: -2 38<173.13 462.3> 604 42<302.3 577.002>
AnchorPoint: "top_accent" 335 700 basechar 0
AnchorPoint: "below_accent" 306 -100 basechar 0
LayerCount: 2
Fore
SplineSet
214 -2 m 0
 177 -2 138 -3 103 -3 c 0
 80 -3 61 -3 31 -3 c 8
 25 -3 29 11 29 11 c 1
 32 21 80 73 111 104 c 0
 294 290 400 395 577 588 c 24
 584 595 590 603 568 604 c 0
 535 605 482 606 433 606 c 0
 397 606 362 606 338 604 c 0
 308 602 263 584 231 535 c 0
 223 523 209 503 195 503 c 0
 181 503 196 527 205 541 c 0
 218 562 247 610 264 652 c 0
 270 667 278 669 283 669 c 0
 288 669 295 663 302 655 c 0
 308 649 340 647 367 647 c 16
 415 646 460 646 502 646 c 0
 579 646 649 647 718 649 c 0
 724 649 727 636 722 631 c 2
 641 550 l 1
 456 364 354 262 180 70 c 24
 171 60 168 42 178 41 c 0
 204 38 241 36 282 36 c 0
 324 36 370 38 415 41 c 0
 461 45 515 76 561 142 c 0
 566 150 579 163 588 163 c 0
 594 163 595 159 592 150 c 0
 589 139 534 36 516 12 c 0
 510 4 503 -5 494 -5 c 0
 388 -5 297 -2 214 -2 c 0
EndSplineSet
Validated: 33
EndChar

StartChar: z
Encoding: 90 122 65
Width: 426
VWidth: 0
Flags: W
HStem: -34 52<222.751 295.948> -20 21G<7 11.5> 52 44<87 121> 376 48<120.377 243.066>
VStem: -5 29<-19.9905 31.5369> 36 52<278.28 347.735> 327 44<38.4196 139.449>
AnchorPoint: "top_accent" 195 550 basechar 0
AnchorPoint: "below_accent" 190 -100 basechar 0
LayerCount: 2
Fore
SplineSet
412 428 m 0x7e
 416 428 421 422 421 416 c 0
 421 406 408 384 389 366 c 2
 125 114 l 2
 117 106 115 96 120 96 c 0
 170 96 228 18 274 18 c 0
 319 18 327 69 327 98 c 0
 327 114 325 116 325 129 c 0
 325 141 325 143 338 143 c 0
 352 143 371 124 371 92 c 0
 371 31 280 -34 240 -34 c 0xbe
 162 -34 121 52 87 52 c 0
 47 52 24 25 24 -6 c 0
 24 -19 14 -20 9 -20 c 0
 5 -20 -4 -7 -5 6 c 0
 -6 20 0 41 19 59 c 2
 298 320 l 18
 306 328 294 335 275 342 c 0
 255 350 191 376 136 376 c 0
 112 376 87 352 88 332 c 0
 88 322 90 308 98 296 c 0
 103 288 103 284 98 278 c 0
 89 268 63 256 57 256 c 0
 50 256 36 268 36 290 c 0
 36 326 54 348 86 378 c 0
 109 400 159 424 181 424 c 0
 235 424 306 389 337 389 c 0
 357 389 367 396 382 410 c 0
 389 417 402 428 412 428 c 0x7e
EndSplineSet
Validated: 33
EndChar

StartChar: exclam
Encoding: 1 33 66
Width: 248
VWidth: 0
Flags: W
HStem: -14 120<115.645 178.158>
VStem: 189 34<213.757 281.903>
LayerCount: 2
Fore
SplineSet
166 106 m 24
 197 106 213 79 203 46 c 24
 193 13 160 -14 129 -14 c 24
 98 -14 81 13 91 46 c 24
 101 79 135 106 166 106 c 24
260 573 m 0
 272 612 298 649 332 649 c 0
 364 649 368 612 357 575 c 0
 330 488 272 358 223 244 c 0
 213 222 203 205 194 205 c 0
 185 205 183 215 189 244 c 0
 213 358 241 510 260 573 c 0
EndSplineSet
Validated: 33
EndChar

StartChar: exclamdown
Encoding: 96 161 67
Width: 259
VWidth: 0
Flags: W
HStem: -180 21G<69 101.5> 374 120<240.645 303.158>
VStem: 176 48<151.335 245.884>
LayerCount: 2
Fore
SplineSet
254 374 m 24
 223 374 206 401 216 434 c 24
 226 467 260 494 291 494 c 24
 322 494 338 467 328 434 c 24
 318 401 285 374 254 374 c 24
86 -180 m 0
 52 -180 48 -145 60 -106 c 0
 79 -43 131 87 176 205 c 0
 187 234 206 263 220 263 c 0
 229 263 229 233 224 211 c 0
 200 95 179 -21 152 -108 c 0
 141 -144 117 -180 86 -180 c 0
EndSplineSet
Validated: 33
EndChar

StartChar: quotedbl
Encoding: 2 34 68
Width: 285
VWidth: 0
Flags: W
HStem: 444 232
LayerCount: 2
Fore
SplineSet
202 467 m 0
 220 520 232 557 246 619 c 0
 249 633 263 648 274 655 c 0
 293 667 306 676 321 676 c 0
 335 676 325 645 316 624 c 0
 286 555 253 505 227 469 c 0
 219 457 206 444 201 444 c 0
 196 444 199 458 202 467 c 0
324 467 m 0
 342 520 353 557 367 619 c 0
 370 633 385 648 396 655 c 0
 415 667 428 676 443 676 c 0
 457 676 447 645 438 624 c 0
 408 555 375 505 349 469 c 0
 341 457 328 444 323 444 c 0
 318 444 321 458 324 467 c 0
EndSplineSet
Validated: 33
EndChar

StartChar: quotesingle
Encoding: 7 39 69
Width: 178
VWidth: 0
Flags: W
HStem: 444 232
LayerCount: 2
Fore
SplineSet
202 467 m 0
 220 520 232 557 246 619 c 0
 249 633 263 648 274 655 c 0
 293 667 306 676 321 676 c 0
 335 676 325 645 316 624 c 0
 286 555 253 505 227 469 c 0
 219 457 206 444 201 444 c 0
 196 444 199 458 202 467 c 0
EndSplineSet
Validated: 33
EndChar

StartChar: colon
Encoding: 26 58 70
Width: 227
VWidth: 0
Flags: W
HStem: -14 110<97.2601 157.74> 263 110<182.26 241.74>
VStem: 76 187
LayerCount: 2
Fore
SplineSet
144 96 m 24
 172 96 188 71 179 41 c 24
 170 11 139 -14 111 -14 c 24
 83 -14 67 11 76 41 c 24
 85 71 116 96 144 96 c 24
229 373 m 24
 257 373 272 348 263 318 c 24
 254 288 223 263 195 263 c 24
 167 263 152 288 161 318 c 24
 170 348 201 373 229 373 c 24
EndSplineSet
Validated: 33
EndChar

StartChar: semicolon
Encoding: 27 59 71
Width: 210
VWidth: 0
Flags: W
HStem: 29 88<75.3066 113.724> 263 110<165.26 225.74>
VStem: 144 103<284.203 351.797>
LayerCount: 2
Fore
SplineSet
212 373 m 24
 240 373 256 348 247 318 c 24
 238 288 207 263 179 263 c 24
 151 263 135 288 144 318 c 24
 153 348 184 373 212 373 c 24
91 29 m 0
 65 32 53 49 60 71 c 0
 68 98 99 117 126 117 c 0
 171 117 190 76 173 20 c 0
 142 -81 38 -145 -10 -147 c 0
 -11 -147 -11 -147 -12 -147 c 0
 -32 -147 -29 -128 -9 -124 c 0
 34 -115 93 -85 114 -15 c 0
 119 1 111 27 91 29 c 0
EndSplineSet
Validated: 33
EndChar

StartChar: dieresis
Encoding: 103 168 72
Width: 5
VWidth: 0
Flags: W
HStem: 494 100<-101.941 -47.0592 62.0592 117.302>
VStem: -121 93<513.281 574.719> 43 93<512.342 574.719>
AnchorPoint: "top_accent" -182 531 mark 0
LayerCount: 2
Fore
SplineSet
105 594 m 0
 128 594 144 569 136 544 c 0
 128 519 98 494 75 494 c 0
 52 494 35 519 43 544 c 0
 51 569 82 594 105 594 c 0
-59 594 m 0
 -36 594 -20 569 -28 544 c 0
 -36 519 -67 494 -90 494 c 0
 -113 494 -129 519 -121 544 c 0
 -113 569 -82 594 -59 594 c 0
EndSplineSet
Validated: 33
EndChar

StartChar: dotlessi
Encoding: 240 305 76
Width: 234
Flags: W
HStem: -14 55<49 133.45>
VStem: 24 72.8301<14.7369 107.25>
AnchorPoint: "top_accent" 253 550 basechar 0
LayerCount: 2
Fore
SplineSet
34 76 m 2
 106 270 l 2
 114.47265625 292.830078125 119 318 106 318 c 0
 95 318 69 309 39 295 c 0
 35 293 24 296 24 300 c 0
 24 305 25 309 33 315 c 0
 99 362 135 384 196 418 c 0
 202 421 215 425 215 414 c 0
 215 400 211.146484375 386.947265625 205 370 c 2
 102 86 l 2
 97.9248046875 74.763671875 96.830078125 64.7021484375 96.830078125 57.1728515625 c 0
 96.830078125 46.962890625 100.092773438 41 107 41 c 0
 139 41 209 108 219 118 c 0
 220.05859375 119.05859375 221.616210938 119.553710938 223.188476562 119.553710938 c 0
 226.069335938 119.553710938 229 117.892578125 229 115 c 0
 229 38.1787109375 100.291992188 -14 65 -14 c 0
 33 -14 23 2 23 21 c 0
 23 44 25.3017578125 52.5625 34 76 c 2
EndSplineSet
Validated: 33
EndChar

StartChar: two
Encoding: 18 50 77
Width: 424
VWidth: 0
Flags: HW
HStem: -4 69<119.682 306.932> 358 55<182.573 278.193>
VStem: 286 78<262.572 349.305>
LayerCount: 2
Fore
SplineSet
246 65 m 2
 281 65 306 76 330 117 c 0
 341 136 343 144 353 144 c 0
 363 144 364 138 364 132 c 0
 364 112 326 41 311 12 c 0
 303 -3 298 -4 294 -4 c 0
 235 -4 203.13085908 0.206137798157 145 0 c 24
 93.09375 -0.18359375 30 -5 12 -5 c 0
 10 -5 -1 0 0 14 c 0
 1 22 24 41 73 74 c 0
 102 94 286 211 286 312 c 0
 286 344 259 358 232 358 c 0
 190 358 161 335 128 300 c 0
 124 295 118 290 113 290 c 0
 107 290 103 293 103 302 c 0
 103 330 168 413 269 413 c 0
 314 413 363 370 363 326 c 0
 363 262 314 230 272 191 c 0
 233 155 131 80 120 73 c 4
 113 69 120 65 126 65 c 6
 246 65 l 2
EndSplineSet
Validated: 33
EndChar

StartChar: five
Encoding: 21 53 78
Width: 346
VWidth: 0
Flags: W
HStem: -194 39<-32.414 106.266> 335 81<200.919 308.299>
VStem: 75 53<234.5 284.352> 180 66<-52.4597 95.4388>
LayerCount: 2
Fore
SplineSet
180 24 m 0
 180 83 129 144 92 187 c 0
 77 205 75 228 75 241 c 0
 75 247 84 265 87 269 c 0
 103 294 130 336 143 356 c 0
 155 376 175 385 186 389 c 0
 238 409 303 416 322 416 c 0
 330 416 331 408 331 402 c 0
 331 386 302 336 277 335 c 0
 226 334 216 344 187 343 c 0
 179 343 168 339 157 326 c 0
 154 322 128 284 128 280 c 0
 128 274 133 265 139 257 c 0
 206 172 246 120 246 64 c 0
 246 -89 148 -194 12 -194 c 16
 -40 -194 -52 -176 -52 -169 c 0
 -52 -159 -40 -128 -29 -128 c 0
 -21 -128 -1 -155 50 -155 c 8
 136 -155 180 -91 180 24 c 0
EndSplineSet
Validated: 33
EndChar

StartChar: four
Encoding: 20 52 79
Width: 482
VWidth: 0
Flags: W
HStem: -181 21G<213.5 220.5> 50 46<150.027 261.125> 56 54<357.962 453.309> 405 20G<453.5 461>
LayerCount: 2
Fore
SplineSet
279 104 m 2xd0
 284 104 291 108 292 112 c 2
 355 296 l 2
 356 299 349 299 346 297 c 24
 264 224 219 181 139 105 c 24
 136 102 132 96 136 96 c 2
 279 104 l 2xd0
43 61 m 0
 157 170 314 315 388 376 c 0
 408 393 450 424 457 425 c 0
 458 425 l 0
 464 425 465 418 463 413 c 8
 417.373046875 298.931640625 397.196141422 232.435596576 358 116 c 24
 357.165039062 113.520507812 358.383789062 110 361 110 c 16
 366 110 419 112 454 114 c 0
 460 114 461 103 461 99 c 8
 461 78.4072265625 436 57 429 57 c 0
 407 57 376 56 354 56 c 0xb0
 349 56 340.301757812 46.9521484375 340 46 c 2
 278 -150 l 6
 270 -175 224 -181 217 -181 c 0
 210 -181 204 -178 207 -168 c 2
 271 41 l 2
 273 47 260 50 259 50 c 0
 183 50 49 35 44 35 c 0
 41 35 33 39 33 45 c 0
 33 51 41 59 43 61 c 0
EndSplineSet
Validated: 1
EndChar

StartChar: seven
Encoding: 23 55 80
Width: 430
VWidth: 0
Flags: W
HStem: 272 21G<66.5 74> 336.532 64.4678<116.901 353.891>
LayerCount: 2
Fore
SplineSet
359 326 m 2
 362 331 367 335 353 336 c 0
 338.635742188 336.399414062 300.852539062 336.532226562 282.190429688 336.532226562 c 0
 244.8671875 336.532226562 184.028645833 336 160 336 c 0
 141 336 119.668624878 321 100 297 c 0
 94.6215164486 290.437080323 78 272 70 272 c 0
 63 272 62 281 62 285 c 0
 62 303.009765625 117.668945312 383 125 395 c 0
 130.443359375 403.909179688 135 406 138 406 c 0
 141 406 173 403 196 402 c 0
 223 401 276 401 313 401 c 0
 396 401 408.67 407 424 407 c 0
 426.34 407 430 401 430 394 c 0
 430 384 403.078125 341.920898438 390 323 c 2
 52 -166 l 10
 43.7578125 -177.924804688 25 -186 16 -186 c 0
 4 -186 -3.06151588456e-16 -178 0 -173 c 0
 3.06151588456e-16 -168 14.2539781757 -150.529669311 32 -126 c 2
 359 326 l 2
EndSplineSet
Validated: 1
EndChar

StartChar: six
Encoding: 22 54 81
Width: 389
VWidth: 0
Flags: W
HStem: -15 30<87.8149 183.86> 363 30<253.886 293.84> 578 30<435.844 498.683>
VStem: 31 68<27.061 206.507> 309 64<185.819 354.216>
LayerCount: 2
Fore
SplineSet
259 363 m 0
 165 363 99 185 99 103 c 0
 99 66.20703125 108.971679688 15 147 15 c 0
 208 15 309 157 309 308 c 8
 309 336.989257812 292.865234375 363 259 363 c 0
31 113 m 0
 31 315 295 608 493 608 c 0
 497 608 501 602 501 600 c 0
 501 588 486 583 468 578 c 0
 393 557 297 471 262 422 c 0
 256.015625 413.622070312 244 388 254 390 c 0
 264 392 271 393 281 393 c 0
 345 393 373 330 373 284 c 8
 373 130.741210938 263 -15 118 -15 c 8
 57.640625 -15 31 32 31 113 c 0
EndSplineSet
Validated: 33
EndChar

StartChar: nine
Encoding: 25 57 82
Width: 367
VWidth: 0
Flags: W
HStem: -209 30<-85.6826 -21.2891> 47 25<145.397 201.978> 386 28<229.083 287.223>
VStem: 60 67<90.0733 254.581> 301 65<183.651 365.153>
LayerCount: 2
Fore
SplineSet
177 72 m 0
 271 72 301 240 301 322 c 0
 301 352 291 386 261 386 c 0
 217 386 127 283 127 132 c 8
 127 102 143 72 177 72 c 0
366 286 m 0
 366 84 120 -209 -78 -209 c 0
 -82 -209 -88 -208 -88 -201 c 0
 -88 -189 -73 -184 -55 -179 c 0
 35 -154 166 -35 202 37 c 0
 206 46 197 52 187 50 c 0
 177 48 170 47 160 47 c 0
 96 47 60 110 60 156 c 8
 60 286 150 414 273 414 c 0
 323 414 366 351 366 286 c 0
EndSplineSet
Validated: 1
EndChar

StartChar: zero
Encoding: 16 48 83
Width: 440
VWidth: 0
Flags: W
HStem: -15 30<112.282 177.123> 384 30<254.95 322.766>
VStem: 45 63<16.1263 167.068> 327 64<228.676 382.358>
LayerCount: 2
Fore
SplineSet
298 384 m 20
 206 384 108 176 108 45 c 12
 108 28 121 15 138 15 c 20
 221 15 327 203 327 354 c 12
 327 370 314 384 298 384 c 20
308 414 m 12
 354 414 391 376 391 330 c 12
 391 160 268 -15 123 -15 c 12
 78 -15 45 24 45 69 c 20
 45 226 163 414 308 414 c 12
EndSplineSet
Validated: 1
EndChar

StartChar: three
Encoding: 19 51 84
Width: 344
VWidth: 0
Flags: W
HStem: -194 39<-7.5328 107.293> 112 49<138 189> 360 53<156.255 241.514>
VStem: 199 80<-27.7588 89.905> 254 70<254.696 349.111>
LayerCount: 2
Fore
SplineSet
234 413 m 0xe8
 285 413 324 368 324 321 c 0xe8
 324 264 283 216 190 167 c 0
 186 165 184 161 189 161 c 0
 254 159 279 96 279 59 c 0
 279 -54 160.484375 -194 19 -194 c 20
 -33 -194 -38 -156.28 -38 -149 c 4
 -38 -138.56 -33 -128 -22 -128 c 4
 -14 -128 6 -155 57 -155 c 12
 147.028320312 -155 199 -63.0283203125 199 27 c 16xf0
 199 55 178.802734375 112 138 112 c 16
 124 112 99 105 74 92 c 0
 66 88 57.8096202041 95.7236026452 61 101 c 24
 71.4404296875 118.267578125 87 128 100 135 c 0
 124 148 146 160 181 186 c 0
 201 200 254 246 254 305 c 0
 254 330 232 360 204 360 c 0
 162 360 134 348 105 308 c 0
 102 304 98 301 94 301 c 0
 90 301 85 310 85 314 c 0
 85 333 145 413 234 413 c 0xe8
EndSplineSet
Validated: 1
EndChar

StartChar: eight
Encoding: 24 56 85
Width: 420
VWidth: 0
Flags: W
HStem: -13 37<122.931 207.378> 555 34<277.897 364.91>
VStem: 30 70<45.1172 154.827> 160 60<371.037 491.245> 260 70<85.1733 218.138> 385 60<434.72 539.992>
LayerCount: 2
Fore
SplineSet
206 263 m 0
 115.635742188 195.15234375 100 147 100 102 c 8
 100 62.40234375 125.40234375 24 165 24 c 16
 203 24 260 35 260 110 c 0
 260 170 241.158203125 219.645507812 217 262 c 0
 214.522460938 266.342773438 209.998046875 266.001953125 206 263 c 0
266 335 m 0
 364.700195312 406.709960938 385 433 385 480 c 8
 385 519.745117188 371 555 316 555 c 0
 273 555 220 513 220 460 c 0
 220 421 237.989701445 378.451792864 256 338 c 0
 258.033683215 333.432272712 261.955078125 332.061523438 266 335 c 0
275 300 m 0
 303.975585938 245.504882812 330 194 330 148 c 0
 330 68 218 -13 130 -13 c 8
 76.7412109375 -13 30 26.74 30 80 c 16
 30 145 65.535072242 194.637332854 189 285 c 0
 193.034801561 287.953028338 194.033203125 293.432617188 192 298 c 0
 175.62890625 334.770507812 160 371 160 420 c 0
 160 510 262 589 350 589 c 8
 400.768554688 589 445 550.768554688 445 500 c 16
 445 439 397.596679688 393.7421875 278 310 c 0
 273.904296875 307.131835938 272.65234375 304.415039062 275 300 c 0
EndSplineSet
Validated: 1
EndChar

StartChar: question
Encoding: 31 63 86
Width: 290
VWidth: 0
Flags: W
HStem: -14 111<60.3083 130.79> 591 70<168.878 280.306>
VStem: 44.0322 102.936<2.15415 81.2733> 83.9951 39.0049<199.68 283.099> 307.111 34.5361<461.144 558.575>
LayerCount: 2
Fore
SplineSet
107 97 m 16xe8
 130.76953125 97 146.967773438 74.7568359375 146.967773438 50.9873046875 c 16
 146.967773438 15.697265625 119.290039062 -14 84 -14 c 8
 59.9296875 -14 44.0322265625 8.9423828125 44.0322265625 33.0126953125 c 16
 44.0322265625 68.0224609375 71.990234375 97 107 97 c 16xe8
215 661 m 0
 295 661 341.647460938 588.177734375 341.647460938 496.177734375 c 0
 341.647460938 423.997734375 311.071491449 381.599424991 263 357 c 2
 175 312 l 1
 143 294 123.240234375 261.525390625 123 236 c 0
 122.834960938 218.5 142.869140625 202.729492188 143.328125 192.5 c 0
 143.668945312 184.909179688 131.833984375 178 128 178 c 0
 118.369140625 178 83.8349609375 213.5 83.9951171875 255.397460938 c 0xd8
 84.267578125 326.942382812 128.194335938 364.118164062 214 404 c 0
 262.708984375 426.731445312 307.111328125 459.676757812 307.111328125 511.676757812 c 0
 307.111328125 550.676757812 274.190429688 591 228 591 c 0
 190 591 188 577 173 577 c 0
 158 577 149.23828125 591.893554688 149.23828125 610.053710938 c 4
 149.23828125 639.9375 192.31 661 215 661 c 0
EndSplineSet
Validated: 33
EndChar

StartChar: grave
Encoding: 64 96 87
Width: 257
VWidth: 0
Flags: W
HStem: 449 215<272 327>
VStem: 309 34<449.106 511.757>
LayerCount: 2
Fore
SplineSet
231 636 m 0
 235 650 256 664 272 664 c 0
 293 664 305 655 310 637 c 0
 319 603 348 477 343 462 c 0
 340 453 336 449 327 449 c 0
 319 449 312 464 309 471 c 0
 269 582 225 617 231 636 c 0
EndSplineSet
Validated: 33
EndChar

StartChar: acute
Encoding: 115 180 88
Width: 351
VWidth: 0
Flags: HW
HStem: 449 215
VStem: 411 79<613.278 654.976>
LayerCount: 2
Fore
SplineSet
466 664 m 0
 482 664 494 650 490 636 c 0
 484 617 419 582 311 471 c 0
 304 464 287 449 279 449 c 0
 270 449 268 453 271 462 c 0
 276 477 381 603 411 637 c 0
 427 655 445 664 466 664 c 0
EndSplineSet
Validated: 33
EndChar

StartChar: asciicircum
Encoding: 62 94 89
Width: 500
Flags: W
HStem: 284 319
LayerCount: 2
Fore
SplineSet
250 603 m 1
 276 566 408 375 449 305 c 0
 455 295 451 284 443 284 c 0
 442 284 442 284 441 284 c 0
 429 287 410 295 404 302 c 0
 368 341 284 470 254 514 c 0
 249 520 248 520 244 514 c 0
 214 470 123 332 96 302 c 0
 89 295 71 287 59 284 c 0
 58 284 58 284 57 284 c 0
 49 284 45 295 51 305 c 0
 89 369 222 564 250 603 c 1
EndSplineSet
Validated: 1
EndChar

StartChar: circumflex
Encoding: 430 710 90
Width: 4
VWidth: 0
Flags: W
HStem: 447 201<55.9062 63.1966>
VStem: 57 35<447.486 465>
AnchorPoint: "top_accent" -167 550 mark 0
LayerCount: 2
Fore
SplineSet
-73 465 m 2
 -81 457 -93 447 -104 447 c 0
 -111 447 -114 456 -105 468 c 2
 -105 468 -18 582 13 619 c 0
 28 637 41 648 48 648 c 0
 55 648 61 637 65 619 c 0
 75 576 92 468 92 468 c 2
 94 456 85 447 78 447 c 0
 67 447 60 458 57 465 c 2
 22 561 l 1
 -73 465 l 2
EndSplineSet
Validated: 1
EndChar

StartChar: uni0302
Encoding: 445 770 91
Width: 311
VWidth: 0
Flags: W
HStem: 449 224
VStem: 396 35<450.453 467>
AnchorPoint: "top_accent" 169 550 mark 0
LayerCount: 2
Fore
SplineSet
336 577 m 2
 334 582 333 582 327 577 c 2
 203 467 l 2
 194 460 183 452 171 449 c 0
 170 449 170 449 169 449 c 0
 162 449 161 460 170 470 c 2
 306 625 l 2
 322 643 348 673 362 673 c 0
 376 673 385 643 390 625 c 2
 431 470 l 2
 434 460 425 449 418 449 c 0
 417 449 418 449 417 449 c 0
 407 452 399 460 396 467 c 2
 336 577 l 2
EndSplineSet
Validated: 1
EndChar

StartChar: uni030C
Encoding: 455 780 92
Width: 311
VWidth: 0
Flags: W
HStem: 443 224
VStem: 224 34<649 665.739>
AnchorPoint: "top_accent" 169 533 mark 0
LayerCount: 2
Fore
SplineSet
324 539 m 2
 452 649 l 2
 460 656 471 664 483 667 c 0
 484 667 484 667 485 667 c 0
 492 667 493 656 484 646 c 2
 349 491 l 2
 333 473 306 443 292 443 c 0
 278 443 270 473 265 491 c 2
 224 646 l 2
 221 656 229 667 236 667 c 0
 237 667 237 667 238 667 c 0
 248 664 254 656 258 649 c 2
 316 539 l 2
 319 534 314 530 324 539 c 2
EndSplineSet
Validated: 1
EndChar

StartChar: hyphen
Encoding: 13 45 94
Width: 253
VWidth: 0
Flags: W
HStem: 170 85
VStem: 80 223
LayerCount: 2
Fore
SplineSet
88 170 m 0
 87 170 85 170 84 170 c 0
 79 170 79 172 80 176 c 8
 89 198 102 229 112 230 c 0
 174 239 236 248 298 255 c 0
 302 255 304 253 303 249 c 0
 293 224 282 197 267 195 c 0
 208 186 150 177 88 170 c 0
EndSplineSet
Validated: 1
EndChar

StartChar: numbersign
Encoding: 3 35 95
Width: 468
Flags: W
HStem: 204 60<21.8772 94 149 191> 214 60<206 248 303 368.945> 402 60<68.8772 142 198 239.5> 412 60<254.5 296 352 415.945> 630 20G<225 235.5 380 390.5>
LayerCount: 2
Fore
SplineSet
134 206 m 5x58
 90 27 l 6
 87 14 73 12 60 12 c 4
 53 12 48 20 50 27 c 6
 94 204 l 5
 31 201 l 6
 24 201 17 207 17 213 c 4
 17 222 20 260 41 261 c 6
 108 264 l 5
 142 402 l 5
 78 399 l 6
 71 399 64 405 64 411 c 4
 64 420 67 458 88 459 c 6
 157 462 l 5xa8
 199 633 l 6
 202 647 218 650 232 650 c 4
 239 650 241 640 239 633 c 6
 198 464 l 5
 311 470 l 5
 354 644 l 6
 357 658 373 661 387 661 c 4
 394 661 396 651 394 644 c 6
 352 472 l 5
 411 475 l 6
 418 475 426 468 424 461 c 4
 418 440 415 416 393 415 c 6
 337 412 l 5
 303 274 l 5
 364 277 l 6
 371 277 379 270 377 263 c 4
 371 242 368 218 346 217 c 6
 288 214 l 5
 245 38 l 6
 242 25 228 23 215 23 c 4
 208 23 203 31 205 38 c 6
 248 212 l 5
 134 206 l 5x58
149 266 m 5
 263 272 l 5
 296 410 l 5
 183 404 l 5
 149 266 l 5
EndSplineSet
Validated: 1
EndChar

StartChar: slash
Encoding: 15 47 96
Width: 370
VWidth: 0
Flags: W
LayerCount: 2
Fore
SplineSet
13 -47 m 26
 415 648 l 30
 423.666992188 662.984375 438.690429688 665 456 665 c 28
 463.169921875 665 466.58984375 654.20703125 463 648 c 30
 61 -47 l 26
 53.0224609375 -60.7919921875 38.9326171875 -62 23 -62 c 24
 15.96875 -62 9.4794921875 -53.0859375 13 -47 c 26
EndSplineSet
Validated: 1
EndChar

StartChar: backslash
Encoding: 60 92 97
Width: 300
VWidth: 0
Flags: W
VStem: 65 202
LayerCount: 2
Fore
SplineSet
267 -47 m 30
 269.109375 -56.51953125 256.75 -62 247 -62 c 28
 234.266601562 -62 220.737304688 -59.435546875 218 -47 c 30
 65 648 l 30
 62.984375 657.157226562 72.6240234375 665 82 665 c 28
 95.7890625 665 110.016601562 661.461914062 113 648 c 30
 267 -47 l 30
EndSplineSet
Validated: 1
EndChar

StartChar: dollar
Encoding: 4 36 98
Width: 424
VWidth: 0
Flags: W
HStem: -19 35<229.781 291.454>
VStem: 523 33<490.103 591.494>
LayerCount: 2
Fore
SplineSet
327 270 m 2
 225 26 l 2
 221 17 224 16 229 16 c 0
 300 21 343 54 372 148 c 0
 387 198 350 258 332 275 c 0
 330 277 329 275 327 270 c 2
383 367 m 0
 419 331 493 273 462 171 c 0
 438 91 353 -19 213 -19 c 0
 210 -19 204 -20 202 -25 c 2
 171 -101 l 10
 167 -112 153 -116 143 -116 c 24
 135 -116 130 -109 133 -101 c 18
 166 -22 l 2
 167 -19 166 -15 163 -15 c 0
 131 -9 113 2 93 8 c 0
 81 11 83 15 83 20 c 0
 80 43 88 122 97 158 c 0
 99 166 110 174 120 174 c 0
 128 174 123 62 179 26 c 0
 181 25 186 25 187 28 c 2
 300 297 l 2
 301 300 302 305 294 314 c 0
 245 362 204 417 228 497 c 0
 246 555 325 651 443 659 c 0
 449 660 453 662 454 665 c 2
 466 691 l 10
 472 704 486 708 498 708 c 24
 505 708 508 699 505 691 c 18
 493 665 l 2
 492 662 493 659 497 658 c 0
 533 655 553 647 566 644 c 8
 576 642 577 632 576 622 c 0
 571 588 567 550 556 515 c 0
 553 506 544 490 539 490 c 0
 534 490 522 500 523 515 c 0
 526 575 504 605 478 618 c 0
 476 619 473 615 472 613 c 2
 376 386 l 2
 370 371 375 376 383 367 c 0
432 627 m 0
 377 622 322 569 306 517 c 0
 293 476 313 440 339 411 c 0
 341 410 341 409 343 409 c 0
 345 409 347 411 348 413 c 2
 436 619 l 2
 438 624 437 627 432 627 c 0
EndSplineSet
Validated: 33
EndChar

StartChar: equal
Encoding: 29 61 99
Width: 590
Flags: W
HStem: 143 50<53.1042 534.648> 314 50<53.1042 534.648>
LayerCount: 2
Fore
SplineSet
74 193 m 2
 527 193 l 2
 534 193 543 186 540 179 c 0
 534 162 528 143 509 143 c 2
 64 143 l 2
 57 143 50 149 50 155 c 0
 50 164 56 193 74 193 c 2
74 364 m 2
 527 364 l 2
 534 364 543 357 540 350 c 0
 534 333 528 314 509 314 c 2
 64 314 l 2
 57 314 50 320 50 326 c 0
 50 335 56 364 74 364 c 2
EndSplineSet
Validated: 1
EndChar

StartChar: plus
Encoding: 11 43 100
Width: 590
Flags: W
HStem: -8 21G<279 286.5> 222 50<53.1042 270 330 544.648>
VStem: 270 60<-4.10672 222 272.011 475.117>
LayerCount: 2
Fore
SplineSet
330 278 m 2
 330 271 331 272 334 272 c 2
 537 272 l 2
 544 272 553 265 550 258 c 0
 544 241 538 222 519 222 c 2
 334 222 l 2
 331 222 330 221 330 218 c 2
 330 16 l 2
 330 -5 291 -8 282 -8 c 0
 276 -8 270 -1 270 6 c 2
 270 217 l 2
 270 220 269 222 266 222 c 2
 64 222 l 2
 57 222 50 228 50 234 c 0
 50 243 56 272 74 272 c 2
 263 272 l 2
 269 272 270 274 270 280 c 2
 270 451 l 2
 270 473 310 482 316 482 c 0
 323 482 330 476 330 469 c 2
 330 278 l 2
EndSplineSet
Validated: 1
EndChar

StartChar: less
Encoding: 28 60 101
Width: 590
Flags: W
HStem: -6 21G<525.5 529>
LayerCount: 2
Fore
SplineSet
133 229 m 2
 513 55 l 2
 532 46 537 16 537 7 c 0
 537 2 532 -6 526 -6 c 0
 525 -6 524 -5 523 -5 c 2
 94 195 l 2
 77 203 53 216 53 222 c 0
 53 231 66 259 86 268 c 2
 523 468 l 2
 524 468 525 469 526 469 c 0
 532 469 538 460 536 454 c 0
 530 433 525 417 505 408 c 2
 132 234 l 2
 129 233 130 230 133 229 c 2
EndSplineSet
Validated: 1
EndChar

StartChar: greater
Encoding: 30 62 102
Width: 590
Flags: W
HStem: -6 21G<61 64.5>
LayerCount: 2
Fore
SplineSet
457 234 m 2
 77 408 l 2
 58 417 53 447 53 456 c 0
 53 461 58 469 64 469 c 0
 65 469 66 468 67 468 c 2
 496 268 l 2
 513 260 537 247 537 241 c 0
 537 232 524 204 504 195 c 2
 67 -5 l 2
 66 -5 65 -6 64 -6 c 0
 58 -6 52 3 54 9 c 0
 60 30 65 46 85 55 c 2
 458 229 l 2
 461 230 460 233 457 234 c 2
EndSplineSet
Validated: 1
EndChar

StartChar: underscore
Encoding: 63 95 103
Width: 465
VWidth: 0
Flags: W
HStem: -182 50<-43.6469 410.585>
LayerCount: 2
Fore
SplineSet
-18 -132 m 26
 413 -132 l 26
 420 -132 424 -139 420 -146 c 24
 409 -163 398 -182 381 -182 c 26
 -43 -182 l 26
 -50 -182 -54 -176 -52 -170 c 0
 -49 -161 -34 -132 -18 -132 c 26
EndSplineSet
Validated: 1
EndChar

StartChar: endash
Encoding: 995 8211 104
Width: 509
VWidth: 0
Flags: W
HStem: 185 54<115.668 521.889>
LayerCount: 2
Fore
SplineSet
141 239 m 30
 525 239 l 26
 532 239 537 232 533 225 c 24
 522 206 511 185 492 185 c 26
 115 185 l 30
 108 185 104 191 106 197 c 4
 109 206 123 239 141 239 c 30
EndSplineSet
Validated: 1
EndChar

StartChar: emdash
Encoding: 996 8212 105
Width: 881
VWidth: 0
Flags: W
HStem: 185 54<115.668 893.889>
LayerCount: 2
Fore
SplineSet
141 239 m 26
 897 239 l 26
 904 239 909 232 905 225 c 24
 894 206 883 185 864 185 c 26
 115 185 l 26
 108 185 104 191 106 197 c 0
 109 206 123 239 141 239 c 26
EndSplineSet
Validated: 1
EndChar

StartChar: bar
Encoding: 92 124 106
Width: 260
Flags: W
HStem: -289 21G<109 116.5>
VStem: 100 60<-285.107 700.117>
LayerCount: 2
Fore
SplineSet
100 676 m 2
 100 698 140 707 146 707 c 0
 153 707 160 701 160 694 c 2
 160 -265 l 2
 160 -286 121 -289 112 -289 c 0
 106 -289 100 -282 100 -275 c 2
 100 676 l 2
EndSplineSet
Validated: 1
EndChar

StartChar: brokenbar
Encoding: 101 166 107
Width: 260
Flags: W
HStem: -290 21G<109 116.5> 276 21G<109 116.5> 685 20G<143 149.5>
VStem: 100 60<-286.107 171.668 282.519 698.117>
LayerCount: 2
Fore
SplineSet
112 276 m 0
 106 276 100 289 100 299 c 2
 100 674 l 2
 100 696 140 705 146 705 c 0
 153 705 160 699 160 692 c 2
 160 297 l 2
 160 287 121 276 112 276 c 0
146 179 m 0
 153 179 160 167 160 157 c 2
 160 -266 l 2
 160 -287 121 -290 112 -290 c 0
 106 -290 100 -283 100 -276 c 2
 100 156 l 2
 100 166 140 179 146 179 c 0
EndSplineSet
Validated: 1
EndChar

StartChar: parenleft
Encoding: 8 40 108
Width: 291
VWidth: 0
Flags: W
HStem: 685 20G<436.5 444.5>
LayerCount: 2
Fore
SplineSet
119 269 m 0
 171 439 324 623 412 694 c 0
 419 700 432 705 441 705 c 0
 448 705 452 703 455 698 c 8
 457 694 456 686 451 682 c 0
 363 611 230 451 178 281 c 0
 126 111 142 -115 186 -186 c 0
 188 -190 185 -198 179 -204 c 16
 173 -210 162 -214 154 -214 c 0
 148 -214 144 -212 141 -207 c 0
 97 -136 67 99 119 269 c 0
EndSplineSet
Validated: 33
EndChar

StartChar: parenright
Encoding: 9 41 109
Width: 292
VWidth: 0
Flags: W
HStem: 684 20G<270.5 281.5>
LayerCount: 2
Fore
SplineSet
333 281 m 0
 281 111 101 -136 13 -207 c 0
 8 -211 3 -213 -4 -213 c 0
 -21 -213 -36 -200 -19 -186 c 0
 69 -115 220 97 272 267 c 0
 324 437 294 611 250 682 c 0
 241 697 264 704 277 704 c 24
 286 704 292 701 296 694 c 0
 340 623 385 451 333 281 c 0
EndSplineSet
Validated: 33
EndChar

StartChar: asciitilde
Encoding: 94 126 110
Width: 500
Flags: W
HStem: 260 73<254.041 377.762> 308 73<121.948 238.491>
LayerCount: 2
Fore
SplineSet
50 279 m 0x40
 71 318 130 381 175 381 c 0x40
 221 381 271 333 337 333 c 0
 364 333 420 358 437 380 c 0
 438 381 439 382 440 382 c 0
 445 382 453 367 450 362 c 0
 436 335 374 260 325 260 c 0x80
 277 260 212 308 158 308 c 0
 135 308 81 279 65 261 c 0
 60 256 47 273 50 279 c 0x40
EndSplineSet
Validated: 1
EndChar

StartChar: tildecomb
Encoding: 446 771 111
Width: 332
VWidth: 0
Flags: W
HStem: 481 73<284.15 405.216> 497 73<251.321 373.081>
VStem: 193 269
AnchorPoint: "top_accent" 164 533 mark 0
LayerCount: 2
Fore
SplineSet
193 483 m 0x60
 224 522 259 570 301 570 c 0x60
 344 570 354 554 392 554 c 16
 416 554 433 569 456 591 c 0
 457 592 458 593 459 593 c 0
 464 593 466 578 462 573 c 0
 441 546 404 481 358 481 c 0xa0
 313 481 313 497 263 497 c 0
 242 497 222 483 202 465 c 0
 201 464 200 464 199 464 c 0
 194 464 189 478 193 483 c 0x60
EndSplineSet
Validated: 1
EndChar

StartChar: periodcentered
Encoding: 118 183 113
Width: 184
VWidth: 0
Flags: W
HStem: 150 110<125.26 184.74>
VStem: 104 102<171.203 238.797>
LayerCount: 2
Fore
SplineSet
172 260 m 24
 200 260 215 235 206 205 c 24
 197 175 166 150 138 150 c 24
 110 150 95 175 104 205 c 24
 113 235 144 260 172 260 c 24
EndSplineSet
Validated: 33
EndChar

StartChar: guillemotright
Encoding: 122 187 116
Width: 624
VWidth: 0
Flags: W
HStem: 380 20G<214.5 225 412.5 422>
VStem: 211 29<364.339 397.374> 408 29<364.339 397.374>
LayerCount: 2
Fore
SplineSet
303 217 m 0
 272 251 237 291 211 376 c 0
 208 386 211 400 218 400 c 0
 220 400 l 0
 230 397 235 388 240 382 c 0
 284 316 324 279 400 218 c 0
 406 213 389 188 375 182 c 0
 312 155 225 104 140 37 c 0
 132 31 121 22 109 19 c 0
 108 19 108 19 107 19 c 0
 100 19 99 30 108 40 c 0
 186 125 248 169 299 203 c 0
 308 209 309 211 303 217 c 0
501 217 m 0
 470 251 434 291 408 376 c 0
 405 386 409 400 416 400 c 0
 417 400 l 0
 427 397 432 388 437 382 c 0
 481 316 522 279 598 218 c 0
 604 213 587 188 573 182 c 0
 510 155 423 104 338 37 c 0
 330 31 318 22 306 19 c 0
 305 19 305 19 304 19 c 0
 297 19 296 30 305 40 c 0
 383 125 445 169 496 203 c 0
 505 209 507 211 501 217 c 0
EndSplineSet
Validated: 33
EndChar

StartChar: guillemotleft
Encoding: 106 171 117
Width: 624
VWidth: 0
Flags: W
HStem: 380 20G<446 457 643 651>
VStem: 310 34<20.261 58.3997> 507 34<20.261 59.1859>
LayerCount: 2
Fore
SplineSet
454 217 m 0
 445 211 444 209 450 203 c 0
 481 169 515 125 541 40 c 0
 544 30 536 19 529 19 c 0
 528 19 528 19 527 19 c 0
 517 22 511 31 507 37 c 0
 463 104 408 155 361 182 c 0
 351 188 349 213 358 218 c 0
 472 279 534 316 618 382 c 0
 625 388 637 397 649 400 c 0
 651 400 l 0
 657 400 653 386 644 376 c 0
 566 291 505 251 454 217 c 0
257 217 m 0
 248 211 247 209 253 203 c 0
 284 169 318 125 344 40 c 0
 347 30 339 19 332 19 c 0
 331 19 331 19 330 19 c 0
 320 22 314 31 310 37 c 0
 266 104 210 155 163 182 c 0
 153 188 151 213 160 218 c 0
 274 279 337 316 421 382 c 0
 428 388 440 397 452 400 c 0
 454 400 l 0
 460 400 456 386 447 376 c 0
 369 291 308 251 257 217 c 0
EndSplineSet
Validated: 33
EndChar

StartChar: guilsinglright
Encoding: 1019 8250 118
Width: 427
VWidth: 0
Flags: W
HStem: 380 20G<214.5 225>
VStem: 211 29<364.339 397.374>
LayerCount: 2
Fore
SplineSet
303 217 m 0
 272 251 237 291 211 376 c 0
 208 386 211 400 218 400 c 0
 220 400 l 0
 230 397 235 388 240 382 c 0
 284 316 324 279 400 218 c 0
 406 213 389 188 375 182 c 0
 312 155 225 104 140 37 c 0
 132 31 121 22 109 19 c 0
 108 19 108 19 107 19 c 0
 100 19 99 30 108 40 c 0
 186 125 248 169 299 203 c 0
 308 209 309 211 303 217 c 0
EndSplineSet
Validated: 33
EndChar

StartChar: guilsinglleft
Encoding: 1018 8249 119
Width: 427
VWidth: 0
Flags: W
HStem: 380 20G<446 454>
VStem: 310 34<20.261 58.3997>
LayerCount: 2
Fore
SplineSet
257 217 m 0
 248 211 247 209 253 203 c 0
 284 169 318 125 344 40 c 0
 347 30 339 19 332 19 c 0
 331 19 331 19 330 19 c 0
 320 22 314 31 310 37 c 0
 266 104 210 155 163 182 c 0
 153 188 151 213 160 218 c 0
 274 279 337 316 421 382 c 0
 428 388 440 397 452 400 c 0
 454 400 l 0
 460 400 456 386 447 376 c 0
 369 291 308 251 257 217 c 0
EndSplineSet
Validated: 33
EndChar

StartChar: uni00AD
Encoding: 108 173 120
Width: 253
VWidth: 0
Flags: W
HStem: 170 85
VStem: 80 223
LayerCount: 2
Fore
SplineSet
88 170 m 0
 87 170 85 170 84 170 c 0
 79 170 79 172 80 176 c 8
 89 198 102 229 112 230 c 0
 174 239 236 248 298 255 c 0
 302 255 304 253 303 249 c 0
 293 224 282 197 267 195 c 0
 208 186 150 177 88 170 c 0
EndSplineSet
Validated: 1
EndChar

StartChar: uni0306
Encoding: 449 774 121
Width: 310
VWidth: 0
Flags: W
HStem: 461 55<271.501 365.695>
VStem: 233 31<527.234 599.434> 403 29<562.239 597.942>
AnchorPoint: "top_accent" 169 533 mark 0
LayerCount: 2
Fore
SplineSet
264 580 m 0
 269 558 258 516 314 516 c 0
 370 516 384 558 403 580 c 0
 410 589 416 601 425 601 c 0
 434 601 436 590 432 577 c 0
 412 513 362 461 297 461 c 0
 232 461 210 502 233 577 c 0
 237 590 245 601 254 601 c 0
 263 601 262 589 264 580 c 0
EndSplineSet
Validated: 33
EndChar

StartChar: uni0307
Encoding: 450 775 122
Width: 218
VWidth: 0
Flags: W
HStem: 513 101<246.713 305.547>
VStem: 229 93<530.122 596.715>
AnchorPoint: "top_accent" 111 550 mark 0
LayerCount: 2
Fore
SplineSet
229 563 m 4
 238 592 265 614 291 614 c 4
 318 614 331 592 322 563 c 4
 313 535 287 513 260 513 c 4
 234 513 220 535 229 563 c 4
EndSplineSet
Validated: 33
EndChar

StartChar: uni030A
Encoding: 453 778 123
Width: 219
VWidth: 0
Flags: W
HStem: 480 28<237.962 291.489> 619 28<257.704 312.078>
AnchorPoint: "top_accent" 111 550 mark 0
LayerCount: 2
Fore
SplineSet
304 647 m 0
 345 647 369 613 356 569 c 0
 343 525 289 480 248 480 c 0
 207 480 185 519 198 563 c 0
 211 607 263 647 304 647 c 0
234 568 m 0
 224 535 237 508 263 508 c 0
 289 508 309 534 318 562 c 0
 327 590 313 619 287 619 c 0
 261 619 243 596 234 568 c 0
EndSplineSet
Validated: 33
EndChar

StartChar: uni030B
Encoding: 454 779 124
Width: 353
VWidth: 0
Flags: W
HStem: 440 233
AnchorPoint: "top_accent" 129 550 mark 0
LayerCount: 2
Fore
SplineSet
333 462 m 4
 326 454 314 445 302 441 c 5
 301 440 300 440 299 440 c 4
 293 440 292 450 299 460 c 4
 356 551 359 549 429 645 c 4
 442 664 461 669 482 672 c 20
 486 672 490 673 494 673 c 4
 508 673 519 669 524 657 c 12
 528 645 513 633 500 622 c 4
 446 574 375 505 333 462 c 4
216 462 m 4
 209 454 197 445 185 441 c 5
 184 440 183 440 182 440 c 4
 176 440 175 450 182 460 c 4
 239 551 242 549 312 645 c 4
 325 664 344 669 365 672 c 20
 369 672 373 673 377 673 c 4
 391 673 401 669 406 657 c 12
 410 645 396 633 383 622 c 4
 329 574 258 505 216 462 c 4
EndSplineSet
Validated: 33
EndChar

StartChar: uni0312
Encoding: 460 786 125
Width: 199
VWidth: 0
Flags: W
HStem: 426 78<242.317 282.366>
LayerCount: 2
Fore
SplineSet
260 504 m 0
 287 504 298 484 291 462 c 0
 286 446 264 426 237 426 c 0
 192 426 172 467 189 523 c 0
 209 587 294 644 342 646 c 0
 343 646 343 646 344 646 c 0
 365 646 361 629 341 625 c 0
 298 616 259 584 247 554 c 0
 238 532 241 504 260 504 c 0
EndSplineSet
Validated: 33
EndChar

StartChar: uni0313
Encoding: 461 787 126
Width: 199
VWidth: 0
Flags: W
HStem: 426 21G<180 206> 568 78<218.909 269.185>
VStem: 210 117<569.189 632.522>
AnchorPoint: "top_accent" 92 550 mark 0
LayerCount: 2
Fore
SplineSet
241 568 m 0
 214 569 203 588 210 610 c 0
 215 626 238 646 265 646 c 0
 310 646 344 605 327 549 c 0
 307 485 230 428 182 426 c 0
 181 426 181 426 180 426 c 0
 159 426 163 443 183 447 c 0
 226 456 257 488 269 518 c 0
 278 540 270 566 241 568 c 0
EndSplineSet
Validated: 33
EndChar

StartChar: uni0314
Encoding: 462 788 127
Width: 199
VWidth: 0
Flags: W
HStem: 426 21<256.636 286.468> 568 78<256.181 339.393>
LayerCount: 2
Fore
SplineSet
295 568 m 0
 276 568 243 540 236 518 c 0
 227 488 242 456 279 447 c 0
 297 443 289 426 267 426 c 0
 220 426 176 479 197 549 c 0
 214 605 274 646 319 646 c 0
 346 646 356 626 351 610 c 0
 344 588 322 568 295 568 c 0
EndSplineSet
Validated: 33
EndChar

StartChar: uni0328
Encoding: 467 808 128
Width: 359
VWidth: 0
Flags: W
HStem: -287 66<81.5 179.162>
AnchorPoint: "ogonek" 284 18 mark 0
LayerCount: 2
Fore
SplineSet
256 18 m 9
 280 18 l 17
 199 -39 150 -66 123 -155 c 8
 113 -189 124 -221 156 -221 c 16
 189 -221 234 -182 244 -177 c 8
 250 -174 255 -175 253 -183 c 8
 247 -201 234 -218 227 -227 c 0
 205 -253 156 -287 110 -287 c 8
 53 -287 26 -234 45 -173 c 16
 69 -93 158 -39 256 18 c 9
EndSplineSet
Validated: 33
EndChar

StartChar: uni0326
Encoding: 465 806 129
Width: 199
VWidth: 0
Flags: W
HStem: -275 218
AnchorPoint: "below_accent" 86 -100 mark 0
LayerCount: 2
Fore
SplineSet
36 -145 m 0
 17 -140 -3 -122 4 -100 c 0
 11 -76 33 -57 60 -57 c 0
 105 -57 129 -98 112 -154 c 0
 92 -218 32 -264 -18 -274 c 0
 -21 -275 -23 -275 -25 -275 c 0
 -40 -275 -37 -259 -18 -253 c 0
 23 -239 47 -202 56 -174 c 0
 61 -157 52 -149 36 -145 c 0
EndSplineSet
Validated: 33
EndChar

StartChar: Ccedilla
Encoding: 134 199 136
Width: 616
VWidth: 0
Flags: W
HStem: -275 53<222.019 307.032> -15 40<304.746 362> 624 39<472.322 647.071>
VStem: 697 23<472.65 535.832>
LayerCount: 2
Fore
SplineSet
583 663 m 0
 613 663 663 657 678 651 c 0
 693 645 729 638 743 633 c 0
 750 631 749 617 746 603 c 0
 740 572 735 546 720 494 c 0
 718 485 712 470 703 471 c 0
 693 472 694 479 697 502 c 1
 705 542 688 570 680 581 c 0
 674 591 635 624 549 624 c 0
 413 624 282 481 237 334 c 0
 189 177 236 25 381 25 c 0
 417 25 465 40 508 62 c 0
 551 85 576 119 586 137 c 0
 593 149 609 152 615 156 c 0
 616 157 616 157 617 157 c 0
 622 157 619 140 614 130 c 0
 603 105 566 50 545 27 c 0
 538 19 526 16 500 5 c 0
 475 -6 435 -11 394 -14 c 1
 356 -54 l 2
 349 -61 357 -68 361 -70 c 0
 383 -82 409 -112 395 -159 c 0
 374 -227 281 -275 239 -275 c 0
 220 -275 212 -275 208 -262 c 0
 203 -249 209 -237 219 -221 c 0
 223 -214 230 -207 235 -210 c 0
 253 -220 275 -222 287 -222 c 0
 303 -222 329 -212 338 -183 c 0
 345 -159 342 -133 310 -131 c 0
 304 -131 296 -132 288 -132 c 0
 278 -132 269 -130 267 -122 c 0
 266 -117 272 -105 277 -100 c 2
 362 -15 l 1
 338 -15 l 2
 173 -15 86 132 140 310 c 0
 200 507 401 663 583 663 c 0
EndSplineSet
Validated: 33
EndChar

StartChar: ccedilla
Encoding: 166 231 160
Width: 348
VWidth: 0
Flags: W
HStem: -274 49<57.5473 120.865> 376 37<263.527 352.423>
LayerCount: 2
Fore
SplineSet
104 -129 m 0
 103 -129 103 -129 102 -129 c 0
 95 -129 85 -118 98 -104 c 2
 187 -14 l 1
 183 -14 178 -14 174 -14 c 0
 86 -14 54 77 85 180 c 0
 122 303 233 413 340 413 c 0
 377 413 415 402 430 365 c 0
 436 349 416 333 400 323 c 0
 396 320 391 319 387 319 c 0
 379 319 371 324 369 329 c 0
 351 365 345 376 302 376 c 0
 239 376 183 299 161 226 c 0
 132 130 158 38 241 38 c 0
 277 38 299 54 332 88 c 0
 335 91 338 93 341 93 c 0
 347 93 351 85 347 77 c 0
 331 49 280 7 219 -8 c 1
 185 -43 l 2
 176 -52 181 -61 185 -63 c 0
 209 -77 226 -106 216 -139 c 0
 192 -219 97 -274 66 -274 c 0
 54 -274 51 -271 49 -262 c 0
 47 -249 50 -239 57 -224 c 0
 60 -217 68 -212 73 -215 c 0
 84 -221 93 -225 112 -225 c 0
 134 -225 151 -206 159 -180 c 0
 170 -144 147 -129 118 -127 c 0
 112 -127 109 -127 104 -129 c 0
EndSplineSet
Validated: 33
EndChar

StartChar: idieresis
Encoding: 174 239 168
Width: 234
VWidth: 0
Flags: W
HStem: -14 55<49 133.45> 513 100<195.631 247.369 317.631 369.642>
VStem: 24 72.8301<14.7369 107.25> 177 89<531.342 594.658> 299 89<531.342 594.658>
LayerCount: 2
Fore
SplineSet
359 613 m 0
 381 613 396 588 388 563 c 0
 380 538 351 513 329 513 c 0
 307 513 291 538 299 563 c 0
 307 588 337 613 359 613 c 0
237 613 m 0
 259 613 274 588 266 563 c 0
 258 538 228 513 206 513 c 0
 184 513 169 538 177 563 c 0
 185 588 215 613 237 613 c 0
EndSplineSet
Refer: 76 305 N 1 0 0 1 0 0 3
Validated: 33
EndChar

StartChar: Aogonek
Encoding: 195 260 183
Width: 638
VWidth: 0
Flags: W
HStem: -287 71<332.5 428.645> -5 33<0.425468 69.5912 204.73 251.899 371.319 435.936 596.939 651.899> 244 43<320.453 490.947>
VStem: 491 78<86.745 244 287 558.996>
AnchorPoint: "top_accent" 363 700 basechar 0
AnchorPoint: "ogonek" 508 18 basechar 0
AnchorPoint: "below_accent" 358 -100 basechar 0
AnchorPoint: "cedilla" 124 8 basechar 0
LayerCount: 2
Fore
SplineSet
140 1 m 0
 98 1 52 -5 21 -5 c 0
 5 -5 -5 -2 -3 6 c 0
 0 15 12 21 35 28 c 0
 70 38 121 76 157 126 c 0
 279 297 341 393 460 578 c 0
 466 587 472 596 478 608 c 24
 484 619 488 635 490 636 c 0
 502 640 510 642 522 647 c 0
 538 654 561 676 566 676 c 0
 571 676 571 671 571 662 c 2
 569 146 l 2
 569 65 595 36 627 26 c 0
 647 20 655 15 652 6 c 0
 650 -2 638 -5 622 -5 c 0
 601 -5 568 2 519 2 c 1
 451 -47 396 -87 375 -155 c 0
 364 -190 385 -216 418 -216 c 0
 451 -216 496 -181 506 -176 c 0
 512 -173 517 -174 515 -182 c 0
 511 -195 502 -205 495 -214 c 0
 473 -240 408 -287 362 -287 c 0
 303 -287 271 -237 290 -174 c 0
 313 -100 363 -62 477 1 c 1
 445 0 422 0 394 0 c 0
 378 0 369 3 371 11 c 0
 374 20 390 26 408 31 c 0
 436 39 468 59 478 118 c 0
 484 157 489 191 492 233 c 0
 492 243 488 244 469 244 c 2
 291 244 l 10
 282 244 278 240 270 226 c 2
 204 112 l 2
 182 75 196 39 228 30 c 0
 248 24 255 19 252 10 c 0
 250 2 238 -1 222 -1 c 0
 205 -1 174 1 140 1 c 0
475 542 m 2
 318 302 l 2
 309 288 316 287 332 287 c 2
 476 287 l 2
 490 287 490 288 491 302 c 2
 491 541 l 2
 491 553 491 559 489 559 c 0
 487 559 482 553 475 542 c 2
EndSplineSet
Validated: 33
EndChar

StartChar: aogonek
Encoding: 196 261 184
Width: 349
VWidth: 0
Flags: W
HStem: -262 60<147.5 226.771> -14 46<84 179.042> 365 49<253.759 348>
LayerCount: 2
Fore
SplineSet
185 -143 m 0
 172 -187 192 -202 212 -202 c 0
 237 -202 260 -187 270 -179 c 0
 274 -176 281 -185 278 -191 c 0
 262 -217 210 -262 166 -262 c 0
 129 -262 94 -241 117 -167 c 0
 135 -108 193 -59 268 -14 c 1
 226 -9 233 38 226 38 c 0
 215 38 174 -13 102 -14 c 0
 66 -14 38 26 50 65 c 0
 63 107 93 135 142 155 c 2
 244 197 l 2
 270 208 272 210 281 237 c 2
 301 299 l 2
 313 334 302 365 270 365 c 0
 249 365 218 347 207 333 c 0
 200 324 197 312 194 300 c 0
 191 286 143 270 122 264 c 0
 116 262 116 274 123 285 c 0
 139 310 146 321 175 343 c 0
 211 371 280 414 327 414 c 0
 369 414 387 372 372 325 c 2
 302 109 l 2
 291 76 283 32 309 32 c 0
 324 32 336 36 348 46 c 0
 356 53 363 44 357 34 c 0
 355 30 327 7 306 -4 c 8
 247 -34 196 -108 185 -143 c 0
128 87 m 0
 116 49 137 32 154 32 c 0
 177 32 196 45 214 59 c 0
 222 65 229 74 237 99 c 1
 254 148 l 2
 259 163 257 168 250 168 c 0
 247 168 244 167 239 166 c 0
 166 144 135 110 128 87 c 0
EndSplineSet
Validated: 33
EndChar

StartChar: dcaron
Encoding: 206 271 194
Width: 483
VWidth: 0
Flags: W
HStem: -14 32<61.22 142.669> 389 31<280.074 348.024> 685 20<529 537.5>
VStem: 10 70<18.6526 140.602> 303 197<36 110>
LayerCount: 2
Fore
SplineSet
556 535 m 0
 572 576 577 590 590 654 c 0
 593 668 608 683 618 690 c 0
 636 702 639 705 653 705 c 0
 666 705 662 682 653 661 c 0
 623 592 604 567 581 537 c 0
 572 525 558 512 554 512 c 0
 550 512 552 526 556 535 c 0
EndSplineSet
Refer: 11 100 N 1 0 0 1 0 0 2
Validated: 33
EndChar

StartChar: Eogonek
Encoding: 215 280 201
Width: 526
VWidth: 0
Flags: W
HStem: -287 71<236.5 332.662> -5 29<15.6976 95.063> 2 33<223.791 371.821> 320 32<299.999 422.401> 388 20G<487.5 492.5> 618 35<215.101 280.506 382.522 577.561>
VStem: 432 28<252.012 307.756> 590 23<532.38 586.708>
LayerCount: 2
Fore
SplineSet
345 320 m 0xdf
 344 320 l 0
 321 320 282 320 275 291 c 1
 256 230 239 170 223 113 c 0
 211 72 216 35 258 35 c 2
 355 35 l 2xbf
 360 35 416 43 431 53 c 0
 452 67 476 99 489 116 c 0
 495 124 498 126 505 126 c 0
 511 125 517 121 514 114 c 0
 498 75 484 44 467 12 c 0
 463 4 457 -5 448 -5 c 2
 405 -5 l 1xdf
 343 -51 300 -90 280 -155 c 0
 269 -190 289 -216 322 -216 c 0
 355 -216 401 -181 411 -176 c 0
 417 -173 422 -174 420 -182 c 0
 416 -195 406 -205 399 -214 c 0
 377 -240 312 -287 266 -287 c 0
 207 -287 176 -237 195 -174 c 0
 217 -102 264 -64 372 -4 c 1
 292 -2 219 2 147 2 c 8xbf
 105 2 87 -5 37 -5 c 0
 21 -5 12 -2 14 6 c 0
 17 15 27 20 50 24 c 0
 99 33 127 51 142 99 c 2
 279 549 l 2
 294 597 283 613 239 622 c 0
 219 626 212 633 215 642 c 0
 217 650 229 653 245 653 c 0
 295 653 303 650 341 650 c 16
 438 650 563 653 607 653 c 0
 612 653 617 653 620 653 c 0
 627 653 635 651 634 644 c 0
 629 606 623 576 613 541 c 0
 611 535 604 532 598 532 c 0
 591 532 590 535 590 542 c 0
 590 564 589 581 584 591 c 0
 573 612 553 618 530 618 c 2
 408 618 l 2
 398 618 383 604 377 592 c 0
 363 565 348 527 336 487 c 0
 324 448 310 408 300 374 c 0
 297 363 294 352 303 352 c 2
 399 352 l 2
 426 352 452 368 468 391 c 0
 471 396 485 408 490 408 c 0
 495 408 501 401 497 392 c 0
 476 340 473 320 460 269 c 0
 457 260 453 252 446 252 c 0
 434 252 432 268 432 275 c 0
 432 306 414 312 400 314 c 0
 379 318 362 320 345 320 c 0xdf
EndSplineSet
Validated: 33
EndChar

StartChar: eogonek
Encoding: 216 281 202
Width: 348
VWidth: 0
Flags: W
HStem: -287 66<87.5 180.07> -14 60<170.319 244.734> 267 29<194 340.057> 384 29<262.931 356.337>
LayerCount: 2
Fore
SplineSet
85 188 m 0
 133 344 239 413 339 413 c 0
 392 413 438 387 418 322 c 0
 411 300 403 282 389 275 c 0
 375 268 352 267 330 267 c 2
 174 265 l 2
 160 265 157 249 149 222 c 0
 125 145 144 46 224 46 c 0
 254 46 283 51 325 90 c 0
 327 92 330 93 332 93 c 0
 339 93 343 79 336 71 c 0
 318 48 296 27 271 11 c 1
 199 -41 156 -70 130 -155 c 0
 120 -189 129 -221 159 -221 c 0
 189 -221 233 -182 242 -177 c 0
 247 -174 252 -175 250 -183 c 0
 244 -201 232 -218 225 -227 c 0
 204 -253 158 -287 114 -287 c 0
 61 -287 36 -234 55 -173 c 0
 75 -107 135 -59 208 -12 c 1
 200 -13 191 -14 181 -14 c 0
 102 -14 48 68 85 188 c 0
191 311 m 0
 180 297 188 296 194 296 c 2
 264 296 l 2
 293 296 321 297 341 305 c 0
 354 310 360 330 362 337 c 0
 372 374 340 384 314 384 c 0
 265 384 223 350 191 311 c 0
EndSplineSet
Validated: 33
EndChar

StartChar: Iogonek
Encoding: 237 302 221
Width: 327
VWidth: 0
Flags: W
HStem: -287 71<21.5 117.662> -3 25<37.7731 91.0817 264.977 306.903> 632 20G<247 279>
LayerCount: 2
Fore
SplineSet
41 -3 m 0
 30 -3 32 19 49 22 c 0
 79 28 101 35 130 57 c 0
 149 72 157 87 164 109 c 2
 301 557 l 2
 307 575 299 584 291 596 c 0
 277 614 263 620 244 630 c 0
 236 634 243 652 251 652 c 0
 307 652 317 649 361 649 c 0
 408 649 429 652 483 652 c 0
 494 652 486 634 476 630 c 0
 451 620 429 613 404 595 c 0
 391 586 380 574 375 557 c 2
 238 109 l 2
 231 87 230 72 240 57 c 0
 256 35 273 28 300 22 c 0
 307 20 309 14 307 8 c 0
 305 2 299 -3 292 -3 c 0
 243 -3 218 1 173 2 c 1
 113 -48 85 -87 64 -155 c 0
 53 -190 74 -216 107 -216 c 0
 140 -216 186 -181 196 -176 c 0
 202 -173 207 -174 205 -182 c 0
 201 -195 191 -205 184 -214 c 0
 162 -240 97 -287 51 -287 c 0
 -8 -287 -39 -237 -20 -174 c 0
 2 -102 62 -47 140 2 c 1
 106 0 83 -3 41 -3 c 0
EndSplineSet
Validated: 33
EndChar

StartChar: iogonek
Encoding: 238 303 222
Width: 201
VWidth: 0
Flags: W
HStem: -287 66<-18 69.1457> -3 24<32.5858 72.6762 160.93 184.812> 513 101<248.256 304.195>
VStem: 231 90<530.122 596.715>
LayerCount: 2
Fore
SplineSet
223 275 m 0
 207 225 175 127 161 77 c 0
 156 61 154 46 160 34 c 0
 165 24 185 25 190 21 c 0
 188 16 183 -3 183 -3 c 0
 158 -3 148 0 133 1 c 1
 84 -50 43 -116 31 -155 c 0
 21 -187 24 -221 52 -221 c 0
 83 -221 117 -182 126 -177 c 0
 130 -174 137 -175 135 -183 c 0
 129 -201 116 -218 109 -227 c 0
 88 -253 52 -287 8 -287 c 0
 -44 -287 -62 -232 -44 -173 c 0
 -22 -102 45 -42 104 2 c 1
 78 1 58 -3 27 -3 c 0
 27 -3 33 16 35 21 c 0
 42 25 60 22 74 34 c 0
 87 46 92 58 98 74 c 0
 106 99 118 137 130 176 c 0
 142 215 154 254 161 279 c 0
 171 315 169 345 141 352 c 0
 134 354 139 375 148 377 c 0
 198 389 230 412 267 433 c 0
 272 435 279 434 277 429 c 0
 268 406 250 361 223 275 c 0
231 563 m 0
 240 592 266 614 291 614 c 0
 317 614 330 592 321 563 c 0
 312 535 286 513 260 513 c 0
 235 513 222 535 231 563 c 0
EndSplineSet
Validated: 33
EndChar

StartChar: Lcaron
Encoding: 252 317 231
Width: 576
VWidth: 0
Flags: HW
HStem: -5 35<11.8359 111.507 232.835 516.639> 622 31<231.101 295.382 407.633 503.535>
LayerCount: 2
Fore
SplineSet
547 495 m 0
 563 536 568 550 581 614 c 0
 587 642 628 665 650 665 c 0
 664 665 659 642 650 621 c 0
 620 552 601 527 577 497 c 0
 568 485 550 472 545 472 c 0
 540 472 543 486 547 495 c 0
EndSplineSet
Refer: 36 76 N 1 0 0 1 0 0 2
Validated: 33
EndChar

StartChar: lcaron
Encoding: 253 318 232
Width: 230
VWidth: 0
Flags: W
HStem: -14 55<44 124.786>
VStem: 10 81.8301<6.29792 105.281>
LayerCount: 2
Fore
SplineSet
325 535 m 0
 341 576 347 590 360 654 c 0
 363 668 378 683 388 690 c 0
 406 702 408 705 422 705 c 0
 435 705 431 682 422 661 c 0
 392 592 374 567 351 537 c 0
 342 525 327 512 323 512 c 0
 319 512 321 526 325 535 c 0
EndSplineSet
Refer: 2 108 N 1 0 0 1 0 0 2
Validated: 33
EndChar

StartChar: Ldot
Encoding: 254 319 233
Width: 683
VWidth: 0
Flags: HW
HStem: -5 35<11.8359 111.507 232.835 516.639> 314 100<455.734 515.283> 622 31<231.101 295.382 407.633 503.535>
VStem: 439 93<331.122 396.878>
LayerCount: 2
Fore
SplineSet
500 414 m 24
 526 414 541 392 532 364 c 24
 523 336 496 314 470 314 c 24
 444 314 430 336 439 364 c 24
 448 392 474 414 500 414 c 24
EndSplineSet
Refer: 36 76 N 1 0 0 1 0 0 3
Validated: 33
EndChar

StartChar: ldot
Encoding: 255 320 234
Width: 271
VWidth: 0
Flags: W
HStem: -14 55<44 124.786> 314 100<307.355 363.674>
VStem: 10 81.8301<6.29792 105.281> 291 89<330.228 397.772>
LayerCount: 2
Fore
SplineSet
350 414 m 24
 375 414 388 392 380 364 c 24
 372 336 345 314 320 314 c 24
 295 314 283 336 291 364 c 24
 299 392 325 414 350 414 c 24
EndSplineSet
Refer: 2 108 N 1 0 0 1 0 0 2
Validated: 33
LCarets2: 1 0 
EndChar

StartChar: Scedilla
Encoding: 285 350 257
Width: 434
VWidth: 0
Flags: W
HStem: -275 53<71.0185 156.032> -19 35<153.178 206> 627 33<366.832 472.1>
VStem: 506 34<490.012 592.519>
LayerCount: 2
Fore
SplineSet
200 16 m 0
 278 16 325 50 355 148 c 0
 375 214 334 259 278 314 c 0
 229 362 188 417 212 497 c 0
 231 558 317 660 444 660 c 0
 504 660 532 647 550 644 c 0
 559 642 561 632 560 622 c 0
 555 588 551 550 540 515 c 0
 537 506 528 490 523 490 c 0
 518 490 504 500 506 515 c 0
 512 607 455 627 423 627 c 0
 365 627 305 571 288 517 c 0
 268 453 330 402 366 367 c 0
 402 331 477 273 446 171 c 0
 424 100 354 5 241 -15 c 1
 205 -54 l 2
 198 -61 205 -68 209 -70 c 0
 231 -82 258 -112 244 -159 c 0
 223 -227 130 -275 88 -275 c 0
 69 -275 61 -275 57 -262 c 0
 52 -249 58 -237 68 -221 c 0
 72 -214 79 -207 84 -210 c 0
 102 -220 124 -222 136 -222 c 0
 152 -222 178 -212 187 -183 c 0
 194 -159 191 -133 159 -131 c 0
 153 -131 145 -132 137 -132 c 0
 127 -132 117 -130 115 -122 c 0
 114 -117 121 -105 126 -100 c 2
 206 -19 l 1
 196 -19 l 2
 128 -19 105 0 76 8 c 0
 64 11 67 15 67 20 c 0
 64 43 70 122 80 158 c 0
 82 166 94 174 104 174 c 0
 114 174 103 16 200 16 c 0
EndSplineSet
Validated: 33
EndChar

StartChar: uni0162
Encoding: 289 354 261
Width: 632
VWidth: 0
Flags: W
HStem: -265 53<161.019 245.851> -3 25<181.773 235.082 409.662 449.422> 604 41<300.526 450.493 529.581 742.377> 604 34<360.618 450.379 531.735 712.079>
LayerCount: 2
Fore
SplineSet
690 604 m 0xe0
 642 604 564 602 547 600 c 0
 533 598 525 575 519 557 c 2
 382 109 l 2
 375 87 374 72 384 57 c 0
 400 35 417 28 444 22 c 0
 459 19 452 -3 437 -3 c 0
 394 -3 371 0 337 2 c 1
 295 -44 l 2
 288 -51 295 -58 299 -60 c 0
 321 -72 347 -102 333 -149 c 0
 312 -217 220 -265 178 -265 c 0
 159 -265 151 -265 147 -252 c 0
 142 -239 147 -227 157 -211 c 0
 161 -204 169 -197 174 -200 c 0
 192 -210 214 -212 226 -212 c 0
 242 -212 268 -202 277 -173 c 0
 284 -149 281 -123 249 -121 c 0
 243 -121 234 -122 226 -122 c 0
 216 -122 207 -120 205 -112 c 0
 204 -107 211 -95 216 -90 c 2
 307 2 l 1
 261 2 233 -3 185 -3 c 0
 174 -3 176 19 193 22 c 0
 223 28 245 35 274 57 c 0
 293 72 301 87 308 109 c 2
 445 557 l 2
 451 575 455 597 441 600 c 0
 425 604 404 604 373 604 c 0
 360 604 346 604 330 604 c 0xe0
 300 604 263 591 242 565 c 0
 233 554 206 527 192 527 c 0
 184 527 190 547 200 560 c 0
 228 598 245 629 263 671 c 0
 273 693 281 694 286 694 c 0
 291 694 298 673 300 662 c 0
 303 648 332 643 358 642 c 0
 414 640 460 638 505 638 c 0xd0
 570 638 632 641 716 645 c 0
 744 646 775 650 789 664 c 0
 804 679 814 686 821 686 c 0
 826 686 832 679 827 669 c 0
 808 630 786 587 776 552 c 0
 773 542 766 527 757 527 c 0
 756 527 756 527 755 527 c 0
 744 529 748 549 747 558 c 0
 744 577 750 604 690 604 c 0xe0
EndSplineSet
Validated: 33
EndChar

StartChar: tcaron
Encoding: 292 357 264
Width: 286
VWidth: 0
Flags: HW
HStem: -14 73<37.3456 134.5> 360 38<58.8539 124.133 209.865 301.495>
VStem: 20 301
LayerCount: 2
Fore
SplineSet
330 473 m 0
 346 514 352 528 365 592 c 0
 368 606 383 621 393 628 c 0
 411 640 413 643 427 643 c 0
 440 643 436 620 427 599 c 0
 397 530 379 505 356 475 c 0
 347 463 332 450 328 450 c 0
 324 450 326 464 330 473 c 0
EndSplineSet
Refer: 1 116 N 1 0 0 1 0 0 2
Validated: 33
EndChar

StartChar: Uogonek
Encoding: 305 370 275
Width: 683
VWidth: 0
Flags: W
HStem: -287 71<254 349.662> -14 50<308.237 416.711> 620 32<230.399 260.032 375.047 421.459 681.117 711.549> 628 28<817.357 857.638>
LayerCount: 2
Fore
SplineSet
348 -14 m 0xd0
 169 -14 135 128 194 322 c 2
 260 540 l 2
 279 602 259 610 232 620 c 0
 223 624 226 652 238 652 c 0
 282 652 294 649 330 649 c 0
 366 649 371 652 423 652 c 0xe0
 433 652 426 624 414 622 c 0
 373 616 351 586 332 530 c 0
 303 444 274 344 259 294 c 0
 219 162 262 36 385 36 c 0
 503 36 594 144 642 300 c 0
 655 344 692 471 702 510 c 0
 726 602 720 610 680 622 c 0
 670 625 679 654 691 654 c 2
 767 654 l 2
 809 654 817 656 859 656 c 0
 869 656 858 630 851 628 c 0
 811 617 785 598 765 546 c 0
 754 515 695 342 668 254 c 0
 632 136 544 43 445 5 c 1
 365 -51 319 -81 296 -155 c 0
 285 -190 306 -216 339 -216 c 0
 372 -216 418 -181 428 -176 c 0
 433 -173 439 -174 437 -182 c 0
 433 -195 423 -205 416 -214 c 0
 394 -240 329 -287 283 -287 c 0
 225 -287 193 -237 212 -174 c 0
 233 -106 277 -68 374 -13 c 1
 365 -14 357 -14 348 -14 c 0xd0
EndSplineSet
Validated: 33
EndChar

StartChar: uogonek
Encoding: 306 371 276
Width: 448
VWidth: 0
Flags: W
HStem: -287 66<203 296.365> -14 51<116.5 242.043> 373 24<358.049 386.503> 394 20G<222.5 252 476 497.5>
LayerCount: 2
Fore
SplineSet
290 -20 m 1xe0
 305 0 317 41 320 57 c 1
 259 6 199 -14 145 -14 c 0
 88 -14 68 27 92 105 c 2
 157 316 l 2
 166 345 155 361 132 373 c 0
 126 376 134 396 141 397 c 0xe0
 189 399 204 405 241 414 c 0
 242 414 242 414 243 414 c 0xd0
 261 414 240 388 220 323 c 2
 160 128 l 2
 145 80 168 37 206 37 c 0
 236 37 258 38 286 57 c 0
 302 68 333 91 346 132 c 2
 404 323 l 2
 417 364 358 370 353 373 c 0
 354 376 360 397 360 397 c 0
 449 402 459 409 493 419 c 0
 494 419 l 0
 501 419 505 405 498 397 c 0
 492 390 472 342 467 326 c 2
 402 114 l 2
 395 90 375 45 394 45 c 0
 403 45 436 46 446 48 c 0
 447 48 l 0
 455 48 447 22 438 21 c 0
 411 17 390 14 360 2 c 0
 297 -23 265 -95 246 -155 c 0
 236 -189 245 -221 275 -221 c 0
 306 -221 350 -182 359 -177 c 0
 364 -174 369 -175 367 -183 c 0
 353 -227 290 -287 230 -287 c 0
 176 -287 152 -234 171 -173 c 0
 189 -113 230 -65 290 -20 c 1xe0
EndSplineSet
Validated: 33
EndChar

StartChar: Ohorn
Encoding: 319 416 288
Width: 726
VWidth: 0
Flags: W
HStem: -14 39<308.088 467.934> 625 39<454.027 626.048>
LayerCount: 2
Fore
SplineSet
786 552 m 1
 792 542 l 1
 819 486 800 421 774 335 c 0
 719 155 559 -14 355 -14 c 0
 190 -14 85 130 143 320 c 0
 198 500 358 664 562 664 c 0
 693 664 735 608 771 598 c 0
 777 596 784 596 791 596 c 0
 814 596 841 604 845 618 c 0
 855 650 810 633 820 666 c 0
 828 691 874 724 894 724 c 0
 911 724 918 687 911 664 c 0
 887 587 786 552 786 552 c 1
543 625 m 0
 405 625 286 490 243 350 c 0
 191 179 241 25 379 25 c 0
 519 25 622 134 674 305 c 0
 732 495 692 625 543 625 c 0
EndSplineSet
Validated: 33
EndChar

StartChar: ohorn
Encoding: 320 417 289
Width: 426
VWidth: 0
Flags: W
HStem: -14 30<184.52 275.717> 380 34<266.756 363.662>
LayerCount: 2
Fore
SplineSet
319 380 m 0
 288 380 256 364 232 340 c 0
 200 307 179 258 164 210 c 0
 134 111 155 16 223 16 c 0
 262 16 299 33 328 72 c 0
 351 103 368 150 380 189 c 0
 409 284 392 380 319 380 c 0
489 445 m 0
 495 463 526 494 552 494 c 0
 570 494 573 476 563 442 c 0
 546 385 510 366 463 344 c 0
 462 342 460 336 459 332 c 0
 472 298 473 257 460 213 c 0
 424 96 325 -14 195 -14 c 0
 98 -14 52 86 83 186 c 0
 121 310 236 414 343 414 c 0
 368 414 388 409 402 402 c 0
 425 391 443 382 461 382 c 0
 477 382 498 389 502 403 c 0
 506 416 500 425 493 430 c 0
 489 432 487 438 489 445 c 0
EndSplineSet
Validated: 33
EndChar

StartChar: Uhorn
Encoding: 321 431 290
Width: 710
VWidth: 0
Flags: W
HStem: -14 50<308.237 448.172> 620 32<230.399 260.032 375.047 421.459 681.117 711.549>
VStem: 862 83<673.689 755.877>
LayerCount: 2
Fore
SplineSet
872 697 m 0
 861 707 856 713 862 731 c 0
 870 756 896 764 923 764 c 0
 952 764 952 736 945 713 c 0
 927 655 876 633 808 609 c 1
 790 596 777 577 765 546 c 0
 754 515 695 342 668 254 c 0
 621 99 482 -14 348 -14 c 0
 169 -14 135 128 194 322 c 2
 260 540 l 2
 279 602 259 610 232 620 c 0
 223 624 226 652 238 652 c 0
 282 652 294 649 330 649 c 0
 366 649 371 652 423 652 c 0
 433 652 426 624 414 622 c 0
 373 616 351 586 332 530 c 0
 303 444 274 344 259 294 c 0
 219 162 262 36 385 36 c 0
 503 36 594 144 642 300 c 0
 655 344 692 471 702 510 c 0
 726 602 720 610 680 622 c 0
 670 625 679 654 691 654 c 2
 767 654 l 2
 806 654 816 656 852 656 c 1
 866 660 876 665 878 671 c 0
 883 686 880 690 872 697 c 0
EndSplineSet
Validated: 33
EndChar

StartChar: uhorn
Encoding: 322 432 291
Width: 519
VWidth: 0
Flags: W
HStem: -20 57<126.947 225.889> 373 24<355.049 383.532>
LayerCount: 2
Fore
SplineSet
570 441 m 0
 575 456 572 460 565 467 c 0
 555 477 551 483 557 501 c 0
 565 526 590 534 615 534 c 0
 642 534 641 506 634 483 c 0
 616 425 568 402 503 378 c 0
 490 373 475 363 464 326 c 2
 399 114 l 2
 392 90 372 45 391 45 c 0
 400 45 433 46 443 48 c 0
 444 48 l 0
 452 48 445 22 436 21 c 0
 389 14 342 -2 313 -14 c 0
 309 -16 295 -20 290 -20 c 0
 289 -20 287 -20 287 -19 c 0
 290 -7 316 44 318 57 c 1
 258 6 196 -14 143 -14 c 0
 87 -14 68 27 92 105 c 2
 156 316 l 2
 165 345 154 361 132 373 c 0
 126 376 134 396 141 397 c 0
 189 399 204 405 241 414 c 1
 250 415 253 410 249 400 c 0
 236 369 229 353 220 323 c 2
 161 128 l 2
 146 80 168 37 205 37 c 0
 234 37 255 38 282 57 c 0
 298 68 329 91 342 132 c 2
 401 323 l 2
 414 364 355 370 350 373 c 0
 351 376 357 397 357 397 c 0
 447 402 457 409 491 419 c 0
 493 419 565 425 570 441 c 0
EndSplineSet
Validated: 33
EndChar

StartChar: uni01EA
Encoding: 360 490 314
Width: 716
VWidth: 0
Flags: W
HStem: -287 71<270 365.662> -14 39<308.088 430.799> 625 39<456.462 626.015>
LayerCount: 2
Fore
SplineSet
143 320 m 0
 198 501 361 664 569 664 c 0
 731 664 834 532 774 335 c 0
 728 185 609 42 452 -1 c 1
 372 -57 335 -80 312 -155 c 0
 301 -190 322 -216 355 -216 c 0
 388 -216 434 -181 444 -176 c 0
 449 -173 455 -174 453 -182 c 0
 449 -195 439 -205 432 -214 c 0
 410 -240 345 -287 299 -287 c 0
 241 -287 209 -237 228 -174 c 0
 249 -106 293 -68 391 -12 c 1
 379 -13 367 -14 355 -14 c 0
 190 -14 85 130 143 320 c 0
543 625 m 0
 405 625 286 490 243 350 c 0
 191 179 241 25 379 25 c 0
 519 25 622 134 674 305 c 0
 732 495 692 625 543 625 c 0
EndSplineSet
Validated: 33
EndChar

StartChar: oogonek
Encoding: 361 491 315
Width: 425
VWidth: 0
Flags: W
HStem: -287 66<122.5 214.809> -14 30<183.495 266.58> 380 34<268.299 363.66>
LayerCount: 2
Fore
SplineSet
345 414 m 0
 439 414 496 321 463 213 c 0
 439 134 386 59 314 18 c 1
 238 -39 192 -66 165 -155 c 0
 155 -189 165 -221 194 -221 c 0
 224 -221 268 -182 277 -177 c 0
 282 -174 287 -175 285 -183 c 0
 279 -201 266 -218 259 -227 c 0
 238 -253 193 -287 149 -287 c 0
 96 -287 72 -234 91 -173 c 0
 112 -105 175 -56 251 -8 c 1
 234 -12 216 -14 197 -14 c 0
 99 -14 52 86 83 186 c 0
 121 310 237 414 345 414 c 0
320 380 m 0
 289 380 256 364 232 340 c 0
 199 307 179 258 164 210 c 0
 134 111 155 16 224 16 c 0
 263 16 302 33 331 72 c 0
 354 103 371 150 383 189 c 0
 412 284 394 380 320 380 c 0
EndSplineSet
Validated: 33
EndChar

StartChar: uni0228
Encoding: 399 552 333
Width: 496
VWidth: 0
Flags: W
HStem: -275 53<140.019 225.032> -3 27<21.2818 79.8071> -2 37<222.446 293 322 430.266> 320 32<299.999 421.344> 388 20G<487.5 492.5> 618 35<382.522 577.561> 626 25<232.853 266.579>
VStem: 431 28<252.052 307.874> 590 23<532.562 586.708>
LayerCount: 2
Fore
SplineSet
345 320 m 0x9d80
 344 320 l 0
 321 320 282 320 275 291 c 1
 256 230 239 170 223 113 c 0
 211 72 216 35 258 35 c 2
 354 35 l 2xbd80
 359 35 416 43 431 53 c 0
 452 67 476 99 489 116 c 0
 495 124 498 126 505 126 c 0
 511 125 516 121 513 114 c 0
 497 75 483 44 466 12 c 0
 462 4 457 -5 448 -5 c 0
 402 -5 361 -4 322 -3 c 1xd980
 274 -54 l 2
 267 -61 275 -68 279 -70 c 0
 301 -82 327 -112 313 -159 c 0
 292 -227 199 -275 157 -275 c 0
 138 -275 130 -275 126 -262 c 0
 121 -249 127 -237 137 -221 c 0
 141 -214 148 -207 153 -210 c 0
 171 -220 193 -222 205 -222 c 0
 221 -222 247 -212 256 -183 c 0
 263 -159 260 -133 228 -131 c 0
 222 -131 214 -132 206 -132 c 0
 196 -132 187 -130 185 -122 c 0
 184 -117 190 -105 195 -100 c 2
 293 -2 l 1xb980
 244 0 199 2 152 2 c 0
 106 2 23 -3 23 -3 c 2
 19 -3 19 4 21 10 c 0
 23 16 27 23 31 24 c 0
 63 32 76 31 100 50 c 0
 124 68 138 88 146 113 c 2
 270 521 l 2
 279 549 288 583 281 595 c 0
 270 617 265 615 232 626 c 0
 224 628 231 651 240 651 c 0xdb80
 279 651 293 648 327 648 c 0
 431 649 568 653 610 653 c 0
 614 653 618 653 620 653 c 0
 627 653 635 651 634 644 c 0
 629 606 623 576 613 541 c 0
 611 535 603 532 597 532 c 0
 590 532 590 535 590 542 c 0
 590 564 589 581 584 591 c 0
 573 612 553 618 530 618 c 2
 408 618 l 2
 398 618 383 604 377 592 c 0
 363 564 347 525 335 485 c 0
 323 447 310 407 300 374 c 0
 297 363 294 352 303 352 c 2
 399 352 l 2
 426 352 452 368 468 391 c 0
 471 396 485 408 490 408 c 0
 495 408 501 401 497 392 c 0
 476 340 472 320 459 269 c 0
 456 260 453 252 446 252 c 0
 434 252 431 268 431 275 c 0
 431 306 414 312 400 314 c 0
 379 318 362 320 345 320 c 0x9d80
EndSplineSet
Validated: 33
EndChar

StartChar: uni0229
Encoding: 400 553 334
Width: 346
VWidth: 0
Flags: W
HStem: -269 50<63.5476 126.259> 265 31<194 339.057> 384 29<262.598 355.337>
LayerCount: 2
Fore
SplineSet
191 311 m 0
 180 297 188 296 194 296 c 18
 264 296 l 10
 293 296 320 297 340 305 c 8
 352 310 359 330 361 337 c 0
 371 374 339 384 313 384 c 0
 265 384 223 350 191 311 c 0
85 188 m 0
 133 344 239 413 338 413 c 0
 391 413 437 387 417 322 c 0
 410 300 402 282 388 275 c 0
 374 268 352 267 330 267 c 2
 174 265 l 2
 160 265 157 249 149 222 c 0
 125 145 143 46 223 46 c 0
 253 46 283 51 324 90 c 0
 326 92 328 93 330 93 c 0
 337 93 341 79 335 71 c 0
 303 32 263 -1 212 -11 c 1
 168 -60 l 2
 161 -67 168 -74 172 -76 c 0
 193 -88 214 -112 200 -159 c 0
 186 -205 114 -269 75 -269 c 0
 58 -269 54 -261 52 -255 c 0
 50 -249 52 -235 56 -223 c 0
 58 -215 70 -211 76 -211 c 0
 81 -211 103 -219 114 -219 c 0
 129 -219 146 -212 155 -183 c 0
 162 -159 156 -134 127 -132 c 0
 121 -132 113 -132 103 -134 c 0
 97 -135 93 -125 92 -118 c 0
 91 -113 94 -107 99 -102 c 2
 182 -14 l 2
 181 -14 180 -14 179 -14 c 0
 101 -14 48 68 85 188 c 0
EndSplineSet
Validated: 33
EndChar

StartChar: dotlessj
Encoding: 411 567 345
Width: 247
Flags: W
HStem: -283 41<-129.926 -55.6691>
AnchorPoint: "top_accent" 217 550 basechar 0
LayerCount: 2
Fore
SplineSet
114 270 m 2
 121 293 127 318 114 318 c 0
 103 318 77 309 47 295 c 0
 43 293 32 296 32 300 c 0
 32 305 33 309 41 315 c 0
 107 362 143 384 204 418 c 0
 210 421 223 425 223 414 c 0
 223 400 218 387 213 370 c 2
 72 -102 l 2
 41 -205 -52 -283 -123 -283 c 0
 -170 -283 -197 -264 -197 -245 c 0
 -197 -232 -175 -201 -161 -201 c 0
 -137 -201 -129 -242 -84 -242 c 0
 -48 -242 -25 -202 -8 -144 c 2
 114 270 l 2
EndSplineSet
Validated: 33
EndChar

StartChar: breve
Encoding: 433 728 346
Width: 4
VWidth: 0
Flags: W
HStem: 461 55<-34.4995 59.695>
VStem: -73 31<527.234 599.434> 97 29<562.239 597.942>
AnchorPoint: "top_accent" -167 531 mark 0
LayerCount: 2
Fore
SplineSet
-42 580 m 4
 -37 558 -48 516 8 516 c 4
 64 516 78 558 97 580 c 4
 104 589 110 601 119 601 c 4
 128 601 130 590 126 577 c 4
 106 513 56 461 -9 461 c 4
 -74 461 -96 502 -73 577 c 4
 -69 590 -61 601 -52 601 c 4
 -43 601 -44 589 -42 580 c 4
EndSplineSet
Validated: 33
EndChar

StartChar: dotaccent
Encoding: 434 729 347
Width: 2
VWidth: 0
Flags: W
HStem: 513 101<29.7131 88.7602>
VStem: 12 94<530.122 596.715>
AnchorPoint: "top_accent" -127 550 mark 0
LayerCount: 2
Fore
SplineSet
12 563 m 0
 21 592 48 614 74 614 c 0
 101 614 115 592 106 563 c 0
 97 535 70 513 43 513 c 0
 17 513 3 535 12 563 c 0
EndSplineSet
Validated: 33
EndChar

StartChar: ring
Encoding: 435 730 348
Width: 3
VWidth: 0
Flags: W
HStem: 479 26<22.0012 74.3949> 622 25<44.7943 98.3954>
AnchorPoint: "top_accent" -127 531 mark 0
LayerCount: 2
Fore
SplineSet
87 647 m 0
 128 647 152 612 139 568 c 0
 123 516 73 479 32 479 c 0
 -9 479 -33 517 -20 561 c 0
 -4 614 46 647 87 647 c 0
18 569 m 0
 9 541 17 505 43 505 c 0
 69 505 91 529 100 557 c 0
 112 596 101 622 75 622 c 0
 54 622 28 602 18 569 c 0
EndSplineSet
Validated: 33
EndChar

StartChar: ogonek
Encoding: 436 731 349
Width: 4
VWidth: 0
Flags: W
HStem: -287 66<-254 -166.394>
AnchorPoint: "ogonek" -106 18 mark 0
LayerCount: 2
Fore
SplineSet
-99 18 m 9
 -75 18 l 17
 -156 -39 -193 -93 -211 -152 c 0
 -224 -196 -208 -221 -176 -221 c 0
 -150 -221 -130 -208 -119 -201 c 0
 -114 -198 -106 -201 -109 -207 c 0
 -114 -219 -125 -230 -134 -238 c 0
 -142 -245 -181 -287 -227 -287 c 8
 -281 -287 -311 -253 -288 -179 c 0
 -272 -126 -197 -39 -99 18 c 9
EndSplineSet
Validated: 33
EndChar

StartChar: tilde
Encoding: 437 732 350
Width: 5
VWidth: 0
Flags: W
HStem: 498 66<-46.9906 70.8214> 511 67<-69.9344 48.4906>
VStem: -136 274
AnchorPoint: "top_stack" -196 644 basemark 0
AnchorPoint: "top_accent" -196 533 mark 0
LayerCount: 2
Fore
SplineSet
-136 497 m 0x60
 -101 533 -49 578 -30 578 c 0x60
 -11 578 42 564 65 564 c 0
 79 564 91 565 127 600 c 0
 128 601 129 601 130 601 c 0
 136 601 142 587 138 582 c 0
 114 557 53 498 34 498 c 0xa0
 15 498 -43 511 -66 511 c 0
 -80 511 -103 496 -128 475 c 0
 -129 474 -130 474 -131 474 c 0
 -137 474 -143 490 -136 497 c 0x60
EndSplineSet
Validated: 1
EndChar

StartChar: hungarumlaut
Encoding: 438 733 351
Width: 5
VWidth: 0
Flags: W
HStem: 445 219
VStem: -160 317
AnchorPoint: "top_accent" -253 550 mark 0
LayerCount: 2
Fore
SplineSet
-121 472 m 0
 -127 464 -141 447 -149 445 c 1
 -150 445 -151 445 -152 445 c 0
 -159 445 -162 448 -160 456 c 0
 -158 471 -76 591 -51 628 c 0
 -37 648 -20 660 2 664 c 16
 4 664 6 664 8 664 c 0
 22 664 33 654 32 642 c 0
 29 623 -91 510 -121 472 c 0
5 472 m 0
 -2 464 -16 447 -24 445 c 1
 -25 445 -26 445 -27 445 c 0
 -34 445 -36 448 -34 456 c 0
 -32 471 50 591 75 628 c 0
 89 648 106 660 128 664 c 16
 130 664 131 664 133 664 c 0
 147 664 158 654 157 642 c 0
 154 623 40 512 5 472 c 0
EndSplineSet
Validated: 33
EndChar

StartChar: uni1E10
Encoding: 706 7696 369
Width: 714
VWidth: 0
Flags: W
HStem: -275 53<191.019 276.032> -7 35<249.465 339> -2 22<30.4871 73.3209> 628 31<415.266 592.886> 628 24<241.535 274.942 423.668 515.722>
LayerCount: 2
Fore
SplineSet
364 -159 m 0x90
 343 -227 250 -275 208 -275 c 0
 189 -275 181 -275 177 -262 c 0
 172 -249 178 -237 188 -221 c 0
 192 -214 199 -207 204 -210 c 0
 222 -220 244 -222 256 -222 c 0
 272 -222 298 -212 307 -183 c 0
 314 -159 311 -133 279 -131 c 0
 273 -131 265 -132 257 -132 c 0
 247 -132 238 -130 236 -122 c 0
 235 -117 241 -105 246 -100 c 2
 339 -7 l 1xd0
 314 -6 232 1 166 2 c 0
 162 2 157 2 153 2 c 0
 106 2 56 -2 32 -2 c 0
 28 -2 28 3 30 8 c 0
 32 13 35 19 39 20 c 0
 68 27 86 34 111 54 c 0
 133 72 147 89 155 114 c 2
 280 522 l 2
 289 550 297 584 290 596 c 0
 278 617 276 619 243 630 c 0
 236 632 241 652 249 652 c 0xa8
 288 652 309 649 348 649 c 0
 383 649 491 659 517 659 c 0
 769 659 831 530 771 335 c 0
 716 154 539 8 369 -6 c 1
 325 -54 l 2
 318 -61 326 -68 330 -70 c 0
 352 -82 378 -112 364 -159 c 0x90
695 346 m 0
 743 503 658 628 512 628 c 0
 431 628 380 607 368 567 c 2
 232 121 l 2
 219 80 228 66 243 50 c 0
 260 32 279 28 303 28 c 0
 320 28 338 30 358 30 c 0
 506 30 646 187 695 346 c 0
EndSplineSet
Validated: 33
EndChar

StartChar: uni1E11
Encoding: 707 7697 370
Width: 431
VWidth: 0
Flags: W
HStem: -267 50<86.5476 149.259> -14 45<170.909 204.624> 380 34<263.842 370.5> 683 20G<571 578.5>
LayerCount: 2
Fore
SplineSet
223 -157 m 0
 209 -203 137 -267 98 -267 c 0
 81 -267 77 -259 75 -253 c 0
 73 -247 75 -233 79 -221 c 0
 81 -213 93 -209 99 -209 c 0
 104 -209 126 -217 137 -217 c 0
 152 -217 169 -210 178 -181 c 0
 185 -157 179 -131 150 -129 c 0
 144 -129 136 -130 126 -132 c 0
 120 -133 116 -123 115 -116 c 0
 114 -111 117 -105 122 -100 c 2
 205 -12 l 1
 197 -13 188 -14 180 -14 c 0
 81 -14 47 74 78 175 c 0
 121 317 222 414 352 414 c 0
 389 414 404 401 413 401 c 0
 419 401 422 406 428 425 c 2
 471 566 l 2
 476 581 478 632 451 639 c 0
 443 641 448 662 457 664 c 0
 527 681 565 703 577 703 c 0
 580 703 581 702 581 698 c 1
 577 686 561 652 533 562 c 2
 402 136 l 2
 378 56 371 28 387 28 c 0
 404 28 427 40 437 40 c 0
 437 40 429 11 428 9 c 0
 383 0 323 -19 311 -19 c 0
 307 -19 303 -12 305 -7 c 0
 311 13 320 43 316 43 c 0
 312 43 312 46 296 32 c 0
 292 29 272 13 244 1 c 1
 191 -58 l 2
 184 -65 191 -72 195 -74 c 0
 216 -86 237 -110 223 -157 c 0
306 380 m 0
 272 380 197 343 156 209 c 0
 110 58 189 31 227 31 c 0
 228 31 228 31 229 31 c 0
 277 32 318 67 334 115 c 0
 344 144 352 169 359 192 c 0
 366 215 373 237 379 261 c 0
 394 317 359 380 306 380 c 0
EndSplineSet
Validated: 33
EndChar

StartChar: uni1E28
Encoding: 730 7720 393
Width: 800
VWidth: 0
Flags: W
HStem: -277 53<-9.98073 75.851> -3 25<37.7731 91.0817 269.977 309.469 493.985 547.605 723.977 764.174> 307 40<313.912 677.761> 632 20G<247 279 461 493.5 703 735>
LayerCount: 2
Fore
SplineSet
314 356 m 0
 312 348 318 347 324 347 c 0
 403 345 463 344 526 344 c 0
 575 344 626 345 689 347 c 0
 694 347 697 350 700 359 c 0
 719 421 735 478 757 557 c 0
 762 575 756 584 748 596 c 0
 734 614 720 620 701 630 c 0
 693 634 699 652 707 652 c 0
 763 652 776 649 821 649 c 0
 868 649 889 652 943 652 c 0
 954 652 946 634 936 630 c 0
 911 620 889 613 864 595 c 0
 851 586 839 574 834 557 c 2
 698 109 l 2
 691 87 689 72 699 57 c 0
 715 35 732 28 759 22 c 0
 773 19 767 -3 752 -3 c 0
 699 -3 674 2 623 2 c 0
 575 2 548 -3 498 -3 c 0
 487 -3 488 19 505 22 c 0
 535 28 558 35 587 57 c 0
 606 72 612 87 620 109 c 0
 645 185 664 241 682 300 c 0
 684 307 682 307 679 307 c 0
 601 309 541 310 480 310 c 0
 427 310 372 309 303 307 c 0
 298 307 297 304 295 296 c 0
 277 238 263 183 243 109 c 0
 237 87 235 72 245 57 c 0
 261 35 278 28 305 22 c 0
 319 19 312 -3 297 -3 c 0
 246 -3 223 2 178 2 c 1
 125 -56 l 2
 118 -63 125 -70 129 -72 c 0
 151 -84 177 -114 163 -161 c 0
 142 -229 50 -277 8 -277 c 0
 -11 -277 -20 -277 -24 -264 c 0
 -29 -251 -23 -239 -13 -223 c 0
 -9 -216 -2 -209 3 -212 c 0
 21 -222 44 -224 56 -224 c 0
 72 -224 98 -214 107 -185 c 0
 114 -161 111 -135 79 -133 c 0
 73 -133 64 -134 56 -134 c 0
 46 -134 37 -132 35 -124 c 0
 34 -119 40 -107 45 -102 c 2
 148 2 l 1
 111 1 83 -3 41 -3 c 0
 30 -3 32 19 49 22 c 0
 79 28 101 35 130 57 c 0
 149 72 157 87 164 109 c 2
 301 557 l 2
 307 575 299 584 291 596 c 0
 277 614 263 620 244 630 c 0
 236 634 243 652 251 652 c 0
 307 652 324 649 370 649 c 0
 416 649 434 652 488 652 c 0
 499 652 491 634 481 630 c 0
 447 617 396 602 380 557 c 0
 353 477 333 419 314 356 c 0
EndSplineSet
Validated: 33
EndChar

StartChar: uni1E29
Encoding: 731 7721 394
Width: 420
VWidth: 0
Flags: W
HStem: -271 50<-29.4527 33.8547> -3 25<20.5897 69.2969 155.59 179.372 343.5 419.341> 362 52<317.779 426> 685 20G<350.5 352.5>
LayerCount: 2
Fore
SplineSet
108 -161 m 0
 94 -207 22 -271 -18 -271 c 0
 -36 -271 -39 -263 -41 -257 c 0
 -43 -251 -41 -237 -37 -225 c 0
 -35 -217 -23 -213 -17 -213 c 0
 -12 -213 11 -221 22 -221 c 0
 37 -221 55 -214 64 -185 c 0
 71 -161 64 -135 34 -133 c 0
 28 -133 19 -134 9 -136 c 0
 3 -137 -1 -127 -2 -120 c 0
 -3 -115 1 -109 6 -104 c 2
 106 2 l 1
 103 2 l 2
 72 2 56 -3 22 -3 c 0
 18 -3 18 2 20 8 c 0
 22 14 25 20 30 22 c 0
 37 26 57 23 71 35 c 0
 85 47 89 59 94 75 c 2
 244 566 l 2
 255 602 255 632 228 639 c 0
 220 641 226 662 235 664 c 0
 283 676 317 692 349 704 c 0
 350 704 350 705 351 705 c 0
 354 705 355 701 355 698 c 1
 351 686 338 669 305 562 c 2
 252 388 l 2
 248 376 245 357 248 351 c 1
 282 374 343 414 398 414 c 0
 454 414 485 372 461 294 c 2
 397 85 l 2
 391 67 390 55 387 47 c 0
 384 38 382 29 381 25 c 1
 381 21 389 17 396 17 c 0
 403 17 418 20 426 27 c 2
 464 59 l 1
 474 54 l 1
 432 11 401 -6 364 -6 c 0
 323 -6 317 21 331 67 c 2
 393 272 l 2
 409 323 376 362 339 362 c 0
 317 362 282 355 261 340 c 0
 238 323 228 309 215 268 c 2
 157 78 l 2
 152 62 149 47 155 35 c 0
 160 25 181 26 186 22 c 0
 185 17 178 -3 178 -3 c 0
 158 -3 146 -1 133 0 c 1
 75 -62 l 2
 68 -69 75 -76 79 -78 c 0
 100 -90 122 -114 108 -161 c 0
EndSplineSet
Validated: 33
EndChar

StartChar: ordfeminine
Encoding: 105 170 574
Width: 236
VWidth: 0
Flags: W
HStem: 161 35<77.9653 286.077> 268 40<257 311.577> 491 33<238.141 308.5>
VStem: 75 258
LayerCount: 2
Fore
SplineSet
102 196 m 26
 282 196 l 26
 288 196 294 189 289 182 c 24
 279 169 268 161 255 161 c 26
 83 161 l 26
 77 161 73 167 75 173 c 0
 78 182 91 196 102 196 c 26
175 342 m 0
 168 319 181 308 192 308 c 0
 207 308 221 319 232 327 c 0
 238 331 240 335 245 350 c 10
 255 379 l 18
 259 391 255 393 245 390 c 0
 198 376 179 356 175 342 c 0
273 268 m 0
 241 268 238 299 234 299 c 0
 226 299 201 268 155 268 c 0
 131 268 115 304 122 327 c 0
 130 352 140 368 172 380 c 10
 248 408 l 18
 264 414 266 416 271 432 c 2
 278 455 l 26
 284 475 278 491 257 491 c 0
 243 491 224 486 217 478 c 0
 213 472 208 460 207 453 c 0
 205 445 176 438 161 434 c 0
 157 433 156 437 161 444 c 0
 171 459 176 469 194 482 c 0
 217 499 265 524 295 524 c 0
 322 524 342 499 333 471 c 10
 292 347 l 26
 287 330 282 308 298 308 c 0
 308 308 314 310 319 316 c 0
 325 323 329 307 325 301 c 0
 323 298 294 268 273 268 c 0
EndSplineSet
Validated: 33
EndChar

StartChar: uni00B2
Encoding: 113 178 575
Width: 278
VWidth: 0
Flags: W
HStem: 440 52<245.777 372.363> 716 54<299.893 391.5>
LayerCount: 2
Fore
SplineSet
246 678 m 1
 238 668 230 672 233 683 c 0
 239 703 303 770 368 770 c 0
 415 770 440 728 424 677 c 16
 414 643 391 623 368 598 c 0
 337 565 255 506 246 498 c 0
 241 494 251 492 255 492 c 0
 262 492 267 492 272 492 c 0
 283 492 294 492 319 492 c 0
 347 492 380 512 403 542 c 0
 406 547 415 551 420 550 c 24
 424 550 422 544 420 541 c 0
 397 505 382 481 367 450 c 0
 362 439 357 437 354 437 c 0
 353 437 353 437 352 437 c 0
 305 440 305 440 274 440 c 24
 229 440 207 440 159 438 c 0
 154 437 155 447 164 454 c 2
 213 494 l 2
 233 510 344 588 364 651 c 0
 377 689 360 716 331 716 c 0
 298 716 281 708 246 678 c 1
EndSplineSet
Validated: 33
EndChar

StartChar: uni00B3
Encoding: 114 179 576
Width: 277
VWidth: 0
Flags: W
HStem: 434 34<226.457 299.49> 588 11<258.448 266.16> 723 47<314.741 382.046>
LayerCount: 2
Fore
SplineSet
236 434 m 0
 209 434 176 439 185 467 c 0
 187 475 202 495 210 495 c 0
 216 495 219 492 220 490 c 0
 229 482 246 468 274 468 c 0
 286 468 330 472 348 530 c 8
 359 566 341 595 306 595 c 0
 297 595 280 591 269 588 c 0
 263 586 253 594 259 599 c 24
 278 614 298 615 313 624 c 0
 347 644 373 654 383 686 c 16
 390 707 367 723 350 723 c 0
 329 723 303 713 274 693 c 0
 270 690 266 686 263 687 c 24
 260 689 258 694 261 698 c 0
 285 729 330 770 379 770 c 1
 426 769 455 750 439 699 c 0
 431 674 402 650 363 632 c 0
 359 630 358 627 362 627 c 8
 396 625 417 598 406 561 c 16
 381 480 285 434 236 434 c 0
EndSplineSet
Validated: 33
EndChar

StartChar: uni00B9
Encoding: 120 185 577
Width: 276
VWidth: 0
Flags: W
HStem: 439 25<193.04 247.658 321.554 364.903>
LayerCount: 2
Fore
SplineSet
397 782 m 0
 400 783 402 784 404 784 c 0
 410 784 411 778 408 770 c 0
 402 757 395 738 388 716 c 0
 374 671 356 616 348 589 c 0
 339 559 332 534 325 510 c 0
 315 471 318 470 357 464 c 0
 364 463 367 457 365 451 c 0
 363 445 357 439 350 439 c 0
 297 439 305 444 275 444 c 24
 245 444 247 439 197 439 c 0
 186 439 188 463 205 464 c 0
 230 466 256 469 269 510 c 2
 316 663 l 2
 324 690 294 704 280 710 c 0
 265 716 278 736 287 737 c 0
 336 742 384 776 397 782 c 0
EndSplineSet
Validated: 33
EndChar

StartChar: ordmasculine
Encoding: 121 186 578
Width: 270
VWidth: 0
Flags: W
HStem: 161 35<77.9653 300.077> 268 31<202.212 266.954> 491 33<241.15 309.604>
LayerCount: 2
Fore
SplineSet
102 196 m 26
 296 196 l 26
 302 196 308 189 303 182 c 24
 293 169 283 161 270 161 c 26
 83 161 l 26
 77 161 73 167 75 173 c 0
 78 182 91 196 102 196 c 26
280 491 m 0
 241 491 213 448 199 402 c 0
 182 347 193 299 231 299 c 0
 269 299 297 341 312 389 c 0
 328 441 319 491 280 491 c 0
299 524 m 0
 356 524 391 469 371 404 c 0
 350 334 289 268 211 268 c 0
 153 268 118 316 140 388 c 0
 163 462 235 524 299 524 c 0
EndSplineSet
Validated: 33
EndChar

StartChar: OE
Encoding: 273 338 581
Width: 892
VWidth: 0
Flags: W
HStem: -14 39<299.548 489.234> -5 40<598.836 807.266> 320 32<676.999 799.401> 388 20G<864.5 869.5> 618 35<759.522 954.561> 625 39<452.257 629.645>
VStem: 809 28<252.012 307.756> 967 23<532.38 586.708>
LayerCount: 2
Fore
SplineSet
722 320 m 0x3b
 721 320 l 0
 698 320 659 320 652 291 c 1
 633 230 616 170 600 113 c 0
 588 72 593 35 635 35 c 2
 731 35 l 2
 736 35 793 43 808 53 c 0
 829 67 853 99 866 116 c 0
 872 124 875 126 882 126 c 24
 888 125 893 121 890 114 c 0
 874 75 860 44 843 12 c 0
 839 4 834 -5 825 -5 c 8
 710 -5 626 2 533 2 c 0
 487 2 433 -5 431 -5 c 0x7b
 405 -11 378 -14 350 -14 c 0
 185 -14 81 130 139 320 c 0
 195 502 356 664 565 664 c 0xb7
 594 664 621 659 646 652 c 0
 648 651 656 651 659 651 c 0
 698 651 688 648 708 648 c 16
 811 649 945 653 987 653 c 0
 991 653 995 653 997 653 c 0
 1004 653 1012 651 1011 644 c 0
 1006 606 1000 576 990 541 c 0
 988 535 981 532 975 532 c 0
 968 532 967 535 967 542 c 0
 967 564 966 581 961 591 c 0
 950 612 930 618 907 618 c 2
 785 618 l 2
 775 618 760 604 754 592 c 0
 740 565 725 527 713 487 c 0
 701 448 687 408 677 374 c 0
 674 363 671 352 680 352 c 2
 776 352 l 2
 803 352 829 368 845 391 c 0
 848 396 862 408 867 408 c 0
 872 408 878 401 874 392 c 0
 853 340 850 320 837 269 c 0
 834 260 830 252 823 252 c 8
 811 252 809 268 809 275 c 0
 809 306 791 312 777 314 c 0
 756 318 739 320 722 320 c 0x3b
537 146 m 0
 562 221 578 271 594 322 c 0
 610 373 624 424 645 499 c 0
 646 501 654 538 655 540 c 0
 667 601 617 625 539 625 c 0
 401 625 281 490 238 350 c 0
 186 179 236 25 374 25 c 0xb7
 443 25 499 27 515 81 c 0
 518 91 531 131 537 146 c 0
EndSplineSet
Validated: 33
EndChar

StartChar: oe
Encoding: 274 339 582
Width: 646
VWidth: 0
Flags: W
HStem: -14 60<473.317 565> -14 30<182.769 274.514> 267 29<494 641.055> 380 34<270.178 365.227 559.092 661.768>
LayerCount: 2
Fore
SplineSet
320 380 m 0x70
 247 380 182 293 157 210 c 0
 127 111 156 16 224 16 c 0
 292 16 361 100 388 189 c 0
 417 284 393 380 320 380 c 0x70
370 65 m 0
 324 18 264 -14 196 -14 c 0x70
 99 -14 48 66 85 186 c 0
 123 310 239 414 345 414 c 0
 400 414 441 384 460 338 c 0
 463 330 465 328 471 335 c 0
 520 388 579 413 638 413 c 0
 690 413 739 387 719 322 c 0
 712 300 705 282 691 275 c 0
 677 268 654 267 632 267 c 18
 474 265 l 2
 460 265 457 249 449 222 c 0
 421 129 459 47 520 46 c 0
 523 46 526 46 529 46 c 0
 562 46 592 52 629 88 c 0
 632 91 635 92 638 92 c 0
 645 92 650 84 644 77 c 0
 586 13 546 -14 480 -14 c 0xb0
 432 -14 394 15 380 65 c 0
 376 65 374 65 370 65 c 0
491 311 m 0
 480 297 488 296 494 296 c 18
 563 296 l 10
 592 296 622 297 642 305 c 8
 654 310 661 330 663 337 c 0
 673 374 639 386 613 386 c 0
 565 386 522 350 491 311 c 0
EndSplineSet
Validated: 33
LCarets2: 1 0 
EndChar

StartChar: uni01C0
Encoding: 323 448 583
Width: 237
VWidth: 0
HStem: -14 21G<95 102>
VStem: 91 268
LayerCount: 2
Fore
SplineSet
298 676 m 10
 305 698 344 707 350 707 c 0
 357 707 361 701 359 694 c 18
 150 10 l 10
 144 -11 106 -14 98 -14 c 0
 92 -14 89 -7 91 0 c 18
 298 676 l 10
EndSplineSet
Validated: 1
EndChar

StartChar: uni01C1
Encoding: 324 449 584
Width: 249
VWidth: 0
Flags: W
HStem: -14 21G<40 47 161 168>
LayerCount: 2
Fore
SplineSet
243 676 m 10
 250 698 289 707 295 707 c 0
 302 707 306 701 304 694 c 18
 95 10 l 10
 89 -11 51 -14 43 -14 c 0
 37 -14 34 -7 36 0 c 18
 243 676 l 10
364 676 m 10
 371 698 410 707 416 707 c 0
 423 707 427 701 425 694 c 18
 216 10 l 10
 210 -11 172 -14 164 -14 c 0
 158 -14 155 -7 157 0 c 18
 364 676 l 10
EndSplineSet
Validated: 1
EndChar

StartChar: uni02B0
Encoding: 420 688 611
Width: 308
VWidth: 0
Flags: W
HStem: 273 24<193.048 217.9 261.104 301.422 360.598 387.899> 488 36<275.721 367.5>
LayerCount: 2
Fore
SplineSet
360 323 m 2
 355 307 367 300 378 297 c 1
 384 294 390 289 388 283 c 0
 386 277 374 273 371 273 c 2
 271 273 l 2
 268 273 258 277 260 283 c 0
 262 289 272 294 279 297 c 1
 292 300 305 307 310 323 c 2
 344 434 l 10
 353 464 335 488 309 488 c 0
 294 488 271 481 256 472 c 0
 241 462 235 454 227 429 c 2
 194 321 l 2
 189 305 198 300 209 297 c 1
 216 294 220 289 218 283 c 0
 216 277 205 273 201 273 c 2
 103 273 l 2
 100 273 90 277 92 283 c 0
 94 289 103 294 110 297 c 1
 123 300 139 305 144 321 c 2
 231 608 l 2
 237 629 237 647 218 652 c 8
 211 654 216 672 224 674 c 16
 257 681 281 690 303 698 c 0
 303 698 303 698 304 698 c 0
 307 698 312 696 313 694 c 1
 311 687 303 677 283 612 c 2
 253 515 l 2
 251 508 249 496 251 493 c 1
 274 507 310 524 348 524 c 0
 387 524 413 498 399 452 c 2
 360 323 l 2
EndSplineSet
Validated: 33
EndChar

StartChar: uni02B2
Encoding: 421 690 612
Width: 127
VWidth: 0
Flags: W
HStem: 92 24<26.9624 58.8464> 589 69<240.461 294.23>
VStem: 25 276
LayerCount: 2
Fore
SplineSet
233 623 m 0
 239 641 261 658 278 658 c 0
 296 658 307 641 301 623 c 0
 296 606 274 589 256 589 c 0
 239 589 228 606 233 623 c 0
187 425 m 2
 193 446 190 464 172 469 c 8
 165 471 170 489 178 491 c 16
 211 498 239 518 264 530 c 0
 265 530 267 531 269 531 c 0
 273 531 277 530 276 528 c 0
 271 514 257 481 241 429 c 2
 207 319 l 2
 196 282 176 221 145 173 c 0
 118 133 68 97 42 92 c 0
 41 92 41 92 40 92 c 0
 34 92 24 96 25 100 c 0
 27 105 33 116 35 116 c 0
 50 120 68 130 86 154 c 0
 115 191 138 266 151 307 c 2
 187 425 l 2
EndSplineSet
Validated: 33
EndChar

StartChar: uni02B3
Encoding: 422 691 613
Width: 212
VWidth: 0
Flags: W
HStem: 273 24<94.0608 137.694 194.052 226.899> 469 52<270.013 343.719>
VStem: 93 266
LayerCount: 2
Fore
SplineSet
223 421 m 2
 192 322 l 2
 187 306 206 300 217 297 c 1
 223 294 229 289 227 283 c 0
 225 277 213 273 210 273 c 2
 104 273 l 2
 101 273 91 277 93 283 c 0
 95 289 104 294 111 297 c 1
 124 300 138 303 144 319 c 1
 178 431 l 2
 185 453 183 470 164 475 c 8
 157 477 162 495 170 497 c 16
 203 504 227 520 247 530 c 0
 247 530 248 530 249 530 c 0
 253 530 258 528 258 526 c 1
 257 522 252 506 245 487 c 0
 243 481 256 490 262 494 c 0
 287 511 306 521 331 521 c 0
 348 521 364 512 359 496 c 0
 355 484 334 458 322 458 c 0
 308 458 295 469 283 469 c 0
 263 469 235 461 223 421 c 2
EndSplineSet
Validated: 33
EndChar

StartChar: uni02B7
Encoding: 423 695 614
Width: 422
VWidth: 0
Flags: W
HStem: 495 24<163.101 196.062 255.044 285.896 316.101 340.729 400.821 437.939 475.101 494.631 533.984 574.939>
LayerCount: 2
Fore
SplineSet
519 468 m 26
 376 271 l 2
 374 269 370 267 366 267 c 0
 362 267 359 269 359 271 c 2
 347 418 l 2
 347 424 345 426 339 417 c 2
 235 271 l 2
 233 269 229 267 226 267 c 0
 223 267 219 269 219 271 c 2
 199 478 l 2
 198 485 184 491 173 495 c 0
 167 497 161 503 163 509 c 0
 165 515 177 519 180 519 c 2
 276 519 l 2
 279 519 289 515 287 509 c 0
 285 503 275 497 268 495 c 0
 255 491 252 478 253 468 c 18
 263 364 l 2
 263 356 266 356 272 365 c 2
 329 448 l 2
 352 480 340 490 326 495 c 1
 320 496 314 503 316 509 c 0
 318 515 330 519 333 519 c 2
 428 519 l 2
 431 519 441 515 439 509 c 0
 437 503 428 497 421 495 c 0
 408 491 393 480 394 468 c 2
 402 374 l 2
 403 365 406 359 409 359 c 0
 412 359 416 363 422 372 c 2
 485 458 l 2
 505 485 496 491 485 495 c 0
 479 497 473 503 475 509 c 0
 477 515 489 519 492 519 c 2
 565 519 l 2
 568 519 578 515 576 509 c 0
 574 503 565 497 558 495 c 0
 545 491 530 483 519 468 c 26
EndSplineSet
Validated: 33
EndChar

StartChar: uni02B8
Encoding: 424 696 615
Width: 282
VWidth: 0
Flags: W
HStem: 110 37<60.7558 117.126> 500 24<386.75 427.389>
LayerCount: 2
Fore
SplineSet
174 500 m 0
 167 502 163 509 165 515 c 0
 167 521 177 524 181 524 c 2
 274 524 l 2
 277 524 286 521 284 515 c 0
 282 509 273 502 266 500 c 0
 253 496 246 480 247 468 c 18
 256 366 l 2
 257 357 260 358 265 366 c 2
 330 458 l 10
 340 473 347 496 336 500 c 0
 330 502 325 509 327 515 c 0
 329 521 340 524 343 524 c 2
 418 524 l 2
 422 524 431 521 429 515 c 0
 427 509 418 502 410 500 c 0
 397 496 378 485 365 468 c 26
 224 273 l 2
 220 268 166 192 123 135 c 0
 110 118 94 110 76 110 c 8
 61 110 45 118 49 132 c 8
 52 143 61 155 72 156 c 1
 83 156 90 147 98 147 c 0
 101 147 104 149 108 153 c 0
 127 174 162 225 194 271 c 0
 199 279 209 301 208 310 c 2
 194 478 l 10
 192 491 185 496 174 500 c 0
EndSplineSet
Validated: 33
EndChar

StartChar: uni02E1
Encoding: 439 737 620
Width: 138
VWidth: 0
Flags: W
HStem: 273 25<91.4196 135.719 191.999 219.899>
VStem: 90 220
LayerCount: 2
Fore
SplineSet
192 320 m 2
 187 304 200 302 211 298 c 0
 217 296 222 289 220 283 c 0
 218 277 206 273 203 273 c 2
 101 273 l 2
 98 273 88 277 90 283 c 0
 92 289 102 296 109 298 c 0
 122 302 136 304 141 320 c 2
 230 608 l 2
 233 617 233 648 215 652 c 8
 208 654 214 672 222 674 c 16
 255 681 277 691 299 698 c 0
 299 698 299 698 300 698 c 0
 304 698 311 696 310 694 c 0
 308 687 298 666 281 612 c 2
 192 320 l 2
EndSplineSet
Validated: 33
EndChar

StartChar: uni02E2
Encoding: 440 738 621
Width: 188
VWidth: 0
Flags: W
HStem: 269 30<140.686 209.13> 503 33<227.362 285.682>
VStem: 112 25<305.562 331.301> 286 27<468.461 500.457>
LayerCount: 2
Fore
SplineSet
259 503 m 0
 235 503 222 485 218 472 c 0
 213 456 239 434 250 417 c 0
 260 402 290 376 280 343 c 0
 267 301 226 269 156 269 c 0
 144 269 109 282 108 290 c 0
 107 299 108 313 112 327 c 0
 114 333 138 335 137 328 c 0
 136 308 156 299 175 299 c 0
 203 299 216 319 219 329 c 0
 224 349 212 365 197 380 c 0
 176 401 151 426 163 464 c 0
 176 506 220 536 269 536 c 0
 270 536 270 536 271 536 c 0
 295 536 312 515 316 509 c 0
 321 500 318 487 313 470 c 0
 312 468 310 467 307 467 c 0
 299 467 285 474 286 479 c 0
 289 500 266 503 259 503 c 0
EndSplineSet
Validated: 33
EndChar

StartChar: uni02E3
Encoding: 441 739 622
Width: 247
VWidth: 0
Flags: W
HStem: 273 20<88.954 126.203> 500 24<340.959 396.545>
VStem: 88 309
LayerCount: 2
Fore
SplineSet
196 482 m 2
 194 487 190 495 179 499 c 0
 173 501 168 507 170 514 c 0
 172 520 184 524 187 524 c 2
 235 524 l 2
 250 524 252 525 266 525 c 0
 269 525 278 519 276 513 c 0
 274 506 266 501 259 498 c 0
 254 496 253 484 254 479 c 2
 259 456 l 2
 263 440 265 442 273 450 c 2
 307 484 l 2
 309 486 315 498 312 499 c 0
 306 501 300 507 302 513 c 0
 304 519 316 524 319 524 c 2
 386 524 l 2
 389 524 399 519 397 513 c 0
 395 507 386 502 379 500 c 0
 366 496 346 495 330 480 c 18
 273 425 l 2
 271 423 272 413 273 411 c 2
 301 314 l 2
 304 306 309 297 320 293 c 0
 326 291 333 289 331 282 c 0
 329 276 317 273 314 273 c 2
 221 273 l 2
 218 273 208 276 210 282 c 0
 216 301 253 292 246 317 c 2
 230 372 l 2
 229 375 222 367 220 365 c 2
 167 309 l 2
 163 305 160 299 171 295 c 0
 177 293 183 288 181 282 c 0
 179 276 167 273 164 273 c 2
 100 273 l 2
 89 273 86 275 88 281 c 0
 90 288 99 292 106 293 c 0
 120 295 144 316 151 323 c 2
 215 387 l 2
 222 394 222 402 221 407 c 2
 196 482 l 2
EndSplineSet
Validated: 33
EndChar

StartChar: acutecomb
Encoding: 444 769 623
Width: 3
VWidth: 0
Flags: W
HStem: 457 215
VStem: 91 79<621.278 662.976>
AnchorPoint: "top_stack" -140 530 mark 0
AnchorPoint: "top_accent" -140 550 mark 0
LayerCount: 2
Fore
SplineSet
-9 479 m 0
 -16 472 -33 457 -41 457 c 0
 -50 457 -52 461 -49 470 c 0
 -44 485 61 611 91 645 c 0
 107 663 125 672 146 672 c 8
 162 672 174 658 170 644 c 0
 164 625 99 590 -9 479 c 0
EndSplineSet
Validated: 33
EndChar

StartChar: uni030E
Encoding: 457 782 625
Width: 238
VWidth: 0
Flags: W
HStem: 426 224<298 311>
VStem: 218 33<428.366 487.413> 304 33<428.366 487.413>
AnchorPoint: "top_accent" 150 550 mark 0
LayerCount: 2
Fore
SplineSet
333 604 m 0
 341 631 353 650 380 650 c 0
 407 650 407 632 398 604 c 0
 391 582 363 504 337 456 c 0
 324 431 325 427 311 426 c 0
 310 426 310 426 309 426 c 0
 298 426 302 434 304 458 c 0
 308 506 326 582 333 604 c 0
247 604 m 0
 255 631 266 650 293 650 c 0
 320 650 321 632 312 604 c 0
 305 582 277 504 251 456 c 0
 238 431 239 427 225 426 c 0
 224 426 223 426 222 426 c 0
 211 426 216 434 218 458 c 0
 222 506 240 582 247 604 c 0
EndSplineSet
Validated: 33
EndChar

StartChar: uni0327
Encoding: 466 807 626
Width: 3
VWidth: 0
Flags: W
HStem: -274 49<-324.452 -257.196>
VStem: -334 194
LayerCount: 2
Fore
SplineSet
-278 -129 m 0
 -279 -129 -279 -129 -280 -129 c 0
 -287 -129 -299 -118 -285 -104 c 2
 -169 8 l 25
 -140 8 l 25
 -192 -43 l 2
 -201 -52 -195 -61 -191 -63 c 0
 -166 -77 -148 -106 -158 -139 c 0
 -182 -219 -282 -274 -315 -274 c 0
 -328 -274 -332 -271 -334 -262 c 24
 -337 -249 -334 -239 -326 -224 c 24
 -323 -217 -314 -212 -309 -215 c 0
 -297 -221 -287 -225 -267 -225 c 0
 -243 -225 -225 -206 -217 -180 c 0
 -206 -144 -231 -129 -263 -127 c 0
 -270 -127 -273 -127 -278 -129 c 0
EndSplineSet
Validated: 33
EndChar

StartChar: Upsilon
Encoding: 494 933 644
Width: 686
VWidth: 0
Flags: W
HStem: -5 29<201.948 278.421 423.55 481.899> 600 50<283.752 380 666.6 813.653>
AnchorPoint: "top_accent" -65 653 basechar 0
LayerCount: 2
Fore
SplineSet
749 650 m 0
 806 650 829 616 846 589 c 0
 848 585 853 577 852 573 c 0
 851 569 844 565 842 567 c 0
 820 589 784 600 746 600 c 0
 663 600 587 537 533 453 c 0
 504 408 476 326 464 288 c 2
 409 108 l 2
 395 63 413 33 457 24 c 0
 477 20 485 15 482 6 c 0
 480 -2 468 -5 452 -5 c 0
 402 -5 387 0 345 0 c 24
 299 0 274 -5 224 -5 c 0
 208 -5 198 -2 200 6 c 0
 203 15 214 20 237 24 c 0
 286 33 320 60 335 108 c 2
 390 287 l 2
 402 327 419 392 417 452 c 0
 415 528 398 600 323 600 c 0
 277 600 226 573 195 549 c 0
 191 546 185 549 187 553 c 17
 187 553 188 560 205 575 c 0
 222 591 297 650 356 650 c 0
 496 650 473 452 477 452 c 0
 481 452 609 650 749 650 c 0
EndSplineSet
Validated: 33
EndChar

StartChar: uni041A
Encoding: 536 1050 661
Width: 632
VWidth: 0
Flags: W
HStem: -5 29<31.6976 109.295 238.583 291.899 384.144 440.061 576.66 640.899> 622 31<224.102 285.933 396.085 470.442 574.102 620.125 721.464 819.841>
LayerCount: 2
Fore
SplineSet
597 620 m 0
 577 624 571 631 574 640 c 0
 576 648 589 651 605 651 c 0
 645 651 662 650 690 650 c 0
 697 650 704 650 713 650 c 8
 747 651 750 655 800 655 c 0
 816 655 826 652 824 644 c 0
 821 635 810 628 787 624 c 0
 738 615 681 597 626 558 c 0
 540 497 482 450 395 374 c 24
 389 369 390 363 394 356 c 2
 535 95 l 2
 560 47 567 36 616 24 c 0
 636 19 644 15 641 6 c 0
 639 -2 627 -5 611 -5 c 0
 561 -5 543 -1 499 0 c 16
 492 0 486 0 481 0 c 0
 460 0 447 -1 407 -1 c 0
 391 -1 382 2 384 10 c 0
 387 19 395 23 414 27 c 0
 453 36 450 53 440 72 c 2
 314 306 l 26
 309 314 303 323 298 323 c 0
 293 323 290 309 288 302 c 0
 269 239 256 190 234 110 c 0
 223 67 223 33 267 24 c 0
 287 20 295 15 292 6 c 0
 290 -2 278 -5 262 -5 c 0
 212 -5 208 2 173 2 c 24
 127 2 104 -5 54 -5 c 0
 38 -5 28 -2 30 6 c 0
 33 15 43 20 66 24 c 0
 115 33 137 51 152 101 c 2
 290 551 l 2
 304 597 293 613 249 622 c 0
 229 626 221 633 224 642 c 0
 226 650 239 653 255 653 c 0
 305 653 320 650 363 650 c 24
 396 650 399 653 449 653 c 0
 465 653 475 650 473 642 c 0
 470 633 459 626 436 622 c 0
 387 613 376 590 364 551 c 2
 307 364 l 2
 305 359 303 352 308 352 c 0
 315 352 321 355 331 362 c 0
 384 400 596 576 596 576 c 2
 615 591 641 611 597 620 c 0
EndSplineSet
Validated: 33
EndChar

StartChar: uni0443
Encoding: 577 1091 674
Width: 374
VWidth: 0
Flags: W
HStem: -285 72<-36.1642 25.5> 378 27<125.146 154.454 245.03 284.748 355.146 376.851 453.198 497.748>
VStem: -50 87<-268.424 -211.616> 163 63<140.5 367.811> 173 61<130.906 241.1>
AnchorPoint: "top_accent" 214 550 basechar 0
LayerCount: 2
Fore
SplineSet
140 378 m 0xf0
 132 382 122 386 125 396 c 0
 128 404 139 405 145 405 c 0
 146 405 147 405 148 405 c 0
 181 405 176 400 206 400 c 0
 236 400 237 405 270 405 c 0
 271 405 272 405 273 405 c 0
 279 405 290 404 287 396 c 0
 284 386 273 382 262 378 c 0
 243 372 225 337 226 312 c 18xf0
 234 116 l 2
 235 102 238 103 247 117 c 2
 359 295 l 10
 378 326 384 372 369 378 c 0
 361 382 352 386 355 396 c 0
 358 404 368 405 374 405 c 0
 375 405 376 405 377 405 c 0
 390 405 404 400 434 400 c 0
 464 400 467 405 483 405 c 0
 484 405 485 405 486 405 c 0
 492 405 503 404 500 396 c 0
 497 386 486 382 475 378 c 0
 456 372 425 343 404 311 c 26
 188 -13 l 2
 182 -22 101 -148 37 -244 c 4
 18 -271 -1 -285 -26 -285 c 12
 -46 -285 -57 -265 -50 -243 c 12
 -42 -218 -15 -194 1 -194 c 4
 9 -194 15 -213 24 -213 c 4
 27 -213 31 -211 35 -206 c 4
 64 -170 110 -93 158 -16 c 0
 166 -3 173 22 173 36 c 2xe8
 163 329 l 10
 162 353 155 372 140 378 c 0xf0
EndSplineSet
Validated: 33
EndChar

StartChar: uni1D43
Encoding: 665 7491 714
Width: 250
VWidth: 0
Flags: W
HStem: 268 40<268 326.492> 491 33<243.143 317.5>
VStem: 123 221
LayerCount: 2
Fore
SplineSet
178 342 m 0
 171 319 186 308 198 308 c 0
 214 308 229 319 241 327 c 0
 247 331 249 335 254 350 c 10
 264 379 l 18
 268 391 265 393 254 390 c 0
 203 376 182 356 178 342 c 0
285 268 m 0
 251 268 248 299 243 299 c 0
 235 299 209 268 160 268 c 0
 135 268 116 304 123 327 c 0
 131 352 141 368 174 380 c 10
 256 408 l 18
 274 414 275 416 280 432 c 2
 287 455 l 26
 293 475 286 491 264 491 c 0
 249 491 227 486 220 478 c 0
 215 472 212 460 211 453 c 0
 209 445 178 438 163 434 c 0
 159 433 157 437 162 444 c 0
 172 459 178 469 197 482 c 0
 221 499 271 524 303 524 c 0
 332 524 353 499 344 471 c 10
 304 347 l 26
 299 330 293 308 311 308 c 0
 322 308 327 310 333 316 c 0
 340 323 345 307 341 301 c 0
 339 298 307 268 285 268 c 0
EndSplineSet
Validated: 33
EndChar

StartChar: uni1D47
Encoding: 666 7495 715
Width: 296
VWidth: 0
Flags: W
HStem: 274 25<227.621 298.179> 489 29<274.935 344.761>
LayerCount: 2
Fore
SplineSet
169 290 m 0
 163 290 153 285 149 283 c 0
 143 280 130 284 132 289 c 0
 139 306 148 331 153 346 c 2
 233 607 l 2
 236 616 236 647 218 651 c 8
 211 653 216 671 224 673 c 16
 257 680 289 690 311 697 c 0
 313 697 l 0
 315 697 316 695 315 693 c 0
 314 690 304 664 294 630 c 2
 259 516 l 2
 255 503 254 496 260 496 c 1
 283 510 315 518 335 518 c 0
 398 518 431 470 411 405 c 0
 390 335 310 274 244 274 c 0
 206 274 177 290 169 290 c 0
351 393 m 0
 365 440 364 489 305 489 c 0
 288 489 270 480 257 469 c 1
 245 460 236 443 230 423 c 2
 211 361 l 2
 202 330 227 300 260 299 c 0
 261 299 261 299 262 299 c 0
 290 299 329 321 351 393 c 0
EndSplineSet
Validated: 33
EndChar

StartChar: uni1D48
Encoding: 667 7496 716
Width: 290
VWidth: 0
Flags: W
HStem: 271 29<185.807 248.291> 502 29<240.809 315.88> 685 20G<453.5 459>
LayerCount: 2
Fore
SplineSet
288 271 m 0
 280 271 289 306 287 306 c 0
 286 306 242 274 202 274 c 0
 133 274 106 327 125 388 c 0
 151 473 217 531 308 531 c 0
 334 531 342 523 346 523 c 0
 349 523 350 527 353 538 c 2
 376 613 l 2
 379 622 387 653 368 657 c 8
 360 659 366 679 375 681 c 16
 422 691 449 705 458 705 c 0
 460 705 462 704 462 702 c 1
 460 695 446 674 429 620 c 2
 351 364 l 2
 336 316 338 307 349 307 c 0
 361 307 373 314 380 314 c 0
 387 314 378 289 372 288 c 0
 341 283 296 271 288 271 c 0
281 502 m 0
 258 502 210 483 186 403 c 0
 158 311 195 300 221 300 c 0
 241 300 288 321 300 361 c 2
 323 438 l 2
 333 472 318 502 281 502 c 0
EndSplineSet
Validated: 33
EndChar

StartChar: uni1D49
Encoding: 668 7497 717
Width: 215
VWidth: 0
Flags: W
HStem: 271 42<187.207 269.87> 415 29<206.727 300.459> 497 27<236.936 304.51>
LayerCount: 2
Fore
SplineSet
127 390 m 0
 155 483 226 524 294 524 c 1
 295 524 295 524 296 524 c 0
 333 524 362 498 350 460 c 0
 346 446 339 426 328 421 c 0
 318 417 300 417 283 417 c 18
 194 415 l 2
 185 415 181 405 177 389 c 0
 168 358 183 314 229 313 c 0
 249 313 266 322 289 338 c 0
 290 339 292 339 293 339 c 0
 301 339 309 327 305 322 c 0
 280 294 246 271 200 271 c 0
 146 271 105 318 127 390 c 0
207 453 m 0
 201 444 206 444 210 444 c 18
 245 444 l 10
 263 444 278 445 291 449 c 8
 299 451 303 464 305 469 c 0
 312 491 295 497 276 497 c 0
 243 497 222 476 207 453 c 0
EndSplineSet
Validated: 33
EndChar

StartChar: uni1D4D
Encoding: 669 7501 718
Width: 257
VWidth: 0
Flags: W
HStem: 100 34<109.846 207.808> 338 26<193.669 252.558> 484 21<353.41 397.906> 498 26<224.569 284.04>
LayerCount: 2
Fore
SplineSet
108 185 m 0xc0
 97 146 118 134 165 134 c 0
 212 134 251 175 261 209 c 0
 268 231 251 239 233 243 c 0
 219 246 194 250 180 251 c 0
 179 251 179 251 178 251 c 0
 163 251 149 242 139 232 c 0
 125 220 113 205 108 185 c 0xc0
257 498 m 8xd0
 228 498 200 465 191 436 c 8
 180 401 186 364 220 364 c 0
 250 364 276 394 288 433 c 8
 298 466 290 498 257 498 c 8xd0
273 524 m 8
 306 524 327 505 364 505 c 0
 372 505 376 505 383 505 c 0
 386 505 390 505 395 505 c 0
 399 505 400 499 398 494 c 0
 396 489 393 484 389 484 c 0xe0
 355 484 362 480 353 479 c 1
 348 472 346 460 343 451 c 0
 325 393 264 338 207 338 c 16
 194 338 185 337 181 341 c 1
 165 331 162 330 160 322 c 0
 155 305 183 298 202 296 c 0
 277 289 328 278 313 228 c 0
 293 162 212 100 139 100 c 8
 88 100 32 116 48 169 c 0
 59 205 108 225 135 255 c 1
 116 259 101 273 110 301 c 0
 113 310 115 313 125 320 c 0
 138 330 146 337 160 351 c 1
 156 352 123 378 139 429 c 0
 157 489 220 524 273 524 c 8
EndSplineSet
Validated: 33
EndChar

StartChar: uni1D4F
Encoding: 670 7503 719
Width: 302
VWidth: 0
Flags: W
HStem: 273 24<95.6929 135.606 341.847 372.9> 497 22<314.146 314.33 367.482 418.93>
VStem: 94 326
LayerCount: 2
Fore
SplineSet
357 273 m 2
 248 273 l 2
 245 273 235 276 237 282 c 0
 242 299 281 299 271 319 c 1
 222 398 l 2
 221 400 217 399 215 394 c 0
 211 383 208 372 204 360 c 0
 200 348 197 336 193 322 c 0
 188 306 192 301 203 297 c 0
 209 295 215 288 213 282 c 0
 211 276 199 273 196 273 c 2
 106 273 l 2
 103 273 92 276 94 282 c 0
 96 288 106 295 113 297 c 0
 126 301 138 306 143 322 c 2
 229 605 l 2
 232 614 238 645 220 649 c 8
 212 651 217 671 226 673 c 16
 259 680 287 690 309 697 c 0
 310 697 l 0
 312 697 312 696 312 694 c 0
 311 687 298 665 282 612 c 2
 224 424 l 2
 223 421 224 420 226 420 c 0
 231 420 244 428 251 433 c 0
 292 461 307 471 320 481 c 0
 324 484 333 495 323 497 c 0
 321 498 312 504 314 509 c 0
 317 518 328 519 331 519 c 10
 416 519 l 2
 418 519 421 512 420 510 c 0
 418 505 412 498 406 497 c 0
 390 494 372 489 359 482 c 0
 350 477 310 452 274 427 c 0
 271 425 268 420 271 413 c 0
 290 374 314 336 324 325 c 1
 333 312 353 301 364 297 c 0
 370 295 375 288 373 282 c 0
 371 276 360 273 357 273 c 2
EndSplineSet
Validated: 33
EndChar

StartChar: uni1D50
Encoding: 671 7504 720
Width: 449
VWidth: 0
Flags: W
HStem: 272 25<89.4196 130.766 185.109 209.899 248.42 289.344 345.999 370.899 408.42 450.188 506.999 531.899> 485 39<270.918 356.5 429.709 522.5>
LayerCount: 2
Fore
SplineSet
507 319 m 2
 502 303 511 301 522 297 c 0
 528 295 534 288 532 282 c 0
 530 276 518 272 515 272 c 2
 418 272 l 2
 415 272 405 276 407 282 c 0
 409 288 419 295 426 297 c 0
 439 301 450 303 455 319 c 2
 488 428 l 10
 497 457 487 485 461 485 c 0
 441 485 423 481 404 469 c 0
 395 464 386 450 379 426 c 2
 346 319 l 2
 341 303 350 301 361 297 c 0
 367 295 373 288 371 282 c 0
 369 276 357 272 354 272 c 2
 258 272 l 2
 255 272 245 276 247 282 c 0
 249 288 259 295 266 297 c 0
 279 301 289 303 294 319 c 2
 327 428 l 10
 336 457 327 485 301 485 c 0
 281 485 263 481 244 469 c 0
 235 464 227 451 219 426 c 2
 186 319 l 1
 182 303 190 301 201 297 c 0
 207 295 212 288 210 282 c 0
 208 276 196 272 193 272 c 2
 99 272 l 2
 96 272 86 276 88 282 c 0
 90 288 100 295 107 297 c 0
 120 301 130 303 136 319 c 1
 170 432 l 2
 177 454 182 472 163 476 c 8
 155 478 161 497 170 499 c 16
 203 506 215 519 239 533 c 0
 240 533 240 534 241 534 c 0
 245 534 250 531 250 529 c 1
 248 522 232 486 234 482 c 1
 255 497 295 524 342 524 c 0
 371 524 385 512 387 487 c 0
 388 477 392 478 405 489 c 0
 424 505 465 524 503 524 c 0
 542 524 561 498 547 451 c 2
 507 319 l 2
EndSplineSet
Validated: 33
EndChar

StartChar: uni1D52
Encoding: 673 7506 721
Width: 286
VWidth: 0
Flags: W
HStem: 268 29<209.867 275.639> 493 31<249.652 319.975>
LayerCount: 2
Fore
SplineSet
289 493 m 0
 247 493 218 448 204 402 c 0
 187 347 198 297 239 297 c 0
 280 297 309 341 324 389 c 0
 340 441 331 493 289 493 c 0
309 524 m 0
 369 524 407 469 387 404 c 0
 366 334 303 268 219 268 c 0
 157 268 119 316 141 388 c 0
 164 462 240 524 309 524 c 0
EndSplineSet
Validated: 33
EndChar

StartChar: uni1D56
Encoding: 674 7510 722
Width: 298
VWidth: 0
Flags: W
HStem: 111 24<40.6929 84.2168 140.935 166.899> 274 26<210.527 281.876> 490 34<283.576 376.607>
LayerCount: 2
Fore
SplineSet
91 158 m 2
 177 440 l 2
 180 449 181 480 163 484 c 8
 155 486 161 505 170 507 c 16
 203 514 228 523 250 531 c 0
 250 531 250 531 251 531 c 0
 255 531 261 529 261 527 c 0
 260 520 244 489 246 485 c 1
 261 496 307 524 345 524 c 0
 408 524 428 467 410 410 c 0
 388 340 307 274 232 274 c 0
 215 274 197 293 185 293 c 0
 183 293 175 266 174 262 c 2
 142 158 l 2
 137 142 146 139 157 135 c 0
 163 133 169 126 167 120 c 0
 165 114 153 111 150 111 c 2
 51 111 l 2
 48 111 37 114 39 120 c 0
 41 126 51 133 58 135 c 0
 71 139 86 142 91 158 c 2
249 300 m 0
 272 300 331 338 349 398 c 0
 369 465 338 490 312 490 c 0
 292 490 273 480 255 469 c 0
 244 462 233 451 224 426 c 0
 216 402 209 378 204 357 c 0
 197 324 206 300 249 300 c 0
EndSplineSet
Validated: 33
EndChar

StartChar: uni1D57
Encoding: 675 7511 723
Width: 171
VWidth: 0
Flags: W
HStem: 271 36<162.5 241.969> 481 38<245.911 315.999>
VStem: 131 187
LayerCount: 2
Fore
SplineSet
156 481 m 0
 153 482 156 510 161 512 c 0
 189 522 210 543 225 564 c 0
 228 569 244 571 254 571 c 0
 259 571 262 570 262 569 c 10
 246 527 l 18
 244 522 249 519 256 519 c 10
 318 519 l 18
 321 519 319 510 316 500 c 0
 313 490 309 481 306 481 c 10
 254 481 l 18
 226 481 230 480 225 464 c 10
 190 352 l 18
 183 328 188 307 209 307 c 0
 236 307 248 313 259 320 c 0
 265 324 261 303 257 299 c 0
 249 290 211 271 179 271 c 8
 146 271 120 294 131 329 c 26
 175 472 l 2
 178 483 169 480 156 481 c 0
EndSplineSet
Validated: 33
EndChar

StartChar: uni1D58
Encoding: 676 7512 724
Width: 302
VWidth: 0
Flags: W
HStem: 268 47<172.818 262.617> 293 22<351.39 391.138> 491 27<308.174 336.23>
LayerCount: 2
Fore
SplineSet
403 532 m 0xa0
 409 532 418 523 414 518 c 0
 410 514 397 486 394 476 c 2
 357 357 l 2
 350 333 345 315 354 315 c 0
 355 315 l 0
 362 316 385 316 391 317 c 0
 394 318 394 313 393 309 c 0
 392 305 387 293 384 293 c 0x60
 351 289 322 279 302 272 c 0
 300 271 290 268 286 268 c 0
 285 268 284 269 284 269 c 0
 285 276 299 306 301 314 c 1
 260 283 225 272 188 272 c 0
 149 272 127 296 141 343 c 2
 176 457 l 2
 181 474 173 484 157 491 c 0
 155 492 156 500 157 504 c 0
 159 509 164 518 167 518 c 0
 200 519 216 524 241 529 c 0
 247 530 254 526 251 520 c 0
 242 501 237 484 231 466 c 2
 200 365 l 2
 191 336 198 310 224 310 c 0
 244 310 252 311 270 322 c 0
 281 329 302 342 310 367 c 2
 339 461 l 2
 347 486 314 489 310 491 c 0
 308 492 307 500 308 504 c 0
 309 508 315 518 318 518 c 0
 380 521 380 526 403 532 c 0xa0
EndSplineSet
Validated: 33
EndChar

StartChar: uni1D5B
Encoding: 677 7515 725
Width: 266
VWidth: 0
Flags: W
HStem: 270 21G<211 213> 495 24<376.681 419.316>
VStem: 157 264
LayerCount: 2
Fore
SplineSet
326 495 m 0
 320 497 315 504 317 510 c 0
 319 516 330 519 333 519 c 2
 410 519 l 2
 413 519 423 516 421 510 c 0
 419 504 409 497 402 495 c 0
 389 491 369 482 356 464 c 26
 218 274 l 2
 216 271 214 270 212 270 c 0
 210 270 209 272 209 274 c 2
 186 471 l 10
 184 484 177 491 166 495 c 0
 160 497 155 504 157 510 c 0
 159 516 171 519 174 519 c 2
 260 519 l 2
 263 519 273 516 271 510 c 0
 269 504 260 497 253 495 c 0
 240 491 239 475 240 463 c 18
 248 361 l 2
 249 353 249 352 254 360 c 2
 324 460 l 10
 333 473 337 491 326 495 c 0
EndSplineSet
Validated: 33
EndChar

StartChar: uni1D9C
Encoding: 685 7580 733
Width: 221
VWidth: 0
Flags: W
HStem: 271 42<189.316 274.125> 495 29<238.605 314.722>
LayerCount: 2
Fore
SplineSet
130 389 m 8
 153 464 229 524 299 524 c 16
 325 524 350 517 362 495 c 0
 366 485 354 472 342 464 c 24
 334 458 322 461 321 466 c 0
 315 487 306 495 276 495 c 8
 237 495 200 453 187 411 c 16
 169 353 186 313 232 313 c 16
 257 313 275 320 297 340 c 0
 298 341 300 342 302 342 c 0
 309 342 317 332 314 326 c 0
 302 305 253 271 197 271 c 8
 138 271 111 327 130 389 c 8
EndSplineSet
Validated: 33
EndChar

StartChar: uni1DA0
Encoding: 687 7584 734
Width: 207
VWidth: 0
Flags: W
HStem: 273 21G<109.5 214.5> 481 38<269.5 330.188> 481 27<171.021 198.67> 666 32<336.481 403.93>
LayerCount: 2
Fore
SplineSet
275 560 m 2xb0
 267 532 l 2
 264 521 270 519 277 519 c 10
 342 519 l 18
 348 519 330 481 324 481 c 10
 275 481 l 18xd0
 247 481 249 474 246 465 c 2
 203 323 l 1
 199 307 210 301 221 297 c 0
 227 295 232 288 230 282 c 0
 228 276 216 273 213 273 c 2
 111 273 l 2
 108 273 98 276 100 282 c 0
 102 288 111 295 118 297 c 0
 131 301 146 307 151 323 c 2
 199 480 l 1
 192 480 183 480 170 481 c 0
 167 482 170 507 175 508 c 0
 195 513 197 514 211 520 c 1
 253 659 346 698 399 698 c 0
 426 698 438 695 454 680 c 24
 471 664 432 630 417 630 c 0
 398 630 420 666 369 666 c 0
 332 666 300 641 275 560 c 2xb0
EndSplineSet
Validated: 33
EndChar

StartChar: uni1DBB
Encoding: 688 7611 735
Width: 222
VWidth: 0
Flags: W
HStem: 273 24<169.818 265.183> 488 39<188.734 270.295> 488 29<198.237 281>
VStem: 96 269
LayerCount: 2
Fore
SplineSet
222 518 m 16xd0
 239 517 256 517 271 517 c 0
 305 517 335 518 365 519 c 0
 368 519 369 514 367 512 c 0
 356 502 352 494 340 482 c 2
 170 306 l 2
 166 301 170 297 174 297 c 2
 239 297 l 2
 258 297 274 317 301 343 c 0
 304 346 316 358 323 358 c 0
 329 358 325 346 324 344 c 0
 322 339 294 292 288 282 c 0
 286 279 281 273 277 273 c 2
 101 273 l 2
 98 273 95 280 96 283 c 0
 97 286 100 294 112 305 c 0
 171 363 220 412 285 482 c 0
 288 485 290 488 281 488 c 2xb0
 225 488 l 2
 214 488 196 476 179 460 c 0
 175 456 165 446 159 446 c 0
 153 446 153 456 157 461 c 0
 165 472 178 501 184 515 c 0
 187 521 190 527 198 527 c 0
 203 527 211 519 222 518 c 16xd0
EndSplineSet
Validated: 1
EndChar

StartChar: uni2010
Encoding: 992 8208 776
Width: 253
VWidth: 0
Flags: W
HStem: 170 85
VStem: 80 223
LayerCount: 2
Fore
SplineSet
88 170 m 0
 87 170 85 170 84 170 c 0
 79 170 79 172 80 176 c 8
 89 198 102 229 112 230 c 0
 174 239 236 248 298 255 c 0
 302 255 304 253 303 249 c 0
 293 224 282 197 267 195 c 0
 208 186 150 177 88 170 c 0
EndSplineSet
Validated: 1
EndChar

StartChar: uni2011
Encoding: 993 8209 777
Width: 253
VWidth: 0
Flags: W
HStem: 170 85
VStem: 80 223
LayerCount: 2
Fore
SplineSet
88 170 m 0
 87 170 85 170 84 170 c 0
 79 170 79 172 80 176 c 8
 89 198 102 229 112 230 c 0
 174 239 236 248 298 255 c 0
 302 255 304 253 303 249 c 0
 293 224 282 197 267 195 c 0
 208 186 150 177 88 170 c 0
EndSplineSet
Validated: 1
EndChar

StartChar: figuredash
Encoding: 994 8210 778
Width: 490
VWidth: 0
Flags: W
HStem: 181 60<81.5336 530.799>
LayerCount: 2
Fore
SplineSet
107 241 m 26
 538 241 l 26
 545 241 549 234 545 227 c 24
 533 206 522 181 502 181 c 26
 79 181 l 26
 72 181 68 187 70 193 c 0
 73 202 87 241 107 241 c 26
EndSplineSet
Validated: 1
EndChar

StartChar: uni2015
Encoding: 997 8213 779
Width: 1858
VWidth: 0
Flags: W
HStem: 185 54<115.668 1869.89>
LayerCount: 2
Fore
SplineSet
141 239 m 26
 1873 239 l 26
 1880 239 1885 232 1881 225 c 24
 1870 206 1859 185 1840 185 c 26
 115 185 l 26
 108 185 104 191 106 197 c 0
 109 206 123 239 141 239 c 26
EndSplineSet
Validated: 1
EndChar

StartChar: uni2070
Encoding: 1029 8304 797
Width: 278
VWidth: 0
Flags: W
HStem: 433 22<252.2 314.647> 760 25<334.325 401.198>
LayerCount: 2
Fore
SplineSet
371 760 m 8
 313 760 278 681 259 619 c 0
 237 548 215 455 281 455 c 16
 342 455 375 541 395 607 c 16
 415 674 433 760 371 760 c 8
388 785 m 16
 463 785 479 700 454 619 c 16
 426 527 349 433 264 433 c 8
 186 433 174 524 200 608 c 8
 227 697 305 785 388 785 c 16
EndSplineSet
Validated: 33
EndChar

StartChar: uni2071
Encoding: 1030 8305 798
Width: 144
VWidth: 0
Flags: W
HStem: 273 25<94.236 140.25 193.999 226.899> 589 69<234.461 287.547>
VStem: 93 201
LayerCount: 2
Fore
SplineSet
227 623 m 0
 233 641 254 658 271 658 c 0
 289 658 300 641 294 623 c 0
 289 606 268 589 250 589 c 0
 233 589 222 606 227 623 c 0
194 320 m 2
 189 304 206 302 217 298 c 0
 223 296 229 289 227 283 c 0
 225 277 213 273 210 273 c 2
 104 273 l 2
 101 273 91 277 93 283 c 0
 95 289 104 296 111 298 c 0
 124 302 141 304 146 320 c 2
 178 426 l 2
 184 447 184 465 165 469 c 8
 156 471 162 493 172 495 c 16
 206 503 223 517 247 530 c 0
 248 530 250 530 252 530 c 0
 258 530 266 529 265 527 c 0
 259 513 245 486 229 434 c 2
 194 320 l 2
EndSplineSet
Validated: 33
EndChar

StartChar: uni2074
Encoding: 1031 8308 799
Width: 278
VWidth: 0
Flags: W
HStem: 533 47<243 311.853> 539 41<243 320.041 384.125 437.701>
VStem: 174 272
LayerCount: 2
Fore
SplineSet
327 580 m 2x60
 331 580 335 582 336 585 c 2
 370 696 l 2
 371 698 367 699 365 697 c 24
 317 655 282 622 245 585 c 0
 243 583 241 580 243 580 c 2xa0
 327 580 l 2x60
174 541 m 2
 211 578 l 1
 345 705 l 2
 361 720 389 745 418 770 c 25
 425 775 433 781 437 782 c 0
 438 782 l 0
 441 782 441 777 440 774 c 0
 432 748 406 657 384 583 c 24
 384 581 384 579 386 579 c 16
 392 579 397 579 402 579 c 0
 414 579 425 579 440 580 c 0
 444 580 447 578 446 574 c 24
 439 560 426 539 422 539 c 0
 412 539 401 540 391 540 c 0
 386 540 382 540 378 539 c 0x60
 376 538 369 536 369 535 c 2
 346 459 l 2
 341 444 302 432 298 432 c 0
 292 432 290 434 292 440 c 2
 320 532 l 2
 321 536 314 537 314 537 c 1
 268 537 235 534 177 533 c 0
 173 533 172 539 174 541 c 2
EndSplineSet
Validated: 1
EndChar

StartChar: uni2075
Encoding: 1032 8309 800
Width: 276
VWidth: 0
Flags: W
HStem: 430 25<189.666 266.607> 721 54<309.196 424.921>
VStem: 188 250
LayerCount: 2
Fore
SplineSet
403 567 m 0
 385 509 343 477 303 457 c 0
 279 445 238 430 199 430 c 16
 190 430 187 435 188 439 c 0
 190 445 197 455 211 455 c 0
 263 455 319 475 341 547 c 0
 360 609 284 617 254 629 c 0
 246 632 244 644 246 650 c 0
 254 674 284 721 295 737 c 0
 303 749 312 758 326 761 c 0
 365 770 396 775 438 775 c 0
 442 775 442 770 440 765 c 0
 439 761 418 727 400 726 c 1
 367 722 341 724 321 721 c 0
 318 721 308 719 303 711 c 1
 297 704 294 700 292 693 c 0
 291 689 294 683 301 681 c 0
 362 661 429 653 403 567 c 0
EndSplineSet
Validated: 33
EndChar

StartChar: uni2076
Encoding: 1033 8310 801
Width: 277
VWidth: 0
Flags: W
HStem: 426 20<258.224 311.717> 598 42<320.964 405>
LayerCount: 2
Fore
SplineSet
367 530 m 0
 377 563 377 598 346 598 c 0
 332 598 319 594 306 586 c 0
 300 582 294 578 289 578 c 0
 284 578 284 583 286 588 c 0
 288 596 293 601 300 606 c 0
 315 617 355 640 375 640 c 0
 435 640 437 602 425 562 c 0
 407 504 343 426 265 426 c 0
 192 426 169 473 189 538 c 0
 213 621 274 675 301 696 c 0
 337 724 394 756 467 774 c 0
 471 774 474 769 471 764 c 24
 465 755 453 750 449 748 c 0
 392 727 287 670 247 538 c 0
 229 478 251 446 287 446 c 0
 321 446 350 474 367 530 c 0
EndSplineSet
Validated: 33
EndChar

StartChar: uni2077
Encoding: 1034 8311 802
Width: 278
VWidth: 0
Flags: W
HStem: 425 21G<210 219> 719 50<260.538 418>
VStem: 203 290
LayerCount: 2
Fore
SplineSet
425 710 m 2
 428 714 432 719 418 719 c 2
 295 719 l 2
 275 719 267 713 256 696 c 0
 251 689 236 672 227 672 c 0
 212 672 263 751 267 758 c 0
 272 767 276 769 279 769 c 2
 490 769 l 2
 494 769 495 759 493 755 c 0
 479 737 470 728 452 707 c 2
 243 452 l 2
 234 441 221 425 217 425 c 0
 203 425 198 432 203 447 c 0
 204 451 217 467 227 479 c 18
 425 710 l 2
EndSplineSet
Validated: 33
EndChar

StartChar: uni2078
Encoding: 1035 8312 803
Width: 277
VWidth: 0
Flags: W
HStem: 431 16<252.805 301.928> 772 13<348.97 393.512>
LayerCount: 2
Fore
SplineSet
349 636 m 0
 380 657 391 683 401 716 c 16
 410 745 402 772 375 772 c 8
 349 772 319 752 311 725 c 8
 298 683 315 669 342 637 c 1
 344 636 347 634 349 636 c 0
358 624 m 0
 390 597 418 575 405 531 c 8
 386 470 314 431 262 431 c 8
 212 431 171 462 187 516 c 16
 202 565 260 589 292 605 c 0
 298 608 295 608 293 612 c 0
 270 640 245 666 260 714 c 16
 274 759 334 785 381 785 c 16
 424 785 463 760 449 713 c 16
 441 686 414 670 399 659 c 0
 386 650 379 645 364 636 c 0
 353 629 353 628 358 624 c 0
295 595 m 0
 267 576 256 560 245 525 c 8
 233 487 240 447 275 447 c 16
 307 447 333 476 343 508 c 16
 353 542 335 571 311 593 c 0
 308 596 306 598 303 598 c 0
 301 598 298 597 295 595 c 0
EndSplineSet
Validated: 33
EndChar

StartChar: uni2079
Encoding: 1036 8313 804
Width: 277
VWidth: 0
Flags: W
HStem: 423 21G<166 191.5> 588 40<262 341.867> 755 28<325.347 393.283>
LayerCount: 2
Fore
SplineSet
385 783 m 0
 444 783 476 731 455 661 c 0
 434 592 378 538 336 506 c 0
 293 474 213 429 170 423 c 0
 168 423 l 0
 164 423 162 427 163 431 c 8
 165 438 172 446 177 447 c 0
 215 458 280 507 316 541 c 1
 347 569 381 600 402 668 c 0
 417 718 401 755 357 755 c 0
 329 755 297 727 285 687 c 0
 275 654 286 628 319 628 c 0
 333 628 338 630 346 633 c 0
 354 636 365 646 372 649 c 0
 375 651 373 632 371 630 c 0
 365 622 350 613 342 608 c 0
 331 601 305 588 283 588 c 0
 241 588 214 620 227 664 c 0
 244 718 312 783 385 783 c 0
EndSplineSet
Validated: 33
EndChar

StartChar: uni207F
Encoding: 1042 8319 809
Width: 308
VWidth: 0
Flags: W
HStem: 273 24<89.1035 130.828> 482 42<277.898 371.5>
LayerCount: 2
Fore
SplineSet
366 324 m 2
 361 307 371 300 382 297 c 1
 388 294 394 289 392 283 c 0
 390 277 378 273 375 273 c 2
 275 273 l 2
 272 273 262 277 264 283 c 0
 266 289 275 294 282 297 c 1
 295 300 311 307 316 324 c 2
 347 426 l 2
 358 461 340 482 307 482 c 0
 287 482 274 480 255 468 c 0
 245 462 230 449 222 424 c 2
 191 324 l 18
 187 310 194 300 205 297 c 1
 212 294 217 289 215 283 c 0
 213 277 202 273 198 273 c 2
 99 273 l 2
 96 273 86 277 88 283 c 0
 90 289 100 294 107 297 c 1
 120 300 137 309 141 324 c 10
 177 441 l 2
 184 463 183 480 164 485 c 8
 159 486 162 499 168 500 c 16
 202 507 232 522 248 533 c 1
 250 533 l 0
 254 533 260 530 259 528 c 0
 257 521 240 488 242 484 c 1
 264 498 314 524 352 524 c 0
 391 524 419 499 405 452 c 2
 366 324 l 2
EndSplineSet
Validated: 33
EndChar

StartChar: uni2080
Encoding: 1043 8320 810
Width: 278
VWidth: 0
Flags: W
HStem: -180 22<65.1432 127.594> 147 25<146.763 212.09>
LayerCount: 2
Fore
SplineSet
183 147 m 8
 125 147 90 68 71 6 c 0
 49 -65 28 -158 94 -158 c 16
 155 -158 187 -72 207 -6 c 16
 227 61 245 147 183 147 c 8
201 172 m 16
 276 172 292 87 267 6 c 16
 239 -86 162 -180 77 -180 c 8
 -1 -180 -14 -89 12 -5 c 8
 39 84 118 172 201 172 c 16
EndSplineSet
Validated: 33
EndChar

StartChar: uni2081
Encoding: 1044 8321 811
Width: 179
VWidth: 0
Flags: W
HStem: -171 25<-43.2634 11.5913 84.577 125.717>
LayerCount: 2
Fore
SplineSet
160 172 m 0
 163 173 165 174 167 174 c 0
 173 174 175 168 172 160 c 0
 166 146 156 122 146 90 c 0
 132 46 121 9 112 -21 c 0
 103 -51 95 -76 88 -100 c 0
 77 -139 82 -140 121 -146 c 0
 136 -148 128 -171 113 -171 c 0
 60 -171 68 -166 38 -166 c 24
 8 -166 11 -171 -39 -171 c 0
 -50 -171 -48 -147 -32 -146 c 0
 -6 -144 20 -141 33 -100 c 2
 79 53 l 2
 87 80 58 94 44 100 c 0
 29 106 42 126 51 127 c 0
 100 132 147 166 160 172 c 0
EndSplineSet
Validated: 33
EndChar

StartChar: uni2082
Encoding: 1045 8322 812
Width: 278
VWidth: 0
Flags: W
HStem: -166 52<60.7765 187.363> 110 54<113.409 206.5>
LayerCount: 2
Fore
SplineSet
61 72 m 1
 53 62 44 67 47 78 c 0
 53 98 118 164 183 164 c 0
 230 164 255 123 239 72 c 16
 229 38 206 17 183 -8 c 0
 152 -41 70 -100 61 -108 c 0
 56 -112 66 -114 70 -114 c 0
 77 -114 82 -113 87 -113 c 0
 98 -113 109 -114 134 -114 c 0
 162 -114 195 -94 218 -64 c 0
 221 -59 230 -55 235 -56 c 24
 239 -56 237 -61 235 -64 c 0
 212 -100 197 -125 182 -156 c 0
 177 -167 172 -169 169 -169 c 0
 168 -169 168 -168 167 -168 c 0
 120 -165 120 -166 89 -166 c 24
 44 -166 22 -166 -26 -168 c 0
 -31 -169 -30 -159 -21 -152 c 2
 28 -112 l 2
 48 -96 159 -17 179 46 c 0
 192 84 175 110 146 110 c 0
 113 110 96 102 61 72 c 1
EndSplineSet
Validated: 33
EndChar

StartChar: uni2083
Encoding: 1046 8323 813
Width: 277
VWidth: 0
Flags: W
HStem: -179 34<39.9571 112.327> -25 11<72.4475 80.1172> 110 47<127.625 194.19>
LayerCount: 2
Fore
SplineSet
49 -179 m 0
 22 -179 -11 -174 -2 -146 c 0
 0 -138 15 -118 23 -118 c 0
 29 -118 33 -121 34 -123 c 0
 43 -131 60 -145 88 -145 c 0
 100 -145 144 -141 162 -83 c 8
 173 -47 154 -18 119 -18 c 0
 110 -18 94 -22 83 -25 c 0
 77 -27 67 -19 73 -14 c 24
 92 1 111 2 126 11 c 0
 160 31 186 41 196 73 c 16
 203 94 180 110 163 110 c 0
 162 110 163 110 162 110 c 0
 141 109 116 100 88 80 c 0
 84 77 80 73 77 74 c 24
 74 76 71 81 74 85 c 0
 98 116 143 157 192 157 c 1
 239 156 268 137 252 86 c 0
 244 61 216 37 177 19 c 0
 173 17 171 14 175 14 c 8
 209 12 230 -15 219 -52 c 16
 194 -133 98 -179 49 -179 c 0
EndSplineSet
Validated: 33
EndChar

StartChar: uni2084
Encoding: 1047 8324 814
Width: 278
VWidth: 0
Flags: W
HStem: -179 21G<109.5 114> -74 43<56 134.041 199 240.18>
LayerCount: 2
Fore
SplineSet
141 -31 m 2
 144 -31 149 -29 150 -26 c 2
 184 85 l 2
 185 87 181 88 179 86 c 24
 131 44 96 11 58 -26 c 0
 56 -28 54 -31 56 -31 c 2
 141 -31 l 2
236 -72 m 0
 230 -72 218 -71 206 -71 c 0
 195 -71 184 -72 183 -76 c 2
 160 -152 l 2
 155 -167 116 -179 112 -179 c 0
 107 -179 104 -177 106 -171 c 2
 134 -79 l 2
 135 -75 128 -74 127 -74 c 0
 81 -74 49 -77 -10 -78 c 0
 -14 -78 -15 -72 -13 -70 c 0
 44 -14 101 40 159 94 c 0
 175 109 204 134 233 159 c 24
 239 164 246 170 250 171 c 0
 251 171 l 0
 254 171 255 166 254 163 c 0
 246 137 219 46 198 -28 c 24
 197 -30 197 -32 199 -32 c 16
 205 -32 211 -32 216 -32 c 0
 229 -32 239 -32 254 -31 c 0
 269 -31 238 -72 236 -72 c 0
EndSplineSet
Validated: 33
EndChar

StartChar: uni2085
Encoding: 1048 8325 815
Width: 276
VWidth: 0
Flags: W
HStem: -184 25<1.66553 78.8486> 107 54<121.196 237.921>
VStem: 0 253
LayerCount: 2
Fore
SplineSet
215 -47 m 0
 197 -105 156 -137 116 -157 c 0
 92 -169 51 -184 12 -184 c 16
 3 -184 -1 -179 0 -175 c 0
 2 -169 9 -159 23 -159 c 0
 75 -159 131 -139 153 -67 c 0
 172 -5 96 3 66 15 c 0
 58 18 56 30 58 36 c 0
 66 60 96 107 107 123 c 0
 115 135 124 144 138 147 c 0
 177 156 208 161 250 161 c 0
 254 161 255 156 253 151 c 0
 252 147 231 113 213 112 c 1
 180 108 153 110 133 107 c 0
 130 107 120 105 115 97 c 1
 109 90 106 86 104 79 c 0
 103 75 106 69 113 67 c 0
 174 47 241 39 215 -47 c 0
EndSplineSet
Validated: 33
EndChar

StartChar: uni2086
Encoding: 1049 8326 816
Width: 277
VWidth: 0
Flags: W
HStem: -182 20<72.6078 125.414> -10 42<134.964 219>
LayerCount: 2
Fore
SplineSet
181 -78 m 0
 191 -45 191 -10 160 -10 c 0
 146 -10 133 -14 120 -22 c 0
 114 -26 108 -30 103 -30 c 0
 98 -30 98 -25 100 -20 c 0
 102 -12 107 -7 114 -2 c 0
 129 9 169 32 189 32 c 0
 249 32 251 -6 239 -46 c 0
 221 -104 157 -182 79 -182 c 0
 6 -182 -17 -135 3 -70 c 0
 27 13 88 67 115 88 c 0
 151 116 208 148 281 166 c 0
 285 166 288 161 285 156 c 24
 279 147 267 142 263 140 c 0
 206 119 101 62 61 -70 c 0
 43 -130 66 -162 102 -162 c 0
 136 -162 164 -134 181 -78 c 0
EndSplineSet
Validated: 33
EndChar

StartChar: uni2087
Encoding: 1050 8327 817
Width: 278
VWidth: 0
Flags: W
HStem: 104 50<72.5378 230>
VStem: 15 290
LayerCount: 2
Fore
SplineSet
237 95 m 2
 240 99 244 104 230 104 c 2
 107 104 l 2
 87 104 79 98 68 81 c 0
 63 74 48 57 39 57 c 0
 24 57 75 136 79 143 c 0
 84 152 88 154 91 154 c 2
 302 154 l 2
 306 154 307 144 305 140 c 0
 291 122 282 113 264 92 c 2
 55 -163 l 2
 46 -174 33 -190 29 -190 c 0
 15 -190 10 -183 15 -168 c 0
 16 -164 29 -148 39 -136 c 18
 237 95 l 2
EndSplineSet
Validated: 33
EndChar

StartChar: uni2088
Encoding: 1051 8328 818
Width: 277
VWidth: 0
Flags: W
HStem: -182 16<68.3863 117.428> 159 13<164.096 208.618>
VStem: 2 262
LayerCount: 2
Fore
SplineSet
164 23 m 0
 195 44 207 70 217 103 c 16
 226 132 217 159 190 159 c 8
 164 159 135 139 127 112 c 8
 114 70 130 56 157 24 c 1
 159 23 162 21 164 23 c 0
173 11 m 0
 205 -16 234 -38 221 -82 c 8
 202 -143 130 -182 78 -182 c 8
 28 -182 -14 -151 2 -97 c 16
 17 -48 76 -24 108 -8 c 0
 114 -5 111 -5 109 -1 c 0
 86 27 60 53 75 101 c 16
 89 146 149 172 196 172 c 16
 239 172 278 147 264 100 c 16
 256 73 229 57 214 46 c 0
 201 37 194 32 179 23 c 0
 168 16 168 15 173 11 c 0
110 -18 m 0
 82 -37 72 -53 61 -88 c 8
 49 -126 55 -166 90 -166 c 16
 122 -166 148 -137 158 -105 c 16
 168 -71 150 -42 126 -20 c 0
 123 -17 121 -15 118 -15 c 0
 116 -15 113 -16 110 -18 c 0
EndSplineSet
Validated: 33
EndChar

StartChar: uni2089
Encoding: 1052 8329 819
Width: 277
VWidth: 0
Flags: W
HStem: -29 40<74 152.867> 138 28<136.347 204.286>
LayerCount: 2
Fore
SplineSet
196 166 m 0
 255 166 288 114 267 44 c 0
 246 -25 189 -79 147 -111 c 0
 104 -143 24 -188 -19 -194 c 0
 -20 -194 l 0
 -24 -194 -27 -190 -26 -186 c 8
 -24 -179 -17 -171 -12 -170 c 0
 26 -159 92 -110 128 -76 c 1
 159 -48 192 -17 213 51 c 0
 228 101 212 138 168 138 c 0
 140 138 108 110 96 70 c 0
 86 37 97 11 130 11 c 0
 144 11 149 13 157 16 c 0
 165 19 176 29 183 32 c 0
 186 34 184 15 182 13 c 0
 176 5 161 -4 153 -9 c 0
 142 -16 117 -29 95 -29 c 0
 53 -29 25 3 38 47 c 0
 55 101 123 166 196 166 c 0
EndSplineSet
Validated: 33
EndChar

StartChar: uni2090
Encoding: 1058 8336 824
Width: 250
VWidth: 0
Flags: W
HStem: -177 40<128 185.733> 46 33<102.143 176.5>
VStem: -18 222
LayerCount: 2
Fore
SplineSet
38 -103 m 0
 31 -126 45 -137 57 -137 c 0
 73 -137 88 -126 100 -118 c 0
 106 -114 109 -110 114 -95 c 10
 124 -66 l 18
 128 -54 124 -52 113 -55 c 0
 62 -69 42 -89 38 -103 c 0
145 -177 m 0
 111 -177 108 -146 103 -146 c 0
 95 -146 68 -177 19 -177 c 0
 -6 -177 -25 -141 -18 -118 c 0
 -10 -93 1 -77 34 -65 c 10
 116 -37 l 18
 134 -31 135 -29 140 -13 c 2
 147 10 l 26
 153 30 145 46 123 46 c 0
 108 46 86 41 79 33 c 0
 74 27 71 15 70 8 c 0
 68 0 37 -7 22 -11 c 0
 18 -12 17 -8 22 -1 c 0
 32 14 37 24 56 37 c 0
 80 54 130 79 162 79 c 0
 191 79 213 54 204 26 c 10
 163 -98 l 26
 158 -115 153 -137 171 -137 c 0
 182 -137 187 -135 193 -129 c 0
 200 -122 204 -138 200 -144 c 0
 198 -147 167 -177 145 -177 c 0
EndSplineSet
Validated: 33
EndChar

StartChar: uni2091
Encoding: 1059 8337 825
Width: 215
VWidth: 0
Flags: W
HStem: -179 42<51.7948 131.897> -31 29<71.7268 161.459> 51 27<100.744 166.824>
LayerCount: 2
Fore
SplineSet
-10 -58 m 0
 18 35 90 78 158 78 c 1
 159 78 159 78 160 78 c 0
 197 78 225 52 213 14 c 0
 209 0 202 -20 191 -25 c 0
 181 -29 163 -29 146 -29 c 18
 58 -31 l 2
 49 -31 46 -41 42 -57 c 0
 33 -88 46 -136 92 -137 c 0
 112 -137 129 -128 152 -112 c 0
 153 -111 155 -111 156 -111 c 0
 164 -111 171 -123 167 -128 c 0
 142 -156 108 -179 62 -179 c 0
 8 -179 -32 -130 -10 -58 c 0
72 7 m 0
 66 -2 71 -2 75 -2 c 18
 109 -2 l 10
 125 -2 139 -1 152 3 c 8
 160 5 164 18 166 23 c 0
 173 45 159 51 140 51 c 0
 107 51 89 32 72 7 c 0
EndSplineSet
Validated: 33
EndChar

StartChar: uni2092
Encoding: 1060 8338 826
Width: 286
VWidth: 0
Flags: W
HStem: -181 31<70.1954 141.392> 42 33<109.251 182.877>
LayerCount: 2
Fore
SplineSet
151 42 m 0
 109 42 79 -1 65 -47 c 0
 48 -102 61 -150 102 -150 c 0
 143 -150 174 -108 189 -60 c 0
 205 -8 193 42 151 42 c 0
171 75 m 0
 231 75 270 20 250 -45 c 0
 229 -115 166 -181 82 -181 c 0
 20 -181 -18 -133 4 -61 c 0
 27 13 102 75 171 75 c 0
EndSplineSet
Validated: 33
EndChar

StartChar: uni20A8
Encoding: 1062 8360 828
Width: 887
VWidth: 0
HStem: -26 39<586.042 680.861> -5 29<29.6976 109.063 239.575 293.899> 388 26<724.963 796.369> 627 30<234.101 280.953 401.707 513.656>
VStem: 810 32<311.78 377.505>
LayerCount: 2
Fore
SplineSet
311 366 m 0x38
 300 332 316 330 345 329 c 0
 346 329 348 329 349 329 c 0
 399 329 429 346 458 368 c 0
 492 395 519 431 537 489 c 0
 554 546 559 627 454 627 c 0
 403 627 388 603 378 573 c 0
 353 501 336 445 311 366 c 0x38
589 -26 m 0xb8
 536 -26 497 -10 478 33 c 0
 451 93 430 129 400 241 c 0
 395 259 388 270 372 280 c 24
 350 294 322 300 306 302 c 0
 296 303 290 294 286 282 c 2
 233 110 l 2
 220 67 225 33 269 24 c 0
 289 20 297 15 294 6 c 0
 292 -2 280 -5 264 -5 c 0
 214 -5 211 2 175 2 c 24
 128 2 102 -5 52 -5 c 0
 36 -5 26 -2 28 6 c 0
 31 15 41 20 64 24 c 0x78
 113 33 141 51 156 100 c 2
 285 522 l 2
 303 582 302 613 258 622 c 0
 238 626 231 633 234 642 c 0
 236 650 248 653 264 653 c 0
 314 653 317 652 355 652 c 0
 390 652 409 657 463 657 c 0
 599 657 653 598 620 489 c 0
 606 444 565 394 546 379 c 0
 520 359 473 327 460 321 c 0
 455 319 456 318 458 312 c 0
 487 218 516 150 569 58 c 24
 584 32 595 13 628 13 c 0
 680 13 699 44 711 84 c 0
 722 120 703 143 672 174 c 0
 638 208 605 251 620 300 c 0
 636 353 693 414 784 414 c 0
 821 414 844 401 850 391 c 1
 857 376 851 341 842 313 c 0
 841 310 839 309 836 309 c 0
 826 309 808 321 810 330 c 0
 815 354 799 388 768 388 c 0
 717 388 692 348 683 320 c 0
 672 285 711 251 735 231 c 0
 757 212 805 172 785 106 c 0
 764 37 692 -26 589 -26 c 0xb8
EndSplineSet
Validated: 33
EndChar

StartChar: uni2112
Encoding: 1068 8466 833
Width: 490
Flags: W
HStem: -36 68<286.956 401.782> -14 21G<11.5 27> 600 29<287.317 360.823>
VStem: 130 88<217.968 465.427> 395 53<503.28 574.539> 434 43<46.0144 142.884>
LayerCount: 2
Fore
SplineSet
344 629 m 0x74
 345 629 346 629 347 629 c 0
 424 629 448 593 448 547 c 0
 448 520 419 491 406 491 c 0
 389 491 395 507 395 527 c 0x78
 394 560 360 600 326 600 c 0
 260 600 218 502 218 337 c 0
 218 241 163 126 135 102 c 0
 132 100 132 93 139 93 c 0
 258 93 280 34 375 32 c 0
 376 32 376 32 377 32 c 0
 407 32 434 57 434 87 c 0
 434 106 422 118 421 138 c 0
 421 147 421 159 430 158 c 0
 459 155 477 133 477 105 c 0
 477 28 405 -36 324 -36 c 0xb4
 257 -36 219 -12 164 26 c 0
 142 42 110 55 100 55 c 0
 94 55 70 32 56 6 c 0
 48 -9 34 -14 20 -14 c 0
 3 -14 -10 0 -10 17 c 0
 -10 37 35 81 86 91 c 0
 92 92 94 97 97 103 c 0
 117 140 130 248 130 341 c 0
 130 474 199 628 344 629 c 0x74
EndSplineSet
Validated: 33
EndChar

StartChar: minus
Encoding: 1119 8722 872
Width: 600
Flags: W
HStem: 222 60<53.8933 543.031>
LayerCount: 2
Fore
SplineSet
64 222 m 2
 57 222 50 228 50 234 c 0
 50 243 53 282 74 282 c 2
 537 282 l 2
 544 282 552 275 550 268 c 0
 544 247 541 222 519 222 c 2
 64 222 l 2
EndSplineSet
Validated: 1
EndChar

StartChar: uni2216
Encoding: 1122 8726 874
Width: 370
Flags: W
LayerCount: 2
Fore
SplineSet
378 -47 m 2
 381 -55 371 -62 362 -62 c 0
 347 -62 332 -61 326 -47 c 2
 29 648 l 2
 26 656 34 665 42 665 c 0
 59 665 74 663 81 648 c 2
 378 -47 l 2
EndSplineSet
Validated: 1
EndChar

StartChar: uni226A
Encoding: 1132 8810 883
Width: 836
Flags: W
HStem: -6 21G<495.5 499 791.5 795>
LayerCount: 2
Fore
SplineSet
399 229 m 2
 779 55 l 2
 798 46 803 16 803 7 c 0
 803 2 798 -6 792 -6 c 0
 791 -6 790 -5 789 -5 c 2
 360 195 l 2
 343 203 319 216 319 222 c 0
 319 231 332 259 352 268 c 2
 789 468 l 2
 790 468 791 469 792 469 c 0
 798 469 804 460 802 454 c 0
 796 433 791 417 771 408 c 2
 398 234 l 2
 395 233 396 230 399 229 c 2
103 229 m 2
 483 55 l 2
 502 46 507 16 507 7 c 0
 507 2 502 -6 496 -6 c 0
 495 -6 494 -5 493 -5 c 2
 64 195 l 2
 47 203 23 216 23 222 c 0
 23 231 36 259 56 268 c 2
 493 468 l 2
 494 468 495 469 496 469 c 0
 502 469 508 460 506 454 c 0
 500 433 495 417 475 408 c 2
 102 234 l 2
 99 233 100 230 103 229 c 2
EndSplineSet
Validated: 1
EndChar

StartChar: uni226B
Encoding: 1133 8811 884
Width: 836
Flags: W
HStem: -6 21G<31 34.5 327 330.5>
LayerCount: 2
Fore
SplineSet
427 229 m 2
 430 230 431 233 428 234 c 2
 55 408 l 2
 35 417 30 433 24 454 c 0
 22 460 28 469 34 469 c 0
 35 469 36 468 37 468 c 2
 474 268 l 2
 494 259 507 231 507 222 c 0
 507 216 483 203 466 195 c 2
 37 -5 l 2
 36 -5 35 -6 34 -6 c 0
 28 -6 23 2 23 7 c 0
 23 16 28 46 47 55 c 2
 427 229 l 2
723 229 m 2
 726 230 727 233 724 234 c 2
 351 408 l 2
 331 417 326 433 320 454 c 0
 318 460 324 469 330 469 c 0
 331 469 332 468 333 468 c 2
 770 268 l 2
 790 259 803 231 803 222 c 0
 803 216 779 203 762 195 c 2
 333 -5 l 2
 332 -5 331 -6 330 -6 c 0
 324 -6 319 2 319 7 c 0
 319 16 324 46 343 55 c 2
 723 229 l 2
EndSplineSet
Validated: 1
EndChar

StartChar: f_f
Encoding: 1217 64256 959
Width: 469
VWidth: 0
Flags: HW
HStem: -290 41<-155.973 -68.7217> -247 39<71.3848 160.021> 353 42<259.586 399.561 483.553 584.144> 624 39<392.979 481.537> 665 41<621.654 708.973>
LayerCount: 2
Fore
SplineSet
137 14 m 0
 116 -56 88 -111 58 -154 c 0
 56 -157 55 -160 56 -162 c 0
 62 -181 76 -208 130 -208 c 0
 131 -208 131 -208 132 -208 c 1
 133 -208 133 -208 134 -208 c 0
 164 -208 231 -189 275 -59 c 0
 314 69 l 0
 356 205 379 280 400 350 c 1
 391 352 359 353 328 353 c 0
 306 353 286 353 274 352 c 0
 234 349 236 341 231 326 c 0
 208 255 191 197 154 69 c 0
 137 14 l 0
359 14 m 2
 292 -206 133 -247 82 -247 c 0
 64 -247 29 -237 11 -222 c 0
 5 -222 3 -222 0 -222 c 0
 -54 -272 -106 -290 -144 -290 c 0
 -183 -290 -198 -287 -218 -265 c 24
 -229 -252 -224 -230 -213 -212 c 0
 -204 -197 -190 -190 -179 -190 c 0
 -168 -190 -177 -249 -99 -249 c 0
 -98 -249 -98 -249 -97 -249 c 0
 -44 -248 11 -194 52 -59 c 2
 177 350 l 1
 166 350 150 350 133 352 c 0
 128 353 128 374 135 376 c 0
 163 384 176 393 194 402 c 1
 261 622 420 663 471 663 c 0
 489 663 523 653 541 638 c 0
 547 638 549 638 552 638 c 0
 606 688 659 706 697 706 c 0
 736 706 751 703 771 681 c 24
 782 668 777 646 766 628 c 0
 757 613 743 606 732 606 c 0
 721 606 729 665 651 665 c 0
 650 665 650 665 649 665 c 0
 596 664 542 610 501 475 c 2
 485 422 l 2
 479 404 488 400 499 400 c 10
 600 400 l 18
 609 400 587 352 578 352 c 10
 496 352 l 18
 462 352 459 341 454 326 c 2
 359 14 l 2
497 578 m 0
 491 597 477 624 423 624 c 0
 422 624 422 624 421 624 c 1
 420 624 419 624 418 624 c 0
 389 624 322 605 278 475 c 1
 261 422 l 1
 255 404 265 401 276 400 c 0
 302 397 332 395 358 395 c 0
 384 395 407 397 416 402 c 1
 437 472 465 527 495 570 c 0
 497 573 498 576 497 578 c 0
EndSplineSet
Validated: 33
LCarets2: 1 249 
EndChar

StartChar: uniFB01
Encoding: 1218 64257 960
Width: 451
VWidth: 0
Flags: W
HStem: -290 41<-160.372 -64.6917> -3 27<259.367 310.903> 353 40<265.427 399.171> 666 40<419.485 498.362>
LayerCount: 2
Fore
SplineSet
395 68 m 0
 387 41 403 30 418 24 c 0
 426 20 436 16 433 6 c 0
 430 -2 419 -3 413 -3 c 0
 412 -3 411 -3 410 -3 c 0
 376 -3 374 2 344 2 c 0
 314 2 309 -3 275 -3 c 0
 274 -3 273 -3 272 -3 c 0
 266 -3 254 -2 257 6 c 0
 260 16 273 20 283 24 c 0
 302 30 324 41 333 68 c 0
 349 118 383 229 397 279 c 0
 407 315 406 345 379 352 c 0
 377 353 357 353 333 353 c 0
 316 353 296 353 280 352 c 0
 240 350 241 341 236 326 c 0
 213 255 196 196 159 68 c 0
 143 14 l 0
 72 -217 -66 -290 -141 -290 c 0
 -179 -290 -194 -287 -213 -265 c 24
 -224 -252 -219 -230 -208 -212 c 0
 -199 -197 -186 -190 -175 -190 c 0
 -152 -190 -157 -249 -91 -249 c 0
 -38 -249 15 -194 58 -59 c 0
 97 68 l 0
 139 204 162 280 183 350 c 1
 171 350 156 350 139 352 c 0
 134 353 134 374 141 376 c 0
 169 384 179 393 199 402 c 1
 272 642 426 706 502 706 c 0
 559 706 625 687 585 620 c 0
 579 609 544 595 525 595 c 0
 518 595 513 597 512 602 c 0
 510 624 506 666 453 666 c 0
 452 666 452 666 451 666 c 0
 397 665 330 609 285 475 c 0
 279 456 272 438 267 422 c 0
 261 404 271 402 282 400 c 0
 313 396 350 393 381 393 c 0
 412 393 438 396 447 400 c 0
 467 411 484 422 503 433 c 0
 508 435 514 434 512 429 c 0
 503 406 485 361 458 275 c 0
 450 250 438 211 426 172 c 0
 414 133 402 93 395 68 c 0
EndSplineSet
Validated: 33
LCarets2: 1 274 
EndChar

StartChar: uniFB02
Encoding: 1219 64258 961
Width: 433
VWidth: 0
Flags: W
HStem: -290 41<-160.372 -64.6917> -3 27<247.289 297.903> 352 48<266.73 405.088> 666 40<418.678 508.5>
AnchorPoint: "below_accent" 643 -100 basechar 0
LayerCount: 2
Fore
SplineSet
382 68 m 0
 374 41 391 30 406 24 c 0
 414 20 423 16 420 6 c 0
 417 -2 406 -3 400 -3 c 0
 399 -3 398 -3 397 -3 c 0
 363 -3 361 2 331 2 c 0
 301 2 296 -3 262 -3 c 0
 261 -3 260 -3 259 -3 c 0
 253 -3 242 -2 245 6 c 0
 248 16 260 20 270 24 c 0
 289 30 311 41 320 68 c 0
 356 187 384 272 405 342 c 0
 407 350 401 352 398 352 c 10
 280 352 l 18
 241 352 241 341 236 326 c 0
 213 255 196 196 159 68 c 0
 143 14 l 0
 72 -217 -66 -290 -141 -290 c 0
 -179 -290 -194 -287 -213 -265 c 24
 -224 -252 -219 -230 -208 -212 c 0
 -199 -197 -186 -190 -175 -190 c 0
 -152 -190 -157 -249 -91 -249 c 0
 -38 -249 15 -194 58 -59 c 0
 97 68 l 0
 139 204 162 280 183 350 c 1
 171 350 150 350 133 352 c 0
 128 353 128 374 135 376 c 0
 163 384 179 393 199 402 c 1
 275 642 426 706 502 706 c 0
 515 706 532 705 546 698 c 0
 550 697 554 695 559 697 c 0
 568 702 582 710 581 698 c 1
 578 686 562 652 534 562 c 0
 473 372 440 265 382 68 c 0
425 410 m 0
 439 456 453 505 472 566 c 1
 480 596 504 666 450 666 c 0
 397 666 330 609 285 475 c 0
 279 456 272 438 267 422 c 0
 261 404 271 400 282 400 c 10
 415 400 l 18
 420 400 423 403 425 410 c 0
EndSplineSet
Validated: 33
LCarets2: 1 256 
EndChar

StartChar: uniFB03
Encoding: 1220 64259 962
Width: 661
VWidth: 0
Flags: HW
HStem: -290 41<-156.712 -69.8997> -247 39<71.9821 160.274> -3 27<476.252 526.903> 353 42<259.629 399.265 483.83 617.171> 624 39<393.474 481.553> 667 39<630.599 714.881>
LayerCount: 2
Fore
SplineSet
136 14 m 2
 115 -56 87 -111 58 -154 c 0
 56 -157 55 -160 56 -162 c 0
 62 -181 76 -208 130 -208 c 0
 131 -208 131 -208 132 -208 c 1
 133 -208 133 -208 134 -208 c 0
 164 -208 231 -189 275 -59 c 0
 314 68 l 0
 356 204 379 280 400 350 c 1
 391 352 359 353 328 353 c 0
 306 353 285 353 273 352 c 0
 232 349 236 341 231 326 c 2
 136 14 l 2
360 14 m 0
 293 -206 133 -247 82 -247 c 0
 63 -247 27 -237 9 -222 c 0
 3 -222 1 -222 -2 -222 c 0
 -55 -272 -107 -290 -145 -290 c 0
 -183 -290 -199 -287 -218 -265 c 24
 -229 -252 -224 -230 -213 -212 c 0
 -204 -197 -190 -190 -179 -190 c 0
 -168 -190 -177 -249 -99 -249 c 0
 -98 -249 -98 -249 -97 -249 c 0
 -44 -248 11 -194 52 -59 c 2
 177 350 l 1
 166 350 150 350 133 352 c 0
 128 353 128 374 135 376 c 0
 163 384 175 393 193 402 c 1
 260 622 421 663 472 663 c 0
 490 663 525 653 543 638 c 0
 549 638 550 638 553 638 c 0
 607 688 674 706 713 706 c 0
 753 706 801 698 813 682 c 0
 824 667 818 642 807 624 c 0
 801 613 766 599 747 599 c 0
 740 599 735 601 734 606 c 0
 732 627 719 667 666 667 c 0
 665 667 663 667 662 667 c 0
 608 666 541 611 500 476 c 0
 494 457 490 438 485 422 c 0
 479 404 488 402 499 400 c 0
 530 396 568 393 599 393 c 0
 630 393 656 396 665 400 c 0
 685 411 702 422 721 433 c 0
 726 435 732 434 730 429 c 0
 721 406 703 361 676 275 c 0
 660 225 625 118 611 68 c 0
 603 41 620 30 635 24 c 0
 643 20 653 16 650 6 c 0
 647 -2 636 -3 630 -3 c 0
 629 -3 628 -3 627 -3 c 0
 593 -3 591 2 560 2 c 0
 529 2 525 -3 491 -3 c 0
 490 -3 489 -3 488 -3 c 0
 482 -3 471 -2 474 6 c 0
 477 16 488 20 499 24 c 0
 518 30 540 41 549 68 c 0
 557 93 570 134 582 174 c 0
 594 214 607 254 614 279 c 0
 624 315 623 345 596 352 c 0
 594 353 574 353 550 353 c 0
 533 353 513 353 497 352 c 0
 457 350 458 341 453 326 c 0
 430 255 413 196 376 68 c 0
 360 14 l 0
278 475 m 2
 261 422 l 1
 255 404 265 401 276 400 c 0
 302 397 332 395 358 395 c 0
 384 395 406 397 416 402 c 1
 437 472 465 527 495 570 c 0
 497 573 498 576 497 578 c 0
 491 597 477 624 423 624 c 0
 422 624 422 624 421 624 c 1
 420 624 419 624 418 624 c 0
 389 624 318 605 278 475 c 2
EndSplineSet
Validated: 33
LCarets2: 2 254 504 
EndChar

StartChar: uniFB04
Encoding: 1221 64260 963
Width: 655
VWidth: 0
Flags: W
HStem: -290 41<-156.712 -69.8997> -247 39<71.9821 160.274> -3 27<464.367 516.266> 353 42<259.586 399.265 484.117 622.088> 624 39<392.979 481.694> 666 40<630.06 725>
AnchorPoint: "below_accent" 637 -100 basechar 0
LayerCount: 2
Fore
SplineSet
137 14 m 0
 116 -56 88 -111 58 -154 c 0
 56 -157 55 -160 56 -162 c 0
 62 -181 76 -208 130 -208 c 0
 131 -208 131 -208 132 -208 c 1
 133 -208 133 -208 134 -208 c 0
 164 -208 231 -189 275 -59 c 0
 314 68 l 0
 356 204 379 280 400 350 c 1
 391 352 359 353 328 353 c 0
 306 353 286 353 274 352 c 0
 234 349 235 341 230 326 c 0
 207 255 191 197 154 69 c 0
 137 14 l 0
360 14 m 0
 293 -206 133 -247 82 -247 c 0
 63 -247 27 -237 9 -222 c 0
 3 -222 1 -222 -2 -222 c 0
 -55 -272 -107 -290 -145 -290 c 0
 -183 -290 -199 -287 -218 -265 c 24
 -229 -252 -224 -230 -213 -212 c 0
 -204 -197 -190 -190 -179 -190 c 0
 -168 -190 -177 -249 -99 -249 c 0
 -98 -249 -98 -249 -97 -249 c 0
 -44 -248 11 -194 52 -59 c 0
 91 68 l 0
 133 204 156 280 177 350 c 1
 166 350 150 350 133 352 c 0
 128 353 128 374 135 376 c 0
 163 384 177 393 194 402 c 1
 261 622 420 663 471 663 c 0
 489 663 525 653 543 638 c 0
 549 638 550 638 553 638 c 0
 607 688 678 706 717 706 c 0
 733 706 749 705 763 698 c 0
 767 697 771 695 776 697 c 0
 785 702 799 710 798 698 c 1
 795 686 779 652 751 562 c 2
 600 68 l 2
 592 41 608 30 623 24 c 0
 631 20 641 16 638 6 c 0
 635 -2 624 -3 618 -3 c 0
 617 -3 616 -3 615 -3 c 0
 581 -3 579 2 549 2 c 0
 519 2 514 -3 480 -3 c 0
 479 -3 478 -3 477 -3 c 0
 471 -3 459 -2 462 6 c 0
 465 16 478 20 488 24 c 0
 507 30 530 41 538 68 c 2
 622 342 l 2
 624 350 618 352 615 352 c 10
 497 352 l 18
 458 352 458 341 453 326 c 0
 430 255 414 197 377 69 c 0
 360 14 l 0
416 402 m 1
 437 472 465 527 495 570 c 0
 497 573 498 576 497 578 c 0
 491 597 477 624 423 624 c 0
 422 624 422 624 421 624 c 1
 420 624 419 624 418 624 c 0
 389 624 322 605 278 475 c 1
 261 422 l 1
 255 404 265 401 276 400 c 0
 302 397 332 395 358 395 c 0
 384 395 406 397 416 402 c 1
643 410 m 0
 657 456 670 505 689 566 c 1
 697 596 721 666 667 666 c 0
 614 666 547 609 502 475 c 0
 496 456 490 438 485 422 c 0
 479 404 488 400 499 400 c 10
 632 400 l 18
 637 400 641 403 643 410 c 0
EndSplineSet
Validated: 33
LCarets2: 2 254 510 
EndChar

